<?xml version="1.0" encoding="utf-8"?>
<!-- Generator: Adobe Illustrator 16.0.0, SVG Export Plug-In . SVG Version: 6.00 Build 0)  -->
<!DOCTYPE svg PUBLIC "-//W3C//DTD SVG 1.1//EN" "http://www.w3.org/Graphics/SVG/1.1/DTD/svg11.dtd">
<svg version="1.1" id="Layer_1" xmlns="http://www.w3.org/2000/svg" xmlns:xlink="http://www.w3.org/1999/xlink" x="0px" y="0px"
	 width="800px" height="800px" viewBox="0 0 800 800" enable-background="new 0 0 800 800" xml:space="preserve">
<g>
	<g id="XMLID_325_">
		<circle fill="#CBE9FF" cx="384.545" cy="395.834" r="382.834"/>
	</g>
	<g id="XMLID_362_">
		<g id="XMLID_67_">
			<g id="XMLID_326_">
				<g id="XMLID_327_">
					<g id="XMLID_572_">
						<path fill="#636363" d="M544.58,419.97l-0.686-0.162c-17.042-4.01-20.098-26.96-4.698-35.292l0.616-0.334
							c18.662-10.096,9.324-38.543-11.691-35.615l-0.693,0.097c-17.343,2.415-28.483-17.878-17.133-31.21l0.458-0.536
							c13.75-16.156-5.232-39.309-23.771-28.988l-0.613,0.344c-15.299,8.517-33.016-6.383-27.246-22.916l0.228-0.664
							c6.989-20.034-19.075-34.766-32.634-18.443l-0.45,0.541c-11.187,13.467-33.091,5.974-33.686-11.525l-0.022-0.702
							c-0.721-21.205-30.348-25.525-37.095-5.409l-0.224,0.666c-5.566,16.602-28.698,17.526-35.572,1.424l-0.278-0.646
							c-8.333-19.514-37.519-12.84-36.542,8.354l0.032,0.704c0.806,17.49-20.43,26.709-32.658,14.177l-0.491-0.502
							c-14.819-15.186-39.624,1.58-31.056,20.992l0.284,0.643c7.07,16.018-9.402,32.286-25.332,25.019l-0.638-0.293
							c-19.304-8.807-36.377,15.789-21.377,30.793l0.497,0.499c12.38,12.381,2.897,33.501-14.583,32.479l-0.701-0.041
							c-21.181-1.241-28.217,27.863-8.808,36.436l0.643,0.284c16.017,7.077,14.802,30.192-1.865,35.552l-0.668,0.219
							c-20.2,6.493-16.248,36.172,4.946,37.156l0.704,0.032c17.49,0.811,24.71,22.807,11.105,33.826l-0.546,0.443
							c-4.635,3.753-6.759,8.525-7.071,13.293c5.017-1.161,10.152-1.796,15.323-1.796c39.382,0,68.848,30.993,72.598,68.573
							c11.301-0.836,22.289,8.843,20.303,21.903l-0.105,0.696c-3.189,20.975,25.139,30.666,35.467,12.131l0.343-0.613
							c8.522-15.295,31.431-11.955,35.23,5.139l0.152,0.687c4.604,20.712,34.521,19.516,37.455-1.501l0.097-0.696
							c2.422-17.34,24.992-22.499,34.708-7.936l0.391,0.587c11.774,17.646,39.239,5.727,34.385-14.929l-0.158-0.687
							c-4.007-17.044,15.17-30.008,29.495-19.935l0.573,0.402c17.354,12.204,38.658-8.833,26.669-26.342l-0.396-0.579
							c-9.894-14.446,3.311-33.463,20.303-29.246l0.683,0.17c20.594,5.111,32.857-22.204,15.354-34.197l-0.579-0.398
							c-14.442-9.896-9.003-32.399,8.365-34.606l0.696-0.088C563.667,454.729,565.232,424.832,544.58,419.97z M346.08,568.965
							c-77.175,0-139.739-62.563-139.739-139.739c0-77.178,62.564-139.741,139.739-139.741c77.178,0,139.741,62.563,139.741,139.741
							C485.821,506.401,423.258,568.965,346.08,568.965z"/>
					</g>
				</g>
			</g>
			<g id="XMLID_353_">
				<g id="XMLID_354_">
					<g id="XMLID_356_">
						<path fill="#124460" d="M534.835,419.855l-0.691-0.163c-17.257-4.061-20.349-27.293-4.761-35.727l0.626-0.34
							c18.896-10.22,9.439-39.019-11.833-36.055l-0.707,0.097c-17.555,2.446-28.83-18.098-17.34-31.595l0.458-0.542
							c13.922-16.355-5.296-39.794-24.063-29.345l-0.62,0.347c-15.485,8.621-33.422-6.463-27.586-23.198l0.235-0.672
							c7.076-20.282-19.314-35.196-33.037-18.672l-0.457,0.548c-11.323,13.633-33.5,6.048-34.101-11.667l-0.025-0.711
							c-0.729-21.468-30.722-25.841-37.552-5.476l-0.224,0.675c-5.636,16.804-29.056,17.742-36.016,1.44l-0.279-0.654
							c-8.433-19.754-37.983-12.999-36.994,8.458l0.033,0.71c0.815,17.707-20.683,27.04-33.061,14.353l-0.498-0.508
							c-15.002-15.374-40.115,1.599-31.442,21.25l0.289,0.651c7.156,16.218-9.517,32.686-25.644,25.328l-0.648-0.295
							c-19.542-8.916-36.826,15.983-21.641,31.174l0.505,0.503c12.53,12.535,2.93,33.916-14.763,32.88l-0.711-0.042
							c-21.444-1.255-28.566,28.207-8.917,36.885l0.65,0.288c16.215,7.163,14.987,30.57-1.887,35.993l-0.678,0.218
							c-20.45,6.578-16.447,36.623,5.009,37.618l0.71,0.034c17.707,0.822,25.017,23.089,11.243,34.243l-0.554,0.447
							c-16.692,13.521-2.107,40.092,18.259,33.269l0.676-0.225c16.808-5.632,31.667,12.491,22.852,27.87l-0.353,0.616
							c-10.681,18.637,12.516,38.145,29.043,24.426l0.547-0.454c13.639-11.323,34.042,0.208,31.379,17.732l-0.108,0.702
							c-3.227,21.238,25.451,31.049,35.908,12.284l0.345-0.619c8.627-15.485,31.818-12.104,35.666,5.2l0.155,0.693
							c4.661,20.967,34.948,19.759,37.917-1.518l0.099-0.704c2.452-17.555,25.299-22.779,35.136-8.036l0.395,0.593
							c11.92,17.87,39.724,5.798,34.807-15.11l-0.159-0.693c-4.058-17.257,15.357-30.379,29.859-20.185l0.582,0.408
							c17.572,12.357,39.136-8.943,27.001-26.663l-0.401-0.59c-10.019-14.623,3.351-33.875,20.551-29.606l0.693,0.17
							c20.846,5.173,33.262-22.478,15.54-34.62l-0.585-0.402c-14.623-10.018-9.113-32.797,8.47-35.032l0.705-0.091
							C554.158,455.045,555.745,424.776,534.835,419.855z M333.883,570.69c-78.128,0-141.467-63.337-141.467-141.465
							c0-78.133,63.339-141.469,141.467-141.469c78.131,0,141.466,63.336,141.466,141.469
							C475.349,507.354,412.014,570.69,333.883,570.69z"/>
					</g>
				</g>
			</g>
			<g id="XMLID_60_">
				<path fill="#124460" d="M409.453,429.226c0,41.734-33.835,75.564-75.57,75.564c-41.734,0-75.566-33.83-75.566-75.564
					c0-41.736,33.833-75.568,75.566-75.568C375.618,353.658,409.453,387.489,409.453,429.226z"/>
			</g>
		</g>
		<g id="XMLID_70_">
			<g id="XMLID_467_">
				<g id="XMLID_468_">
					<g id="XMLID_559_">
						<path fill="#636363" d="M789.206,188.468l-0.499-0.119c-12.53-2.982-14.774-20.033-3.458-26.222l0.458-0.248
							c13.714-7.503,6.85-28.638-8.595-26.464l-0.512,0.073c-12.745,1.794-20.931-13.284-12.59-23.191l0.336-0.397
							c10.104-12.003-3.847-29.208-17.47-21.538l-0.452,0.255c-11.241,6.327-24.263-4.744-20.023-17.026l0.169-0.494
							c5.136-14.884-14.021-25.829-23.986-13.703l-0.329,0.402c-8.223,10.006-24.321,4.438-24.758-8.562l-0.015-0.522
							c-0.533-15.756-22.304-18.966-27.264-4.02l-0.167,0.496c-4.088,12.334-21.089,13.022-26.14,1.057l-0.205-0.48
							c-6.123-14.5-27.572-9.54-26.858,6.208l0.028,0.521c0.35,7.711-5.012,13.223-11.298,14.514
							c-4.033,32.619-33.677,59.172-66.045,62.382c0.478,7.851-5.648,15.635-14.789,15.094l-0.515-0.031
							c-15.568-0.921-20.742,20.702-6.475,27.072l0.474,0.211c11.768,5.256,10.882,22.433-1.371,26.417l-0.492,0.159
							c-14.845,4.827-11.941,26.878,3.639,27.609l0.512,0.024c12.856,0.603,18.165,16.946,8.165,25.133l-0.402,0.329
							c-12.121,9.922-1.532,29.425,13.257,24.416l0.486-0.166c12.204-4.133,22.995,9.17,16.59,20.457l-0.256,0.452
							c-7.755,13.679,9.089,27.997,21.089,17.927l0.396-0.334c9.903-8.31,24.714,0.154,22.78,13.017l-0.077,0.516
							c-2.342,15.584,18.477,22.785,26.064,9.015l0.254-0.458c6.261-11.361,23.099-8.881,25.893,3.819l0.112,0.51
							c3.383,15.389,25.37,14.5,27.528-1.114l0.069-0.516c1.78-12.885,18.365-16.718,25.511-5.896l0.284,0.433
							c8.655,13.115,28.836,4.255,25.271-11.092l-0.118-0.507c-2.945-12.664,11.152-22.297,21.68-14.814l0.422,0.302
							c12.756,9.066,28.411-6.565,19.603-19.573l-0.291-0.43c-7.274-10.735,2.43-24.866,14.921-21.732l0.498,0.126
							c15.137,3.798,24.149-16.498,11.283-25.408l-0.423-0.296c-10.617-7.353-6.618-24.072,6.147-25.711l0.513-0.066
							C803.233,214.295,804.388,192.079,789.206,188.468z M643.322,299.171c-56.721,0-102.699-46.485-102.699-103.828
							c0-57.342,45.979-103.827,102.699-103.827c56.719,0,102.701,46.485,102.701,103.827
							C746.023,252.686,700.041,299.171,643.322,299.171z"/>
					</g>
				</g>
			</g>
			<g id="XMLID_300_">
				<g id="XMLID_329_">
					<g id="XMLID_332_">
						<path fill="#4C4A4A" d="M775.727,188.468l-0.506-0.119c-12.523-2.982-14.768-20.033-3.451-26.222l0.455-0.248
							c13.714-7.503,6.85-28.638-8.592-26.464l-0.513,0.073c-12.744,1.794-20.933-13.284-12.592-23.191l0.336-0.397
							c10.108-12.003-3.844-29.206-17.467-21.538l-0.452,0.255c-11.244,6.327-24.266-4.744-20.028-17.026l0.174-0.494
							c5.135-14.884-14.023-25.829-23.985-13.703l-0.333,0.402c-8.22,10.007-24.318,4.438-24.755-8.562l-0.021-0.522
							c-0.525-15.756-22.302-18.966-27.257-4.02l-0.167,0.496c-4.088,12.334-21.092,13.022-26.145,1.057l-0.203-0.48
							c-6.125-14.498-27.577-9.54-26.855,6.208l0.021,0.521c0.596,12.996-15.011,19.847-23.999,10.534l-0.36-0.373
							c-10.892-11.284-29.122,1.175-22.825,15.596l0.211,0.479c5.191,11.901-6.913,23.989-18.621,18.589l-0.469-0.217
							c-14.186-6.545-26.733,11.73-15.707,22.879l0.36,0.369c9.101,9.2,2.131,24.892-10.715,24.133l-0.517-0.031
							c-15.568-0.921-20.738,20.702-6.475,27.072l0.474,0.211c11.771,5.256,10.877,22.433-1.368,26.417l-0.492,0.159
							c-14.845,4.827-11.94,26.88,3.634,27.609l0.517,0.024c12.856,0.603,18.162,16.946,8.161,25.134l-0.402,0.327
							c-12.118,9.922-1.528,29.423,13.258,24.416l0.488-0.166c12.205-4.133,22.988,9.17,16.591,20.457l-0.256,0.452
							c-7.755,13.679,9.086,27.997,21.086,17.927l0.398-0.334c9.9-8.31,24.713,0.154,22.78,13.017l-0.08,0.516
							c-2.345,15.584,18.477,22.785,26.067,9.015l0.25-0.458c6.265-11.361,23.1-8.881,25.892,3.819l0.111,0.51
							c3.385,15.389,25.371,14.5,27.531-1.114l0.072-0.516c1.777-12.885,18.365-16.718,25.503-5.896l0.292,0.433
							c8.652,13.115,28.836,4.255,25.268-11.092l-0.118-0.507c-2.945-12.664,11.152-22.297,21.678-14.814l0.424,0.302
							c12.759,9.066,28.414-6.565,19.602-19.573l-0.294-0.43c-7.271-10.735,2.432-24.866,14.925-21.732l0.502,0.126
							c15.133,3.798,24.146-16.498,11.283-25.408l-0.427-0.296c-10.614-7.353-6.615-24.072,6.15-25.711l0.513-0.066
							C789.754,214.295,790.903,192.079,775.727,188.468z M629.84,299.171c-56.721,0-102.7-46.485-102.7-103.828
							c0-57.342,45.979-103.827,102.7-103.827s102.704,46.485,102.704,103.827C732.544,252.686,686.561,299.171,629.84,299.171z"/>
					</g>
				</g>
			</g>
			<g id="XMLID_85_">
				<path fill="#4C4A4A" d="M697.459,195.343c0,30.228-24.238,54.732-54.137,54.732c-29.896,0-54.139-24.504-54.139-54.732
					c0-30.227,24.242-54.731,54.139-54.731C673.221,140.612,697.459,165.116,697.459,195.343z"/>
			</g>
		</g>
	</g>
</g>
</svg>
