<?xml version="1.0" encoding="utf-8"?>
<!-- Generator: Adobe Illustrator 16.0.0, SVG Export Plug-In . SVG Version: 6.00 Build 0)  -->
<!DOCTYPE svg PUBLIC "-//W3C//DTD SVG 1.1//EN" "http://www.w3.org/Graphics/SVG/1.1/DTD/svg11.dtd">
<svg version="1.1" id="Layer_1" xmlns="http://www.w3.org/2000/svg" xmlns:xlink="http://www.w3.org/1999/xlink" x="0px" y="0px"
	 width="800px" height="800px" viewBox="0 0 800 800" enable-background="new 0 0 800 800" xml:space="preserve">
<g>
	<g id="XMLID_50_">
		<circle fill="#09C4A3" cx="400.345" cy="377.462" r="377.624"/>
	</g>
	<g id="XMLID_334_">
		<g id="XMLID_383_">
			<g id="XMLID_388_">
				<path fill="#717271" d="M547.639,662.185H298.903c-4.08,0-8.529-7.85-8.529-11.929l1.114-398.049
					c0-4.08,3.335-7.417,7.415-7.417h248.736c4.076,0,7.416,3.337,7.416,7.417V654.77
					C555.055,658.846,551.715,662.185,547.639,662.185z"/>
			</g>
			<g id="XMLID_387_">
				<path fill="#191B1C" d="M556.722,670.392H289.874c-5.594,0-10.173-4.575-10.173-10.173V241.353
					c0-5.595,4.579-10.172,10.173-10.172h266.848c5.595,0,10.174,4.577,10.174,10.172v418.866
					C566.896,665.816,562.316,670.392,556.722,670.392z"/>
			</g>
			<g id="XMLID_386_">
				<path fill="#D0D0D0" d="M526.542,624.403h-205.89c-5.595,0-10.174-4.579-10.174-10.174V271.399
					c0-5.595,4.579-10.172,10.174-10.172h205.89c5.595,0,10.173,4.577,10.173,10.172v342.831
					C536.715,619.824,532.137,624.403,526.542,624.403z"/>
			</g>
			<g id="XMLID_385_">
				<path fill="#454745" d="M445.655,649.165h-44.116c-2.653,0-4.824-2.167-4.824-4.823v-0.55c0-2.649,2.171-4.823,4.824-4.823
					h44.116c2.653,0,4.823,2.174,4.823,4.823v0.55C450.479,646.998,448.309,649.165,445.655,649.165z"/>
			</g>
			<g id="XMLID_384_">
				<path fill="#585959" d="M445.394,647.844h-43.593c-2.796,0-5.086-2.289-5.086-5.085v-3.801c0-2.796,2.29-5.085,5.086-5.085
					h43.593c2.8,0,5.085,2.289,5.085,5.085v3.801C450.479,645.555,448.193,647.844,445.394,647.844z"/>
			</g>
		</g>
		<g id="XMLID_355_">
			<g id="XMLID_382_">
				<circle fill="#B44B24" cx="426.004" cy="423.351" r="69.53"/>
			</g>
			<g id="XMLID_381_">
				<circle fill="#E9754D" cx="417.444" cy="423.351" r="69.53"/>
			</g>
		</g>
		<g id="XMLID_380_">
			<g id="XMLID_404_">
				<path fill="#FFFFFF" d="M403.247,407.793c1.749,1.622,2.622,3.699,2.622,6.231s-0.846,4.616-2.537,6.252
					c-1.695,1.635-4.263,2.452-7.703,2.452h-5.717v12.206h-3.887v-29.573h9.604C398.957,405.361,401.498,406.173,403.247,407.793z
					 M389.912,419.658h5.717c2.133,0,3.719-0.493,4.758-1.475c1.04-0.979,1.56-2.353,1.56-4.117c0-3.726-2.106-5.591-6.317-5.591
					h-5.717V419.658z"/>
			</g>
			<g id="XMLID_410_">
				<path fill="#FFFFFF" d="M431.09,434.935l-2.303-6.487h-13.146l-2.303,6.487h-3.971l10.754-29.573h4.27l10.71,29.573H431.09z
					 M416.753,425.376h10.924l-5.462-15.278L416.753,425.376z"/>
			</g>
			<g id="XMLID_413_">
				<path fill="#FFFFFF" d="M451.148,434.935h-3.887v-11.182l-9.643-18.392h4.27l7.296,14.808l7.256-14.808h4.31l-9.602,18.392
					V434.935z"/>
			</g>
		</g>
		<g id="XMLID_52_">
			<path fill="#FFFFFF" d="M528.532,298.827h-78.546c-1.168,0-2.127-0.958-2.127-2.129v-0.243c0-1.172,0.959-2.129,2.127-2.129
				h78.546c1.169,0,2.13,0.958,2.13,2.129v0.243C530.662,297.87,529.701,298.827,528.532,298.827z"/>
		</g>
		<g id="XMLID_51_">
			<path fill="#FFFFFF" d="M514.497,287.966h-78.543c-1.172,0-2.13-0.959-2.13-2.131v-0.243c0-1.17,0.958-2.129,2.13-2.129h78.543
				c1.169,0,2.13,0.959,2.13,2.129v0.243C516.627,287.007,515.666,287.966,514.497,287.966z"/>
		</g>
		<g id="XMLID_338_">
			<path fill="#FFFFFF" d="M413.199,611.067h-78.542c-1.172,0-2.129-0.958-2.129-2.13v-0.244c0-1.172,0.958-2.13,2.129-2.13h78.542
				c1.172,0,2.13,0.958,2.13,2.13v0.244C415.329,610.109,414.371,611.067,413.199,611.067z"/>
		</g>
		<g id="XMLID_53_">
			<path fill="#FFFFFF" d="M399.164,600.205h-78.542c-1.172,0-2.13-0.958-2.13-2.13v-0.241c0-1.176,0.958-2.134,2.13-2.134h78.542
				c1.172,0,2.13,0.958,2.13,2.134v0.241C401.294,599.247,400.336,600.205,399.164,600.205z"/>
		</g>
		<g id="XMLID_428_">
			<path fill="#FFEB17" d="M377.629,397.864c-3.641-0.168-6.97-2.007-9.555-4.499c-2.911-2.806-4.854-6.438-6.328-10.165
				c-0.883-2.233-1.627-4.518-2.364-6.802c-0.326-1.005-1.675-0.975-2.015,0c-1.131,3.263-2.52,6.427-4.164,9.463
				c-1.365,2.521-2.887,5.046-5.115,6.902c-0.096,0.078-0.19,0.153-0.286,0.226c-2.446,1.518-5.326,2.271-8.234,2.121
				c-1.158-0.06-1.447,1.841-0.278,2.05c7.952,1.427,14.616,7.649,17.038,15.301c0.686,2.167,1.016,4.407,0.961,6.682
				c-0.027,1.238,1.661,1.333,2.052,0.276c2.568-6.962,5.544-14.718,12.649-18.188c1.756-0.858,3.682-1.313,5.639-1.281
				C378.978,399.974,378.964,397.926,377.629,397.864z"/>
		</g>
	</g>
	<g id="XMLID_335_">
		<g id="XMLID_415_">
			<path fill="#FFDDB3" d="M583.753,631.485l-1.589-23.189c2.234-1.736,3.78-4.212,3.162-9.053l-9.811-105.662
				c-0.723-9.807-9.211-17.229-18.865-16.494c-6.355,0.483-11.678,4.401-14.375,9.818c-3.118-6.27-9.738-10.374-17.031-9.818
				c-5.679,0.433-10.526,3.605-13.424,8.133c-3.396-5.306-9.467-8.638-16.083-8.133c-4.09,0.313-7.748,2.051-10.564,4.688
				l-2.911-39.834c-0.703-9.616-9.86-16.836-20.35-16.043c-10.489,0.792-18.498,9.309-17.795,18.927l5.37,73.492
				c-11.519,1.528-20.17,9.959-19.494,19.334l4.528,62.897c0.52,7.231,6.446,13.077,14.453,15.285l1.715,25.058
				c0.438,6.365,5.92,11.216,12.188,10.774l110.275-7.795C579.416,643.425,584.188,637.854,583.753,631.485z"/>
		</g>
		<g id="XMLID_47_">
			
				<rect x="442.528" y="635.454" transform="matrix(-0.9972 0.0747 -0.0747 -0.9972 1086.7507 1350.6599)" fill="#587BB7" width="151.143" height="120.426"/>
		</g>
		<g id="XMLID_375_">
			
				<rect x="435.554" y="651.908" transform="matrix(-0.9972 0.0748 -0.0748 -0.9972 1089.9912 1404.926)" fill="#124460" width="166.291" height="141.913"/>
		</g>
	</g>
	<g id="XMLID_333_">
		<g id="XMLID_398_">
			<g id="XMLID_401_">
				<circle fill="#806640" cx="337.671" cy="316.336" r="39.071"/>
			</g>
			<g id="XMLID_400_">
				<circle fill="#CE9834" cx="332.862" cy="316.336" r="39.071"/>
			</g>
			<g id="XMLID_399_">
				<circle fill="#FFD097" cx="332.862" cy="316.336" r="27.24"/>
			</g>
		</g>
		<g id="XMLID_394_">
			<g id="XMLID_397_">
				<circle fill="#806640" cx="197.235" cy="267.834" r="33.308"/>
			</g>
			<g id="XMLID_396_">
				<circle fill="#CE9834" cx="193.134" cy="267.834" r="33.307"/>
			</g>
			<g id="XMLID_395_">
				<circle fill="#FFD097" cx="193.134" cy="267.834" r="23.222"/>
			</g>
		</g>
		<g id="XMLID_390_">
			<g id="XMLID_393_">
				<circle fill="#806640" cx="236.291" cy="377.462" r="36.6"/>
			</g>
			<g id="XMLID_392_">
				<circle fill="#CE9834" cx="231.783" cy="377.462" r="36.6"/>
			</g>
			<g id="XMLID_391_">
				<circle fill="#FFD097" cx="231.783" cy="377.462" r="25.517"/>
			</g>
		</g>
		<g id="XMLID_49_">
			<g id="XMLID_409_">
				<circle fill="#6D6D6D" cx="285.596" cy="176.626" r="29.601"/>
			</g>
			<g id="XMLID_408_">
				<path fill="#B4B4B4" d="M311.552,176.626c0,16.348-13.254,29.601-29.599,29.601c-16.349,0-29.603-13.252-29.603-29.601
					c0-16.349,13.254-29.601,29.603-29.601C298.298,147.025,311.552,160.278,311.552,176.626z"/>
			</g>
			<g id="XMLID_407_">
				<circle fill="#CECECE" cx="281.951" cy="176.626" r="20.637"/>
			</g>
		</g>
		<g id="XMLID_429_">
			<g id="XMLID_432_">
				<circle fill="#6D6D6D" cx="280.727" cy="249.425" r="27.84"/>
			</g>
			<g id="XMLID_431_">
				<circle fill="#B4B4B4" cx="277.296" cy="249.425" r="27.84"/>
			</g>
			<g id="XMLID_430_">
				<circle fill="#CECECE" cx="277.296" cy="249.425" r="19.409"/>
			</g>
		</g>
		<g id="XMLID_403_">
			<g id="XMLID_402_">
				<circle fill="#DC891A" cx="407.608" cy="191.689" r="29.895"/>
			</g>
			<g id="XMLID_389_">
				<circle fill="#FFB327" cx="403.928" cy="191.689" r="29.896"/>
			</g>
			<g id="XMLID_83_">
				<circle fill="#FFCA82" cx="403.926" cy="191.689" r="20.842"/>
			</g>
		</g>
		<g id="XMLID_484_">
			<g id="XMLID_487_">
				<circle fill="#DC891A" cx="155.693" cy="411.18" r="21.858"/>
			</g>
			<g id="XMLID_486_">
				<circle fill="#FFB327" cx="153.002" cy="411.18" r="21.858"/>
			</g>
			<g id="XMLID_485_">
				<circle fill="#FFCA82" cx="153.002" cy="411.18" r="15.238"/>
			</g>
		</g>
	</g>
</g>
</svg>
