<?xml version="1.0" encoding="utf-8"?>
<!-- Generator: Adobe Illustrator 16.0.0, SVG Export Plug-In . SVG Version: 6.00 Build 0)  -->
<!DOCTYPE svg PUBLIC "-//W3C//DTD SVG 1.1//EN" "http://www.w3.org/Graphics/SVG/1.1/DTD/svg11.dtd">
<svg version="1.1" id="Layer_1" xmlns="http://www.w3.org/2000/svg" xmlns:xlink="http://www.w3.org/1999/xlink" x="0px" y="0px"
	 width="800px" height="800px" viewBox="0 0 800 800" enable-background="new 0 0 800 800" xml:space="preserve">
<g>
	<g id="XMLID_12_">
		<circle fill="#26485F" cx="399.739" cy="400.263" r="400.261"/>
	</g>
	<g id="XMLID_169_">
		<g id="XMLID_28_">
			<path fill="#FFC729" d="M631.141,379.346c0-123.893-98.969-224.325-221.053-224.325c-122.08,0-221.049,100.432-221.049,224.325
				c0,96.588,60.153,178.912,144.515,210.508v16.198c-4.929,0.333-8.826,4.424-8.826,9.436c0,3.519,1.924,6.583,4.773,8.216
				c-2.85,1.633-4.773,4.696-4.773,8.215s1.924,6.583,4.773,8.216c-2.85,1.633-4.773,4.697-4.773,8.215l0,0
				c0,3.151,1.546,5.935,3.91,7.658c-2.364,1.719-3.91,4.502-3.91,7.653l0,0c0,5.23,4.239,9.471,9.471,9.471h23.055v6.149
				c0,20.143,16.33,36.47,36.47,36.47h35.298c20.144,0,36.471-16.327,36.471-36.47v-6.149h23.055c5.23,0,9.47-4.24,9.47-9.471l0,0
				c0-3.151-1.542-5.935-3.91-7.653c2.368-1.724,3.91-4.507,3.91-7.658l0,0c0-3.518-1.924-6.582-4.772-8.215
				c2.849-1.633,4.772-4.697,4.772-8.216s-1.924-6.582-4.772-8.215c2.849-1.633,4.772-4.697,4.772-8.216
				c0-5.23-4.239-9.47-9.47-9.47h-1.921v-16.164C570.984,558.258,631.141,475.935,631.141,379.346z"/>
		</g>
		<g id="XMLID_33_">
			<path fill="#FFFFFF" d="M311.441,199.294c-32.837,17.79-62.735,44.9-71.329,82.635c-1.334,5.862,7.679,8.365,9.017,2.489
				c8.077-35.472,36.228-60.361,67.033-77.048C321.455,204.504,316.741,196.428,311.441,199.294z"/>
		</g>
		<g id="XMLID_479_">
			<path fill="#FFFFFF" d="M460.185,443.083c-5.57-13.217-23.26-22.077-35.884-12.232c-0.185,0.146-0.354,0.305-0.534,0.454
				c-4.642-6.095-11.675-10.129-19.405-5.563c-4.451,2.631-7.619,6.911-9.852,11.713c-0.197-0.104-0.388-0.219-0.589-0.319
				c-9.99-5.002-18.58-0.076-21.589,10.073c-3.162,10.663-1.255,22.282,2.596,32.505c3.979,10.565,10.032,20.122,15.141,30.154
				c5.439,10.684,8.538,21.679,9.072,33.658c0.568,12.771-1.203,25.818-1.993,38.797c-0.621,10.201-0.634,20.357,1.574,30.3
				c2.322,10.458,12.482,16.285,22.05,9.893c5.883-3.931,7.82-9.653,7.778-15.74c0.226-0.482,0.385-1.023,0.447-1.63
				c2.122-20.732-1.448-41.825,2.049-62.437c3.12-18.39,13.599-33.729,21.766-50.152
				C460.178,477.747,467.034,459.33,460.185,443.083z M452.461,467.286c-3.24,14.399-11.238,27.059-18.063,39.975
				c-7.044,13.321-12.095,26.768-13.537,41.836c-0.714,7.459-0.741,14.94-0.645,22.421c-1.813-1.304-4.271-1.733-7.186-1.29
				c-1.599,0.243-3.55,0.443-5.474,0.825c0.655-8.892,1.296-17.783,0.964-26.702c-0.319-8.621-1.543-17.301-4.396-25.475
				c-2.714-7.782-6.628-15.068-10.587-22.282c-4.256-7.754-8.628-15.512-11.183-24.019c-2.256-7.515-4.302-18.635,0.08-25.862
				c2.472-4.07,5.89-3.002,8.978-0.212c-0.423,1.74-0.759,3.463-1.019,5.12c-1.733,11.096-0.083,22.001,4.416,32.258
				c1.55,3.54,6.253,2.444,8.073,0c8.402-11.29,8.226-29.513-1.002-40.449c1.071-2.517,2.444-4.863,4.156-6.946
				c4.895-5.959,9.078-2.212,11.817,2.693c-2.132,4.586-3.051,9.816-3.442,14.818c-0.551,7.044,1.785,17.235,10.795,16.861
				c2.063-0.087,3.955-1.38,4.51-3.404c2.523-9.169,2.083-18.768-1.308-27.565c2.232-2.627,5.353-4.242,9.343-3.882
				C453.103,437.392,455.109,455.507,452.461,467.286z"/>
		</g>
		<g id="XMLID_31_">
			<path fill="#F1A614" d="M488.717,625.181H331.463c-5.064,0-9.207-4.143-9.207-9.207v-4.385c0-5.062,4.143-9.203,9.207-9.203
				h157.254c5.064,0,9.203,4.142,9.203,9.203v4.385C497.92,621.038,493.781,625.181,488.717,625.181z"/>
		</g>
		<g id="XMLID_41_">
			<path fill="#F1A614" d="M488.717,659.578H331.463c-5.064,0-9.207-4.143-9.207-9.204v-2.437c0-5.061,4.143-9.203,9.207-9.203
				h157.254c5.064,0,9.203,4.143,9.203,9.203v2.437C497.92,655.436,493.781,659.578,488.717,659.578z"/>
		</g>
	</g>
	<g id="XMLID_168_">
		<g id="XMLID_30_">
			<path fill="#FFC729" d="M202.884,178.926c-6.091-0.302-11.661-3.64-15.984-8.157c-4.871-5.088-8.122-11.675-10.586-18.431
				c-1.477-4.049-2.718-8.191-3.952-12.33c-0.544-1.823-2.804-1.768-3.37,0c-1.893,5.914-4.215,11.65-6.967,17.159
				c-2.281,4.569-4.829,9.148-8.559,12.51c-0.156,0.142-0.315,0.277-0.478,0.413c-4.087,2.752-8.909,4.114-13.776,3.844
				c-1.934-0.107-2.416,3.338-0.461,3.719c13.3,2.586,24.449,13.866,28.5,27.738c1.147,3.931,1.702,7.994,1.608,12.115
				c-0.048,2.246,2.78,2.416,3.432,0.502c4.298-12.621,9.272-26.688,21.163-32.976c2.939-1.556,6.159-2.381,9.429-2.322
				C205.14,182.749,205.123,179.037,202.884,178.926z"/>
		</g>
		<g id="XMLID_88_">
			<path fill="#FFC729" d="M306.581,116.167c-3.854-0.191-7.373-2.302-10.108-5.155c-3.078-3.217-5.133-7.38-6.69-11.65
				c-0.936-2.562-1.719-5.179-2.5-7.8c-0.346-1.151-1.771-1.116-2.128,0c-1.196,3.744-2.666,7.37-4.406,10.85
				c-1.441,2.888-3.054,5.782-5.411,7.91c-0.101,0.09-0.201,0.173-0.302,0.26c-2.586,1.74-5.633,2.6-8.708,2.43
				c-1.224-0.066-1.528,2.111-0.295,2.351c8.41,1.636,15.457,8.766,18.019,17.536c0.725,2.485,1.075,5.051,1.02,7.658
				c-0.031,1.421,1.754,1.528,2.166,0.319c2.718-7.98,5.865-16.871,13.381-20.847c1.857-0.984,3.893-1.504,5.962-1.47
				C308.006,118.586,307.992,116.239,306.581,116.167z"/>
		</g>
	</g>
	<g id="XMLID_139_">
		<g id="XMLID_34_">
			<path fill="#26485F" d="M358.019,327.662v-52.89c0-5.272-4.16-9.585-9.242-9.585h-50.835c0,28.12-21.98,50.915-49.098,50.915
				c-1.387,0-2.752-0.076-4.108-0.194c-0.832,10.486-1.726,20.965-2.61,31.444c-2.76,32.702-4.579,65.275-5.342,98.089
				c-0.687,29.665-16.598,55.678-19.291,85.218c5.37,2.091,25.277,6.864,31.351,6.864c27.117,0,49.098-22.796,49.098-50.915h50.835
				c5.082,0,9.242-4.313,9.242-9.585v-52.894c19.409-6.794,33.385-25.814,33.385-48.231
				C391.404,353.48,377.428,334.46,358.019,327.662z"/>
		</g>
		<g id="XMLID_29_">
			<path fill="#FF5A2E" d="M372.242,375.558c0-22.719-14.691-41.992-35.083-48.88v-53.601c0-5.342-4.371-9.713-9.713-9.713h-53.414
				c0,28.498-23.1,51.598-51.594,51.598c-28.497,0-51.594-23.1-51.594-51.598h-53.418c-5.342,0-9.713,4.371-9.713,9.713v52.336
				c22.636,5.459,39.455,25.832,39.455,50.145c0,24.31-16.819,44.682-39.455,50.146v52.332c0,5.342,4.371,9.713,9.713,9.713h53.418
				c0,28.494,23.1,51.594,51.594,51.594s51.594-23.1,51.594-51.594h53.414c5.342,0,9.713-4.371,9.713-9.713v-53.602
				C357.551,417.546,372.242,398.273,372.242,375.558z"/>
		</g>
	</g>
</g>
</svg>
