<?xml version="1.0" encoding="utf-8"?>
<!-- Generator: Adobe Illustrator 16.0.0, SVG Export Plug-In . SVG Version: 6.00 Build 0)  -->
<!DOCTYPE svg PUBLIC "-//W3C//DTD SVG 1.1//EN" "http://www.w3.org/Graphics/SVG/1.1/DTD/svg11.dtd">
<svg version="1.1" id="Layer_1" xmlns="http://www.w3.org/2000/svg" xmlns:xlink="http://www.w3.org/1999/xlink" x="0px" y="0px"
	 width="800px" height="800px" viewBox="0 0 800 800" enable-background="new 0 0 800 800" xml:space="preserve">
<g>
	<g id="XMLID_43_">
		<defs>
			<circle id="SVGID_1_" cx="398.524" cy="399.715" r="399.741"/>
		</defs>
		<use xlink:href="#SVGID_1_"  overflow="visible" fill="#FFB627"/>
		<clipPath id="SVGID_2_">
			<use xlink:href="#SVGID_1_"  overflow="visible"/>
		</clipPath>
		<g id="XMLID_465_" clip-path="url(#SVGID_2_)">
			<circle fill="none" cx="398.524" cy="399.715" r="399.741"/>
		</g>
		<g id="XMLID_424_" clip-path="url(#SVGID_2_)">
			<path fill="#BDECFF" d="M681.56,680.07c-11.495,153.936-145.606,269.405-299.543,257.913
				C228.082,926.485,112.61,792.38,124.104,638.441c11.495-153.938,145.605-269.408,299.544-257.914
				C577.579,392.022,693.055,526.133,681.56,680.07z"/>
		</g>
		<g id="XMLID_71_" clip-path="url(#SVGID_2_)">
			<path fill="#FFFFFF" d="M485.37,433.739c0,0-29.088,20.476-24.708,54.122c4.375,33.65,56.235,37.71,64.402,73.335
				c8.165,35.618-41.292,65.25-7.637,102.271c33.654,37.022,167.146,94.592,187.924,14.036
				C726.133,596.939,579.64,344.347,485.37,433.739z"/>
		</g>
		<g id="XMLID_74_" clip-path="url(#SVGID_2_)">
			<path fill="#FFFFFF" d="M123.584,652.495c0,0-4.229-170.105,159.405-246.426c0,0,39.684-25.498,73.396,17.071
				c33.716,42.571-55.273,48.574-64.097,67.943c-8.825,19.369,50.943,52.287,18.631,103.628
				c-32.312,51.345-63.507,22.667-76.525,74.392c-13.015,51.73,12.854,168.986-74.125,128.021
				C160.269,797.125,117.054,731.155,123.584,652.495z"/>
		</g>
		<g id="XMLID_77_" clip-path="url(#SVGID_2_)">
			<path fill="#FFFFFF" d="M594.938,756.473c-14.171-9.381-30.044-14.084-45.983-15.414c-16.224-1.352-32.848,0.777-48.951,5.08
				c-17.105,4.574-34.198,11.916-51.568,9.093c-19.199-3.12-36.653-15.798-55.649-20.411c-17.628-4.287-35.629-0.435-52.329,9.7
				c-34.792,21.112-103.253,82.996-116.646,129.408c-11.387,8.892,10.258,18.429,14.962,35.504
				c6.446,23.386,44.593,23.265,61.308,26.271c17.582,3.162,35.319,5.282,53.102,6.421c35.81,2.297,72.046,0.273,107.83-7.129
				c33.626-6.958,68.156-18.317,99.452-38.052c13.87-8.744,27.494-19.903,38.761-34.206c11.363-14.422,23.996-35.113,25.65-56.541
				C626.841,780.74,609.431,766.063,594.938,756.473z"/>
		</g>
		<g id="XMLID_68_" clip-path="url(#SVGID_2_)">
			<circle fill="none" cx="398.524" cy="399.715" r="399.741"/>
		</g>
		<g id="XMLID_315_" clip-path="url(#SVGID_2_)">
			<path fill="#B2B2B2" d="M389.681,426.239c-24.553,28.966-56.051,51.277-90.513,66.964
				c-38.477,17.517-80.486,26.559-122.486,30.027c-24.46,2.017-49.458,2.816-73.612-2.263c-3.33-0.704-4.756,4.411-1.412,5.115
				c21.891,4.604,44.36,4.525,66.583,3.073c21.764-1.423,43.468-4.244,64.79-8.856c39.938-8.638,78.703-23.845,112.415-47.145
				c17.76-12.272,34.017-26.688,47.988-43.163C395.629,427.403,391.894,423.63,389.681,426.239z"/>
			<path fill="#B2B2B2" d="M143.865,535.524c-13.616,0-28.512-0.958-43.332-4.077c-2.814-0.591-5.005-2.519-5.871-5.165
				c-0.914-2.796-0.235-5.927,1.784-8.171c1.957-2.181,4.873-3.113,7.751-2.511c24.398,5.132,50.107,3.973,72.034,2.166
				c45.19-3.732,85.788-13.675,120.664-29.554c35.725-16.262,65.536-38.306,88.601-65.519v-0.001
				c2.894-3.408,7.656-3.784,11.068-0.886c3.59,3.04,4.048,8.193,1.053,11.729c-13.893,16.388-30.398,31.237-49.054,44.128
				c-32.5,22.465-70.979,38.61-114.371,47.995c-20.59,4.453-42.657,7.47-65.596,8.968
				C161.155,535.114,152.784,535.524,143.865,535.524z"/>
		</g>
		<g id="XMLID_309_" clip-path="url(#SVGID_2_)">
			<path fill="#B2B2B2" d="M447.173,471.631c-13.693,21.211-32.538,38.641-53.906,51.951c-23.856,14.865-50.779,24.449-78.168,30.35
				c-15.954,3.44-32.364,6.126-48.729,4.86c-2.255-0.179-2.753,3.315-0.488,3.492c14.829,1.149,29.634-0.839,44.163-3.713
				c14.225-2.813,28.292-6.546,41.955-11.423c25.582-9.138,49.834-22.506,70.051-40.772c10.651-9.626,20.131-20.528,27.919-32.595
				C451.192,471.885,448.404,469.721,447.173,471.631z"/>
			<path fill="#B2B2B2" d="M274.608,568.097c-3.019,0-6.077-0.105-9.151-0.345c-3.958-0.309-6.814-3.667-6.51-7.645
				c0.321-4.123,3.732-7.089,7.846-6.791c16.271,1.267,32.973-1.686,47.149-4.745c29.267-6.307,54.981-16.281,76.426-29.642
				c21.915-13.656,39.479-30.571,52.197-50.272c1.387-2.15,3.753-3.376,6.197-3.242c2.597,0.126,4.966,1.679,6.183,4.05
				c1.201,2.342,1.063,5.067-0.37,7.29c-7.837,12.138-17.543,23.474-28.85,33.69c-19.667,17.769-43.851,31.852-71.887,41.865
				c-13.272,4.741-27.652,8.658-42.732,11.639C300.964,565.955,288.148,568.097,274.608,568.097z"/>
		</g>
		<g id="XMLID_48_" clip-path="url(#SVGID_2_)">
			<path fill="#949494" d="M637.676,509.848c-7.727,9.117-17.645,16.143-28.494,21.08c-12.116,5.514-25.345,8.359-38.563,9.452
				c-7.701,0.637-15.573,0.886-23.179-0.712c-1.049-0.221-1.498,1.391-0.441,1.611c6.892,1.447,13.966,1.423,20.963,0.968
				c6.852-0.448,13.685-1.337,20.398-2.789c12.57-2.718,24.779-7.506,35.393-14.84c5.588-3.868,10.707-8.402,15.104-13.59
				C639.55,510.211,638.372,509.022,637.676,509.848z"/>
			<path fill="#949494" d="M560.295,545.727c-4.375,0-9.166-0.313-13.958-1.316c-1.405-0.296-2.504-1.271-2.942-2.608
				c-0.451-1.376-0.123-2.916,0.861-4.016c0.971-1.081,2.405-1.544,3.845-1.248c7.5,1.579,15.461,1.22,22.254,0.654
				c14.056-1.16,26.669-4.244,37.5-9.174c11.053-5.03,20.266-11.842,27.38-20.241l0,0c1.432-1.686,3.867-1.882,5.561-0.451
				c1.758,1.49,1.982,4.022,0.509,5.767c-4.464,5.257-9.754,10.021-15.733,14.153c-10.39,7.183-22.688,12.34-36.535,15.339
				c-6.553,1.416-13.576,2.376-20.864,2.854C565.802,545.59,563.138,545.727,560.295,545.727z"/>
		</g>
		<g id="XMLID_138_" clip-path="url(#SVGID_2_)">
			<path fill="#949494" d="M631.318,542.628c-7.729,9.116-17.647,16.149-28.5,21.087c-12.113,5.514-25.338,8.359-38.561,9.451
				c-7.701,0.637-15.572,0.887-23.179-0.711c-1.048-0.224-1.498,1.387-0.444,1.611c6.897,1.447,13.97,1.423,20.966,0.967
				c6.853-0.447,13.685-1.337,20.398-2.788c12.57-2.718,24.774-7.506,35.393-14.845c5.593-3.866,10.708-8.402,15.107-13.588
				C633.189,542.994,632.012,541.806,631.318,542.628z"/>
			<path fill="#949494" d="M553.925,578.513c-4.368,0-9.16-0.313-13.948-1.316c-1.408-0.299-2.507-1.273-2.945-2.614
				c-0.447-1.377-0.117-2.917,0.868-4.013c0.971-1.081,2.411-1.548,3.841-1.241c7.495,1.565,15.461,1.206,22.254,0.651
				c14.06-1.164,26.677-4.251,37.497-9.175c11.053-5.033,20.263-11.842,27.383-20.24c0.922-1.092,2.291-1.598,3.676-1.348
				c1.423,0.256,2.614,1.272,3.116,2.664c0.498,1.376,0.229,2.87-0.723,3.994c-4.46,5.258-9.754,10.021-15.732,14.158
				c-10.393,7.182-22.689,12.34-36.536,15.339c-6.561,1.419-13.579,2.376-20.867,2.849
				C559.438,578.378,556.77,578.513,553.925,578.513z M540.422,575.585c0.003,0,0.003,0,0.006,0.004
				C540.425,575.585,540.425,575.585,540.422,575.585z M633.763,544.694l-0.003,0.004c-0.004,0.003-0.004,0.003-0.009,0.007
				C633.756,544.701,633.76,544.694,633.763,544.694z"/>
		</g>
		<g id="XMLID_173_" clip-path="url(#SVGID_2_)">
			<path fill="#949494" d="M306.771,378.674c-5.442-10.645-8.112-22.501-8.497-34.415c-0.427-13.306,2.035-26.608,6.118-39.232
				c2.375-7.353,5.171-14.714,9.576-21.117c0.604-0.884-0.708-1.916-1.315-1.03c-3.993,5.804-6.692,12.342-8.962,18.977
				c-2.222,6.495-4.035,13.145-5.275,19.9c-2.327,12.652-2.609,25.76,0.082,38.379c1.415,6.647,3.632,13.119,6.728,19.173
				C305.711,380.261,307.259,379.632,306.771,378.674z"/>
			<path fill="#949494" d="M305.981,382.991c-1.478,0-2.88-0.806-3.606-2.225c-3.136-6.133-5.491-12.851-7.005-19.963
				c-2.63-12.354-2.666-25.687-0.101-39.624c1.21-6.584,3.024-13.435,5.393-20.358c1.956-5.702,4.779-13.101,9.354-19.755
				c1.252-1.824,3.673-2.267,5.505-1.01c1.894,1.299,2.369,3.784,1.086,5.66c-4.344,6.317-7.075,13.803-9.17,20.295
				c-4.339,13.42-6.349,26.254-5.961,38.146c0.391,12.131,3.13,23.257,8.145,33.061l0.003,0.007c1,1.967,0.24,4.294-1.736,5.3
				C307.269,382.839,306.618,382.991,305.981,382.991z M303.918,380.12c0,0,0,0.001,0,0.003
				C303.918,380.122,303.918,380.122,303.918,380.12z"/>
		</g>
		<g id="XMLID_137_" clip-path="url(#SVGID_2_)">
			<path fill="#949494" d="M278.956,360.187c-5.438-10.643-8.107-22.5-8.492-34.414c-0.431-13.302,2.036-26.607,6.111-39.231
				c2.38-7.354,5.176-14.716,9.576-21.119c0.609-0.882-0.704-1.916-1.313-1.03c-3.991,5.804-6.691,12.343-8.96,18.978
				c-2.223,6.495-4.034,13.144-5.276,19.899c-2.332,12.653-2.609,25.759,0.078,38.38c1.417,6.647,3.636,13.118,6.731,19.172
				C277.899,361.775,279.446,361.146,278.956,360.187z"/>
			<path fill="#949494" d="M278.185,364.493c-0.072,0-0.144-0.001-0.213-0.005c-1.466-0.075-2.736-0.9-3.408-2.209
				c-3.138-6.14-5.497-12.855-7.01-19.961c-2.633-12.359-2.664-25.69-0.096-39.627c1.21-6.583,3.025-13.429,5.395-20.354
				c1.952-5.704,4.777-13.103,9.352-19.756c0.811-1.18,2.152-1.812,3.54-1.712c1.447,0.113,2.739,1.012,3.372,2.344
				c0.627,1.314,0.501,2.819-0.331,4.027c-4.336,6.309-7.065,13.795-9.159,20.287c-4.344,13.426-6.347,26.262-5.963,38.143
				c0.391,12.131,3.131,23.255,8.143,33.063c0.651,1.273,0.586,2.735-0.174,3.911C280.884,363.798,279.578,364.493,278.185,364.493z
				 M276.104,361.635c0.003,0.004,0.003,0.007,0.006,0.011l-0.003-0.003C276.106,361.641,276.106,361.637,276.104,361.635z
				 M283.516,263.613c0,0.001-0.003,0.003-0.003,0.005C283.512,263.616,283.516,263.613,283.516,263.613z"/>
		</g>
	</g>
	<g id="XMLID_10_">
		<g id="XMLID_15_">
			<path fill="#124460" d="M698.753,321.844C850.678,169.825,741.82,81.537,741.82,81.537s-111.961-91.674-228.104,93.242
				c-18.714-6.512-82.265-26.069-102.305,0.91c-23.596,31.771-63.222,149.061-56.994,161.619
				c4.706,9.495,64.469-13.051,93.376-24.63c-2.077,5.533-4.148,11.178-6.213,16.945l-3.862-3.052
				c-3.096-2.449-7.994-1.465-10.883,2.186L409.484,350.7c-2.889,3.652-2.718,8.646,0.381,11.095l126.736,100.22
				c3.094,2.45,7.992,1.465,10.881-2.187l17.355-21.944c2.889-3.651,2.718-8.645-0.381-11.097l-0.381-0.299
				c4.992-3.188,9.872-6.354,14.649-9.505c-4.621,31.045-12.59,93.477-2.345,95.853c13.66,3.166,118.658-62.434,144.132-92.719
				C741.545,395.115,710.296,340.233,698.753,321.844z"/>
		</g>
		<g id="XMLID_11_">
			<path fill="#CE5840" d="M636.366,64.188c0,0,32.118,107.075,142.776,114.823c0,0,20.682-95.587-10.185-124.573
				C736.406,23.869,636.366,64.188,636.366,64.188z"/>
		</g>
		<g id="XMLID_9_">
			<path fill="#808284" d="M542.146,471.362L400.698,359.506c-1.964-1.553-2.303-4.432-0.748-6.397l6.428-8.126
				c1.551-1.965,4.433-2.301,6.395-0.747l141.453,111.856c1.967,1.556,2.303,4.433,0.747,6.398l-6.424,8.126
				C546.992,472.581,544.113,472.917,542.146,471.362z"/>
		</g>
		<g id="XMLID_13_">
			<g id="XMLID_321_">
				<path fill="#848484" d="M684.1,285.548c-21.591,33.803-66.494,43.701-100.299,22.11c-33.8-21.591-43.703-66.495-22.11-100.297
					c21.588-33.803,66.493-43.704,100.296-22.112C695.79,206.84,705.689,251.745,684.1,285.548z"/>
			</g>
			<g id="XMLID_320_">
				<path fill="#CACCCC" d="M674.716,277.556c-21.591,33.804-66.495,43.701-100.299,22.111
					c-33.804-21.59-43.703-66.495-22.11-100.297c21.588-33.803,66.493-43.705,100.296-22.113
					C686.406,198.848,696.306,243.752,674.716,277.556z"/>
				<path fill="#CACCCC" d="M613.395,313.352c-13.799,0-27.743-3.799-40.208-11.758c-34.811-22.234-45.041-68.644-22.805-103.453
					c10.769-16.864,27.462-28.524,46.998-32.83c19.543-4.309,39.587-0.75,56.452,10.023c34.811,22.232,45.042,68.642,22.809,103.451
					C662.365,301.133,638.127,313.352,613.395,313.352z M613.649,168.098c-5.083,0-10.204,0.553-15.284,1.674
					c-18.348,4.044-34.022,14.992-44.134,30.827c-10.118,15.833-13.458,34.659-9.413,53.008
					c4.048,18.346,14.996,34.022,30.83,44.134c15.837,10.113,34.672,13.457,53.006,9.41c18.348-4.044,34.021-14.99,44.137-30.825
					c20.875-32.688,11.27-76.265-21.42-97.143C639.924,171.87,626.91,168.098,613.649,168.098z"/>
			</g>
		</g>
		<g id="XMLID_316_">
			<path fill="#808284" d="M500.637,463.586l-90.14-71.283c-1.967-1.554-2.301-4.434-0.75-6.399l11.729-14.832
				c1.556-1.963,4.436-2.303,6.399-0.747l90.142,71.281c1.964,1.555,2.303,4.434,0.747,6.397l-11.729,14.833
				C505.482,464.803,502.604,465.141,500.637,463.586z"/>
		</g>
	</g>
</g>
</svg>
