<?xml version="1.0" encoding="utf-8"?>
<!-- Generator: Adobe Illustrator 16.0.0, SVG Export Plug-In . SVG Version: 6.00 Build 0)  -->
<!DOCTYPE svg PUBLIC "-//W3C//DTD SVG 1.1//EN" "http://www.w3.org/Graphics/SVG/1.1/DTD/svg11.dtd">
<svg version="1.1" id="Layer_1" xmlns="http://www.w3.org/2000/svg" xmlns:xlink="http://www.w3.org/1999/xlink" x="0px" y="0px"
	 width="800px" height="800px" viewBox="0 0 800 800" enable-background="new 0 0 800 800" xml:space="preserve">
<g>
	<g id="XMLID_460_">
		<circle fill="#26485F" cx="387.381" cy="389.616" r="344.616"/>
	</g>
	<g id="XMLID_550_">
		<path fill="#CA9B81" d="M678.467,451.682l-107.043,42.283c-94.244,64.748-234.299,53.898-245.745,22.686l-19.279-52.588
			c-11.446-31.215,4.729-66.117,35.942-77.563l275.227-100.915c31.215-11.446,66.119,4.729,77.565,35.945l19.279,52.584
			C725.859,405.332,709.684,440.235,678.467,451.682z"/>
	</g>
	<g id="XMLID_18_">
		<g id="XMLID_2_">
			<g id="XMLID_16_">
				<path fill="#F9BF97" d="M714.413,361.925l-19.282-52.588c-11.443-31.213-46.348-47.388-77.563-35.942l-129.191,47.37
					l-44.018-42.377c-7.815-7.525-20.367-7.286-27.892,0.53l-19.255,20.003c-7.524,7.815-7.286,20.366,0.53,27.891l20.449,19.686
					l-75.85,27.812c-31.213,11.446-47.388,46.347-35.942,77.563l19.279,52.588c11.446,31.213,157.526,42.435,263.44-32.209
					l89.348-32.764C709.684,428.045,725.859,393.141,714.413,361.925z"/>
			</g>
			<g id="XMLID_505_">
				<path fill="#C49273" d="M478.787,390.207H301.043c-9.756,0-17.738-7.982-17.738-17.738v-25.781
					c0-9.756,7.982-17.738,17.738-17.738h177.744c9.757,0,17.738,7.982,17.738,17.738v25.781
					C496.525,382.225,488.544,390.207,478.787,390.207z"/>
			</g>
			<g id="XMLID_540_">
				<path fill="#C49273" d="M468.913,439.242H312.564c-9.753,0-17.735-7.982-17.735-17.738v-18.492
					c0-9.753,7.982-17.735,17.735-17.735h156.349c9.757,0,17.738,7.982,17.738,17.735v18.492
					C486.651,431.26,478.67,439.242,468.913,439.242z"/>
			</g>
			<g id="XMLID_541_">
				<path fill="#C49273" d="M463.178,496.744H314.557c-9.756,0-17.738-7.981-17.738-17.738v-26.311
					c0-9.756,7.982-17.738,17.738-17.738h148.621c9.757,0,17.738,7.982,17.738,17.738v26.311
					C480.916,488.763,472.935,496.744,463.178,496.744z"/>
			</g>
			<g id="XMLID_3_">
				<path fill="#FFB380" d="M472.596,328.362H369.282c4.53-7.913,3.918-18.181-2.28-25.526l-8.96-10.616
					c-7.918-9.381-22.071-10.58-31.452-2.662l-51.437,43.407c-1.52,1.284-2.822,2.731-3.909,4.296l-109.69,2.362
					c-31.937,0.687-57.502,27.379-56.815,59.316l1.308,60.735c0.688,31.934,27.379,57.503,59.316,56.815l194.223-4.182
					c15.062-0.324,28.703-6.438,38.847-16.151h58.553c9.756,0,17.738-7.982,17.738-17.738v-26.313c0-5.766-2.789-10.91-7.086-14.156
					c7.385-2.145,12.82-8.984,12.82-17.033v-18.492c0-5.096-2.18-9.707-5.653-12.95c8.724-1.096,15.528-8.587,15.528-17.593V346.1
					C490.334,336.344,482.352,328.362,472.596,328.362z"/>
			</g>
			<g id="XMLID_547_">
				<path fill="#CA9B81" d="M283.613,535.794l2.192-65.239c0.327-9.75,8.572-17.459,18.323-17.133l18.48,0.621
					c9.75,0.327,17.459,8.572,17.133,18.322l-2.192,65.242c-0.327,9.75-8.572,17.46-18.323,17.13l-18.483-0.621
					C290.993,553.789,283.283,545.544,283.613,535.794z"/>
			</g>
			<g id="XMLID_548_">
				<path fill="#CA9B81" d="M335.726,542.567l2.407-71.64c0.327-9.751,8.572-17.46,18.323-17.13l18.483,0.621
					c9.75,0.327,17.46,8.572,17.13,18.322l-2.407,71.637c-0.327,9.75-8.572,17.46-18.323,17.133l-18.48-0.621
					C343.108,560.563,335.398,552.317,335.726,542.567z"/>
			</g>
			<g id="XMLID_549_">
				<path fill="#CA9B81" d="M387.366,531.715l2.414-71.81c0.327-9.747,8.572-17.456,18.322-17.13l20.99,0.706
					c9.75,0.327,17.459,8.572,17.133,18.322l-2.414,71.807c-0.326,9.75-8.572,17.46-18.322,17.133l-20.99-0.706
					C394.748,549.71,387.039,541.465,387.366,531.715z"/>
			</g>
			<g id="XMLID_17_">
				<path fill="#FFC59C" d="M431.345,452.045l-23.834-0.8c-9.75-0.327-17.995,7.383-18.322,17.133l-0.112,3.346
					c-2.977-5.099-8.424-8.624-14.728-8.836l-18.483-0.62c-8.164-0.276-15.268,5.087-17.557,12.563
					c-2.238-6.919-8.633-12.061-16.291-12.317l-18.48-0.621c-9.75-0.327-17.996,7.383-18.323,17.133l-2.192,65.238
					c-0.327,9.751,7.382,17.996,17.133,18.323l18.48,0.623c7.209,0.242,13.593-3.912,16.563-10.034
					c0.769,8.787,8.042,15.882,17.069,16.185l18.483,0.621c9.747,0.326,17.995-7.383,18.322-17.133l0.106-3.177
					c2.977,5.1,8.424,8.624,14.729,8.836l23.833,0.803c9.75,0.327,17.995-7.383,18.322-17.133l2.413-71.807
					C448.805,460.62,441.095,452.375,431.345,452.045z"/>
			</g>
			<g id="XMLID_492_">
				
					<rect x="49.978" y="335.402" transform="matrix(0.1153 -0.9933 0.9933 0.1153 -279.5273 518.0471)" fill="#61869E" width="202.198" height="161.106"/>
			</g>
			<g id="XMLID_491_">
				
					<rect x="2.138" y="312.878" transform="matrix(0.1153 -0.9933 0.9933 0.1153 -306.6186 475.012)" fill="#302E2A" width="222.46" height="193.535"/>
			</g>
			<g id="XMLID_518_">
				
					<rect x="509.148" y="288.958" transform="matrix(-0.3504 -0.9366 0.9366 -0.3504 481.5141 1082.2025)" fill="#CBE9FF" width="213.778" height="170.333"/>
			</g>
			<g id="XMLID_456_">
				
					<rect x="540.454" y="248.68" transform="matrix(-0.3504 -0.9366 0.9366 -0.3504 555.0125 1097.3982)" fill="#302E2A" width="235.197" height="215.113"/>
			</g>
		</g>
		<g id="XMLID_99_">
			<path fill="#FFFDFA" d="M551.381,225.394c-5.068-0.251-9.704-3.031-13.302-6.789c-4.055-4.233-6.759-9.717-8.812-15.34
				c-1.229-3.367-2.262-6.816-3.288-10.262c-0.454-1.517-2.332-1.472-2.804,0c-1.575,4.924-3.51,9.696-5.799,14.28
				c-1.898,3.803-4.019,7.615-7.122,10.414c-0.134,0.118-0.264,0.23-0.399,0.342c-3.4,2.292-7.413,3.425-11.465,3.201
				c-1.607-0.088-2.01,2.777-0.385,3.095c11.071,2.153,20.349,11.54,23.719,23.085c0.957,3.273,1.418,6.653,1.342,10.083
				c-0.039,1.868,2.311,2.011,2.855,0.418c3.576-10.504,7.719-22.21,17.611-27.446c2.446-1.293,5.126-1.98,7.848-1.932
				C553.259,228.577,553.244,225.485,551.381,225.394z"/>
		</g>
		<g id="XMLID_569_">
			<path fill="#FFFDFA" d="M283.783,595.191c-5.069-0.252-9.705-3.028-13.302-6.789c-4.054-4.233-6.758-9.714-8.812-15.337
				c-1.229-3.37-2.262-6.816-3.292-10.262c-0.451-1.518-2.332-1.472-2.801,0c-1.575,4.924-3.51,9.695-5.799,14.28
				c-1.898,3.803-4.018,7.612-7.125,10.413c-0.13,0.118-0.263,0.23-0.396,0.342c-3.4,2.29-7.413,3.425-11.464,3.201
				c-1.611-0.088-2.011,2.776-0.385,3.092c11.067,2.152,20.348,11.542,23.719,23.088c0.957,3.271,1.417,6.649,1.341,10.081
				c-0.042,1.871,2.31,2.014,2.852,0.421c3.579-10.505,7.722-22.211,17.614-27.446c2.446-1.293,5.126-1.983,7.849-1.932
				C285.661,598.377,285.646,595.285,283.783,595.191z"/>
		</g>
	</g>
</g>
</svg>
