<?xml version="1.0" encoding="UTF-8"?>
<svg viewBox="0 0 1052.3622 744.09448" xmlns="http://www.w3.org/2000/svg">
 <defs>
  <filter id="b">
   <feGaussianBlur stdDeviation="3.514"/>
  </filter>
  <linearGradient id="a" x2="0" y1="1052.4" y2="308.27" gradientUnits="userSpaceOnUse">
   <stop offset="0"/>
   <stop stop-color="#ff4c55" offset=".279"/>
   <stop stop-color="#05284d" offset=".8774"/>
   <stop stop-color="#00274d" offset="1"/>
  </linearGradient>
 </defs>
 <g transform="translate(0 -308.27)">
  <path d="m0 308.27h1052.4v744.09h-1052.4z" fill="url(#a)"/>
  <path transform="matrix(1.0136 0 0 1.0136 -10.239 .41437)" d="m958.76 336.84c-1.4743 0-2.6562 1.182-2.6562 2.6562s1.182 2.6875 2.6562 2.6875 2.6562-1.2132 2.6562-2.6875-1.182-2.6562-2.6562-2.6562zm-169.09 2.875c-0.79964 0-1.4375 0.63786-1.4375 1.4375s0.63786 1.4688 1.4375 1.4688 1.4375-0.66911 1.4375-1.4688-0.63786-1.4375-1.4375-1.4375zm-545.28 3.0312c-0.92936 0-1.6875 0.75814-1.6875 1.6875s0.75814 1.6562 1.6875 1.6562 1.6562-0.72689 1.6562-1.6562-0.72689-1.6875-1.6562-1.6875zm80.469 0.25c-1.6072 0-2.9062 1.299-2.9062 2.9062s1.299 2.9062 2.9062 2.9062 2.9062-1.299 2.9062-2.9062-1.299-2.9062-2.9062-2.9062zm481.28 28.625c-1.1119 0-2.0312 0.91934-2.0312 2.0312s0.91934 2 2.0312 2 2-0.88809 2-2-0.88809-2.0312-2-2.0312zm-12.594 0.1875c-0.95146 0-1.7188 0.76729-1.7188 1.7188s0.76729 1.7188 1.7188 1.7188 1.7188-0.76729 1.7188-1.7188-0.76729-1.7188-1.7188-1.7188zm-114.59 9.3438c-1.6276 0-2.9375 1.3099-2.9375 2.9375s1.3099 2.9688 2.9375 2.9688 2.9688-1.3411 2.9688-2.9688-1.3411-2.9375-2.9688-2.9375zm-596.84 0.8125c-0.86759 0-1.5938 0.69491-1.5938 1.5625s0.72616 1.5625 1.5938 1.5625 1.5625-0.69491 1.5625-1.5625-0.69491-1.5625-1.5625-1.5625zm373.81 4.9062c-1.3491 0-2.4375 1.0884-2.4375 2.4375s1.0884 2.4375 2.4375 2.4375 2.4375-1.0884 2.4375-2.4375-1.0884-2.4375-2.4375-2.4375zm483.41 0.5c-1.1925 0-2.1875 0.96378-2.1875 2.1562s0.99503 2.1562 2.1875 2.1562 2.1562-0.96378 2.1562-2.1562-0.96378-2.1562-2.1562-2.1562zm-607.16 0.5c-1.8445 0-3.3438 1.4993-3.3438 3.3438s1.4993 3.3438 3.3438 3.3438 3.3438-1.4993 3.3438-3.3438-1.4993-3.3438-3.3438-3.3438zm473.44 2.4375c-0.71426 0-1.2812 0.59824-1.2812 1.3125s0.56699 1.2812 1.2812 1.2812 1.2812-0.56699 1.2812-1.2812-0.56699-1.3125-1.2812-1.3125zm-601.22 0.0312c-0.82867 0-1.5 0.67133-1.5 1.5s0.67133 1.5 1.5 1.5 1.5-0.67133 1.5-1.5-0.67133-1.5-1.5-1.5zm279.25 9.3125c-1.0898 0-1.9688 0.91019-1.9688 2s0.87894 1.9688 1.9688 1.9688 1.9688-0.87895 1.9688-1.9688-0.87894-2-1.9688-2zm-17.469 3.4375c-1.7814 0-3.25 1.4686-3.25 3.25s1.4686 3.2188 3.25 3.2188 3.2188-1.4373 3.2188-3.2188-1.4373-3.25-3.2188-3.25zm455.84 1.5938c-1.3853 0-2.5312 1.1459-2.5312 2.5312s1.1459 2.5 2.5312 2.5 2.5-1.1147 2.5-2.5-1.1147-2.5312-2.5-2.5312zm-426.88 1.0938c-1.6685 0-3.0312 1.3628-3.0312 3.0312s1.3628 3 3.0312 3 3.0312-1.3315 3.0312-3-1.3628-3.0312-3.0312-3.0312zm-235.91 8.2188c-0.89894 0-1.625 0.72606-1.625 1.625s0.72606 1.625 1.625 1.625 1.625-0.72606 1.625-1.625-0.72606-1.625-1.625-1.625zm640.38 1.1875c-1.6914 0-3.0625 1.3711-3.0625 3.0625s1.3711 3.0625 3.0625 3.0625 3.0625-1.3711 3.0625-3.0625-1.3711-3.0625-3.0625-3.0625zm-91.812 1.8125c-1.8418 0-3.3438 1.502-3.3438 3.3438s1.502 3.3125 3.3438 3.3125 3.3438-1.4707 3.3438-3.3125-1.502-3.3438-3.3438-3.3438zm-172.19 2.1562c-1.1066 0-2 0.89341-2 2s0.89341 2 2 2 2-0.89341 2-2-0.89341-2-2-2zm86.531 0.71875c-0.8913 0-1.625 0.7337-1.625 1.625s0.7337 1.5938 1.625 1.5938 1.625-0.70245 1.625-1.5938-0.7337-1.625-1.625-1.625zm-398.25 0.0625c-1.2328 0-2.2188 1.0172-2.2188 2.25s0.98597 2.2188 2.2188 2.2188 2.25-0.98597 2.25-2.2188-1.0172-2.25-2.25-2.25zm46.938 2.5c-1.8045 0-3.25 1.4767-3.25 3.2812s1.4455 3.2812 3.25 3.2812 3.2812-1.4767 3.2812-3.2812-1.4767-3.2812-3.2812-3.2812zm-278.81 2.4375c-1.2468 0-2.25 1.0032-2.25 2.25s1.0032 2.2812 2.25 2.2812 2.25-1.0344 2.25-2.2812-1.0032-2.25-2.25-2.25zm648.03 2.125c-1.7784 0-3.2188 1.4404-3.2188 3.2188s1.4404 3.2188 3.2188 3.2188 3.2188-1.4404 3.2188-3.2188-1.4404-3.2188-3.2188-3.2188zm44.344 8.7188c-1.245 0-2.25 1.005-2.25 2.25s1.005 2.25 2.25 2.25 2.25-1.005 2.25-2.25-1.005-2.25-2.25-2.25zm-543.66 0.0312c-0.89401 0-1.625 0.73099-1.625 1.625s0.73099 1.5938 1.625 1.5938 1.625-0.69974 1.625-1.5938-0.73099-1.625-1.625-1.625zm705 1.2188c-1.2326 0-2.25 1.0174-2.25 2.25s1.0174 2.2188 2.25 2.2188 2.2188-0.9862 2.2188-2.2188-0.9862-2.25-2.2188-2.25zm-308.12 2c-0.93067 0-1.6875 0.75683-1.6875 1.6875s0.75683 1.6875 1.6875 1.6875 1.6875-0.75683 1.6875-1.6875-0.75683-1.6875-1.6875-1.6875zm-499 1.25c-0.94931 0-1.7188 0.76944-1.7188 1.7188s0.76944 1.7188 1.7188 1.7188 1.7188-0.76944 1.7188-1.7188-0.76944-1.7188-1.7188-1.7188zm893.53 0.46875c-1.1069 0-2 0.92462-2 2.0312s0.8931 2 2 2c1.1014 0 2-0.89337 2-2s-0.8986-2.0312-2-2.0312zm-475.81 1.0625c-1.7434 0-3.1562 1.4129-3.1562 3.1562s1.4129 3.1562 3.1562 3.1562 3.1562-1.4129 3.1562-3.1562-1.4129-3.1562-3.1562-3.1562zm90.719 8.125c-0.66288 0-1.1875 0.52462-1.1875 1.1875s0.52462 1.2188 1.1875 1.2188 1.1875-0.55587 1.1875-1.2188-0.52462-1.1875-1.1875-1.1875zm-627.22 1c-0.7009 0-1.25 0.58036-1.25 1.2812s0.5491 1.25 1.25 1.25 1.2812-0.54911 1.2812-1.25-0.58035-1.2812-1.2812-1.2812zm783.22 3.1562c-1.325 0-2.4062 1.05-2.4062 2.375s1.0813 2.4062 2.4062 2.4062 2.375-1.0813 2.375-2.4062-1.05-2.375-2.375-2.375zm-329.28 0.75c-1.2373 0-2.25 1.0127-2.25 2.25s1.0127 2.25 2.25 2.25 2.2188-1.0127 2.2188-2.25-0.98143-2.25-2.2188-2.25zm382.03 1.6875c-1.6523 0-3 1.3165-3 2.9688s1.3477 3 3 3 2.9688-1.3477 2.9688-3-1.3165-2.9688-2.9688-2.9688zm-238.72 11.344c-1.6058 0-2.9062 1.3005-2.9062 2.9062s1.3005 2.9062 2.9062 2.9062 2.9062-1.3005 2.9062-2.9062-1.3005-2.9062-2.9062-2.9062zm-559.69 0.0312c-1.4662 0-2.6562 1.1588-2.6562 2.625s1.1901 2.6562 2.6562 2.6562 2.6562-1.1901 2.6562-2.6562-1.1901-2.625-2.6562-2.625zm80.031 0.3125c-1.7882 0-3.25 1.4618-3.25 3.25s1.4618 3.25 3.25 3.25 3.2188-1.4618 3.2188-3.25-1.4305-3.25-3.2188-3.25zm801.47 2.9688c-1.8374 0-3.3125 1.475-3.3125 3.3125s1.475 3.3438 3.3125 3.3438 3.3438-1.5063 3.3438-3.3438-1.5063-3.3125-3.3438-3.3125zm7 0.5625c-1.5966 0-2.875 1.3097-2.875 2.9062s1.2784 2.875 2.875 2.875 2.9062-1.2784 2.9062-2.875-1.3097-2.9062-2.9062-2.9062zm-805.34 4.9688c-1.0687 0-1.9375 0.86876-1.9375 1.9375s0.86876 1.9375 1.9375 1.9375 1.9062-0.86876 1.9062-1.9375-0.83751-1.9375-1.9062-1.9375zm486.5 5.6562c-1.2519 0-2.2812 1.0294-2.2812 2.2812s1.0294 2.25 2.2812 2.25 2.25-0.99814 2.25-2.25-0.99814-2.2812-2.25-2.2812zm-302.28 1.125c-1.6746 0-3.0312 1.3566-3.0312 3.0312s1.3566 3.0625 3.0312 3.0625 3.0312-1.3879 3.0312-3.0625-1.3566-3.0312-3.0312-3.0312zm111 0.71875c-1.8134 0-3.2812 1.4679-3.2812 3.2812s1.4679 3.2812 3.2812 3.2812 3.2812-1.4679 3.2812-3.2812-1.4679-3.2812-3.2812-3.2812zm-321.91 1.2812c-0.82972 0-1.5 0.67028-1.5 1.5s0.67028 1.5 1.5 1.5 1.5-0.67028 1.5-1.5-0.67028-1.5-1.5-1.5zm-51.969 8.125c-1.4617 0-2.6562 1.1945-2.6562 2.6562s1.1945 2.6562 2.6562 2.6562 2.6562-1.1945 2.6562-2.6562-1.1945-2.6562-2.6562-2.6562zm879.19 1.1875c-1.429 0-2.5938 1.1648-2.5938 2.5938s1.1648 2.5938 2.5938 2.5938 2.5625-1.1648 2.5625-2.5938-1.1335-2.5938-2.5625-2.5938zm-764.91 3.4688c-1.1206 0-2.0312 0.91068-2.0312 2.0312s0.91068 2.0312 2.0312 2.0312 2.0312-0.91068 2.0312-2.0312-0.91068-2.0312-2.0312-2.0312zm-65.844 0.375c-1.2403 0-2.25 0.97843-2.25 2.2188s1.0097 2.25 2.25 2.25 2.25-1.0097 2.25-2.25-1.0097-2.2188-2.25-2.2188zm114.28 5.25c-1.0488 0-1.9062 0.8575-1.9062 1.9062s0.8575 1.9062 1.9062 1.9062 1.9062-0.8575 1.9062-1.9062-0.8575-1.9062-1.9062-1.9062zm39.219 0.71875c-0.92613 0-1.6875 0.73012-1.6875 1.6562s0.76137 1.6875 1.6875 1.6875 1.6562-0.76137 1.6562-1.6875-0.73012-1.6562-1.6562-1.6562zm-54.625 3.8125c-1.8548 0-3.3438 1.4889-3.3438 3.3438s1.4889 3.375 3.3438 3.375 3.375-1.5202 3.375-3.375-1.5202-3.3438-3.375-3.3438zm355 4.5938c-0.7057 0-1.2812 0.57555-1.2812 1.2812s0.57555 1.2812 1.2812 1.2812 1.2812-0.57555 1.2812-1.2812-0.57555-1.2812-1.2812-1.2812zm-513.75 0.75c-1.0679 0-1.9375 0.83833-1.9375 1.9062s0.86958 1.9375 1.9375 1.9375 1.9062-0.86958 1.9062-1.9375-0.83833-1.9062-1.9062-1.9062zm123.28 2.875c-1.752 0-3.1875 1.4043-3.1875 3.1562s1.4355 3.1875 3.1875 3.1875 3.1562-1.4355 3.1562-3.1875-1.4043-3.1562-3.1562-3.1562zm500.25 0.125c-1.8456 0-3.3438 1.4981-3.3438 3.3438s1.4981 3.3438 3.3438 3.3438 3.3438-1.4981 3.3438-3.3438-1.4981-3.3438-3.3438-3.3438zm-464.56 4.6562c-1.2454 0-2.25 1.0046-2.25 2.25s1.0046 2.25 2.25 2.25 2.25-1.0046 2.25-2.25-1.0046-2.25-2.25-2.25zm81.781 9.2812c-0.69288 0-1.25 0.55712-1.25 1.25s0.55712 1.25 1.25 1.25 1.25-0.55712 1.25-1.25-0.55712-1.25-1.25-1.25zm299.28 0.5c-1.5512 0-2.8125 1.2613-2.8125 2.8125s1.2613 2.8125 2.8125 2.8125 2.8125-1.2613 2.8125-2.8125-1.2613-2.8125-2.8125-2.8125zm247.78 2.7812c-0.64603 0.1322-1.125 0.72114-1.125 1.4062 0 0.78299 0.65451 1.4062 1.4375 1.4062s1.4062-0.62326 1.4062-1.4062-0.62326-1.4062-1.4062-1.4062c-0.0979 0-0.22021-0.0189-0.3125 0zm-373.56 0.46875c-1.561 0-2.8438 1.2828-2.8438 2.8438s1.2828 2.8125 2.8438 2.8125 2.8125-1.2515 2.8125-2.8125-1.2515-2.8438-2.8125-2.8438zm-150.78 1.25c-1.8339 0-3.3438 1.4786-3.3438 3.3125s1.5098 3.3125 3.3438 3.3125 3.3125-1.4786 3.3125-3.3125-1.4786-3.3125-3.3125-3.3125zm399.56 1.1875c-1.0607 0-1.9375 0.84555-1.9375 1.9062s0.8768 1.9062 1.9375 1.9062 1.9062-0.84555 1.9062-1.9062-0.84555-1.9062-1.9062-1.9062zm-222.31 16.688c-1.4494 0-2.625 1.1756-2.625 2.625s1.1756 2.625 2.625 2.625 2.625-1.1756 2.625-2.625-1.1756-2.625-2.625-2.625zm351.94 2.9375c-1.6372 0-2.9688 1.3316-2.9688 2.9688s1.3316 2.9375 2.9688 2.9375 2.9688-1.3004 2.9688-2.9375-1.3316-2.9688-2.9688-2.9688zm-666.53 1.0312c-1.2179 0-2.2188 1.0008-2.2188 2.2188s1.0008 2.1875 2.2188 2.1875 2.1875-0.96959 2.1875-2.1875-0.96959-2.2188-2.1875-2.2188zm365.03 4.3438c-1.2649 0-2.3125 1.0476-2.3125 2.3125s1.0476 2.2812 2.3125 2.2812 2.2812-1.0163 2.2812-2.2812-1.0163-2.3125-2.2812-2.3125zm-469.09 1.3438c-1.289 0-2.3438 1.0548-2.3438 2.3438s1.0548 2.3438 2.3438 2.3438 2.3125-1.0548 2.3125-2.3438-1.0235-2.3438-2.3125-2.3438zm774.66 4.8125c-1.3039 0-2.3438 1.0398-2.3438 2.3438s1.0398 2.375 2.3438 2.375 2.375-1.0711 2.375-2.375-1.0711-2.3438-2.375-2.3438zm-173.44 3.7812c-1.0797 0-1.9688 0.85778-1.9688 1.9375s0.88903 1.9688 1.9688 1.9688 1.9375-0.88903 1.9375-1.9688-0.85778-1.9375-1.9375-1.9375zm367.19 0.375c-1.1889 0-2.1561 0.96734-2.1561 2.1562s0.9673 2.1562 2.1561 2.1562 2.1251-0.96734 2.1251-2.1562-0.9361-2.1562-2.1251-2.1562zm-155.87 0.625c-0.6533 0-1.1875 0.5342-1.1875 1.1875s0.5342 1.1875 1.1875 1.1875 1.1875-0.5342 1.1875-1.1875-0.5342-1.1875-1.1875-1.1875zm-704.53 3.125c-1.2367 0-2.25 1.0133-2.25 2.25s1.0133 2.2188 2.25 2.2188 2.2188-0.98205 2.2188-2.2188-0.98205-2.25-2.2188-2.25zm228.47 6.7188c-1.0979 0-2 0.90211-2 2s0.90211 1.9688 2 1.9688 1.9688-0.87086 1.9688-1.9688-0.87086-2-1.9688-2zm198.66 5.4688c-0.6083 0.12448-1.0625 0.6674-1.0625 1.3125 0 0.73725 0.57525 1.3438 1.3125 1.3438s1.3438-0.6065 1.3438-1.3438-0.6065-1.3125-1.3438-1.3125c-0.0922 0-0.1631-0.0178-0.25 0zm-288.88 1.1562c-0.76232 0-1.375 0.61268-1.375 1.375s0.61268 1.375 1.375 1.375 1.375-0.61268 1.375-1.375-0.61268-1.375-1.375-1.375zm226.97 0c-0.94116 0-1.7188 0.77759-1.7188 1.7188s0.77759 1.6875 1.7188 1.6875 1.6875-0.74634 1.6875-1.6875-0.74634-1.7188-1.6875-1.7188zm211.34 0.25c-1.6589 0-3 1.3411-3 3s1.3411 3 3 3 3-1.3411 3-3-1.3411-3-3-3zm-711.06 0.71875c-1.3405 0-2.4062 1.097-2.4062 2.4375s1.0657 2.4062 2.4062 2.4062 2.4375-1.0657 2.4375-2.4062-1.097-2.4375-2.4375-2.4375zm339.94 6.0625c-0.84347 0-1.5312 0.68778-1.5312 1.5312s0.68778 1.5312 1.5312 1.5312 1.5312-0.68778 1.5312-1.5312-0.68778-1.5312-1.5312-1.5312zm336.09 0.3125c-1.7931 0-3.25 1.4569-3.25 3.25s1.4569 3.25 3.25 3.25 3.25-1.4569 3.25-3.25-1.4569-3.25-3.25-3.25zm-109.09 1.0625c-1.4204 0-2.5938 1.1734-2.5938 2.5938s1.1734 2.5625 2.5938 2.5625 2.5625-1.1421 2.5625-2.5625-1.1421-2.5938-2.5625-2.5938zm260 3.4375c-1.6792 0-3.0312 1.3833-3.0312 3.0625s1.352 3.0312 3.0312 3.0312 3.0312-1.352 3.0312-3.0312-1.352-3.0625-3.0312-3.0625zm-127.78 0.5625c-1.5683 0-2.8438 1.2755-2.8438 2.8438s1.2755 2.8438 2.8438 2.8438 2.8438-1.2755 2.8438-2.8438-1.2755-2.8438-2.8438-2.8438zm-588 2.0625c-1.5543 0-2.8125 1.2582-2.8125 2.8125s1.2582 2.8125 2.8125 2.8125 2.8125-1.2582 2.8125-2.8125-1.2582-2.8125-2.8125-2.8125zm158.78 4.0312c-0.7953 0-1.4375 0.6422-1.4375 1.4375s0.6422 1.4375 1.4375 1.4375 1.4375-0.6422 1.4375-1.4375-0.6422-1.4375-1.4375-1.4375zm23.969 9.3125c-0.9235 0-1.6562 0.73275-1.6562 1.6562s0.73275 1.6875 1.6562 1.6875 1.6875-0.764 1.6875-1.6875-0.764-1.6562-1.6875-1.6562zm-314.69 14.094c-1.0514 0-1.9062 0.85485-1.9062 1.9062s0.85485 1.9062 1.9062 1.9062 1.9062-0.85485 1.9062-1.9062-0.85485-1.9062-1.9062-1.9062zm83.875 4.5312c-1.8025 0-3.2812 1.4788-3.2812 3.2812s1.4788 3.25 3.2812 3.25 3.25-1.4475 3.25-3.25-1.4475-3.2812-3.25-3.2812zm645.5 1.0625c-1.3536 0-2.4375 1.0839-2.4375 2.4375s1.0839 2.4375 2.4375 2.4375 2.4688-1.0839 2.4688-2.4375-1.1151-2.4375-2.4688-2.4375zm-425.16 2.8125c-1.7651 0-3.1875 1.4224-3.1875 3.1875s1.4224 3.2188 3.1875 3.2188 3.1875-1.4537 3.1875-3.2188-1.4224-3.1875-3.1875-3.1875zm296.16 0.15625c-0.6432 0-1.1562 0.51305-1.1562 1.1562s0.51305 1.1875 1.1562 1.1875 1.1562-0.5443 1.1562-1.1875-0.51305-1.1562-1.1562-1.1562zm-45.125 0.4375c-1.6719 0-3.0312 1.3593-3.0312 3.0312s1.3593 3.0312 3.0312 3.0312 3.0312-1.3593 3.0312-3.0312-1.3593-3.0312-3.0312-3.0312zm-73.219 1.9062c-0.70034 0-1.25 0.58091-1.25 1.2812 0 0.51592 0.28167 0.96338 0.71875 1.1562-0.0594-7e-3 -0.12637-0.0312-0.1875-0.0312-0.8905 0-1.5938 0.7345-1.5938 1.625s0.70325 1.625 1.5938 1.625 1.625-0.7345 1.625-1.625c0-0.66787-0.42129-1.2552-1-1.5h0.0937c0.70034 0 1.2812-0.54966 1.2812-1.25s-0.58091-1.2812-1.2812-1.2812zm112.44 16.094c-1.8364 0-3.3438 1.5073-3.3438 3.3438s1.5073 3.3125 3.3438 3.3125 3.3125-1.4761 3.3125-3.3125-1.4761-3.3438-3.3125-3.3438zm272.16 1.5938c-1.4427 0-2.625 1.1823-2.625 2.625s1.1823 2.5938 2.625 2.5938 2.5938-1.1511 2.5938-2.5938-1.1511-2.625-2.5938-2.625zm120.66 4.6875c-1.8254 0-3.3126 1.4871-3.3126 3.3125s1.4872 3.3125 3.3126 3.3125 3.2812-1.4871 3.2812-3.3125-1.4561-3.3125-3.2812-3.3125zm-809.97 4.6875c-0.77498 0-1.4062 0.63127-1.4062 1.4062s0.63127 1.4062 1.4062 1.4062 1.4062-0.63127 1.4062-1.4062-0.63127-1.4062-1.4062-1.4062zm558.31 2.9062c-1.3995 0-2.5312 1.1317-2.5312 2.5312s1.1317 2.5312 2.5312 2.5312 2.5625-1.1317 2.5625-2.5312-1.163-2.5312-2.5625-2.5312zm185.91 9.2812c-0.82138 0-1.5 0.64737-1.5 1.4688s0.67862 1.5 1.5 1.5 1.4688-0.67862 1.4688-1.5-0.64737-1.4688-1.4688-1.4688zm-774.47 7.9062c-0.84911 0-1.5312 0.68214-1.5312 1.5312s0.68214 1.5312 1.5312 1.5312 1.5625-0.68214 1.5625-1.5312-0.71339-1.5312-1.5625-1.5312zm721.62 2.4062c-1.2564 0-2.2812 1.0248-2.2812 2.2812s1.0248 2.2812 2.2812 2.2812 2.2812-1.0248 2.2812-2.2812-1.0248-2.2812-2.2812-2.2812zm-859.28 21.656c-1.2943 0-2.3438 1.0495-2.3438 2.3438s1.0495 2.3438 2.3438 2.3438 2.3438-1.0495 2.3438-2.3438-1.0495-2.3438-2.3438-2.3438z" fill="#fff" filter="url(#b)"/>
  <path d="m961.54 341.83c-1.4943 0-2.6923 1.198-2.6923 2.6923s1.198 2.724 2.6923 2.724 2.6923-1.2297 2.6923-2.724-1.198-2.6923-2.6923-2.6923zm-171.39 2.914c-0.81051 0-1.457 0.64652-1.457 1.457s0.64649 1.4887 1.457 1.4887 1.457-0.6782 1.457-1.4887-0.64649-1.457-1.457-1.457zm-552.69 3.0724c-0.94198 0-1.7104 0.76843-1.7104 1.7104s0.76844 1.6788 1.7104 1.6788 1.6787-0.73676 1.6787-1.6788-0.73675-1.7104-1.6787-1.7104zm81.562 0.25339c-1.629 0-2.9457 1.3167-2.9457 2.9457s1.3167 2.9457 2.9457 2.9457 2.9457-1.3167 2.9457-2.9457-1.3167-2.9457-2.9457-2.9457zm487.82 29.014c-1.127 0-2.0589 0.93182-2.0589 2.0588s0.93183 2.0272 2.0589 2.0272 2.0271-0.90015 2.0271-2.0272-0.90017-2.0588-2.0271-2.0588zm-12.765 0.19005c-0.96438 0-1.742 0.7777-1.742 1.7421s0.77766 1.7421 1.742 1.7421 1.7421-0.77771 1.7421-1.7421-0.77773-1.7421-1.7421-1.7421zm-116.15 9.4706c-1.6497 0-2.9774 1.3276-2.9774 2.9774s1.3276 3.0091 2.9774 3.0091 3.0091-1.3593 3.0091-3.0091-1.3593-2.9774-3.0091-2.9774zm-604.95 0.82354c-0.87937 0-1.6154 0.70434-1.6154 1.5837s0.73602 1.5837 1.6154 1.5837 1.5837-0.70435 1.5837-1.5837-0.70434-1.5837-1.5837-1.5837zm378.89 4.9729c-1.3674 0-2.4706 1.1032-2.4706 2.4706s1.1032 2.4706 2.4706 2.4706 2.4706-1.1032 2.4706-2.4706-1.1032-2.4706-2.4706-2.4706zm489.97 0.50679c-1.2087 0-2.2172 0.97687-2.2172 2.1855s1.0086 2.1855 2.2172 2.1855 2.1855-0.97687 2.1855-2.1855-0.97689-2.1855-2.1855-2.1855zm-615.4 0.50679c-1.8695 0-3.3892 1.5196-3.3892 3.3892s1.5197 3.3892 3.3892 3.3892 3.3892-1.5196 3.3892-3.3892-1.5196-3.3892-3.3892-3.3892zm479.87 2.4706c-0.72395 0-1.2986 0.60637-1.2986 1.3303s0.5747 1.2987 1.2986 1.2987 1.2986-0.5747 1.2986-1.2987-0.57469-1.3303-1.2986-1.3303zm-609.38 0.0316c-0.83992 0-1.5204 0.68045-1.5204 1.5204s0.68045 1.5204 1.5204 1.5204 1.5204-0.68044 1.5204-1.5204-0.68045-1.5204-1.5204-1.5204zm283.04 9.439c-1.1046 0-1.9955 0.92256-1.9955 2.0272s0.89088 1.9955 1.9955 1.9955 1.9955-0.89088 1.9955-1.9955-0.89088-2.0272-1.9955-2.0272zm-17.706 3.4842c-1.8056 0-3.2942 1.4885-3.2942 3.2941s1.4885 3.2625 3.2942 3.2625 3.2625-1.4569 3.2625-3.2625-1.4569-3.2941-3.2625-3.2941zm462.03 1.6154c-1.4042 0-2.5656 1.1615-2.5656 2.5656s1.1614 2.534 2.5656 2.534 2.5339-1.1298 2.5339-2.534-1.1298-2.5656-2.5339-2.5656zm-432.67 1.1086c-1.6912 0-3.0724 1.3813-3.0724 3.0724s1.3813 3.0407 3.0724 3.0407 3.0724-1.3496 3.0724-3.0407-1.3813-3.0724-3.0724-3.0724zm-239.11 8.3303c-0.91115 0-1.6471 0.73592-1.6471 1.6471s0.73592 1.6471 1.6471 1.6471 1.6471-0.73592 1.6471-1.6471-0.73592-1.6471-1.6471-1.6471zm649.07 1.2036c-1.7144 0-3.1041 1.3897-3.1041 3.1041s1.3897 3.1041 3.1041 3.1041 3.1041-1.3897 3.1041-3.1041-1.3897-3.1041-3.1041-3.1041zm-93.059 1.8371c-1.8668 0-3.3892 1.5224-3.3892 3.3892s1.5224 3.3575 3.3892 3.3575 3.3892-1.4907 3.3892-3.3575-1.5224-3.3892-3.3892-3.3892zm-174.53 2.1855c-1.1216 0-2.0272 0.90555-2.0272 2.0272s0.90553 2.0272 2.0272 2.0272 2.0272-0.90554 2.0272-2.0272-0.90555-2.0272-2.0272-2.0272zm87.706 0.72851c-0.90341 0-1.6471 0.74366-1.6471 1.6471s0.74366 1.6154 1.6471 1.6154 1.6471-0.712 1.6471-1.6154-0.74367-1.6471-1.6471-1.6471zm-403.66 0.0634c-1.2495 0-2.2489 1.031-2.2489 2.2806s0.99936 2.2489 2.2489 2.2489 2.2806-0.99936 2.2806-2.2489-1.031-2.2806-2.2806-2.2806zm47.575 2.534c-1.829 0-3.2941 1.4968-3.2941 3.3258s1.4651 3.3258 3.2941 3.3258 3.3258-1.4968 3.3258-3.3258-1.4968-3.3258-3.3258-3.3258zm-282.6 2.4706c-1.2638 0-2.2806 1.0168-2.2806 2.2806s1.0168 2.3122 2.2806 2.3122 2.2806-1.0485 2.2806-2.3122-1.0168-2.2806-2.2806-2.2806zm656.83 2.1539c-1.8025 0-3.2624 1.4599-3.2624 3.2625s1.4599 3.2625 3.2624 3.2625 3.2625-1.4599 3.2625-3.2625-1.4599-3.2625-3.2625-3.2625zm44.946 8.8372c-1.262 0-2.2806 1.0186-2.2806 2.2806s1.0186 2.2806 2.2806 2.2806 2.2805-1.0186 2.2805-2.2806-1.0186-2.2806-2.2805-2.2806zm-551.04 0.0317c-0.90615 0-1.6471 0.74091-1.6471 1.6471s0.74092 1.6154 1.6471 1.6154 1.6471-0.70925 1.6471-1.6154-0.74092-1.6471-1.6471-1.6471zm714.57 1.2353c-1.2493 0-2.2806 1.0313-2.2806 2.2806s1.0313 2.2489 2.2806 2.2489 2.2489-0.99959 2.2489-2.2489-0.9996-2.2806-2.2489-2.2806zm-312.31 2.0272c-0.94331 0-1.7104 0.76711-1.7104 1.7104s0.76711 1.7104 1.7104 1.7104 1.7104-0.76711 1.7104-1.7104-0.7671-1.7104-1.7104-1.7104zm-505.78 1.267c-0.9622 0-1.7421 0.77989-1.7421 1.7421s0.77989 1.7421 1.7421 1.7421 1.7421-0.77989 1.7421-1.7421-0.7799-1.7421-1.7421-1.7421zm905.67 0.47511c-1.1219 0-2.0272 0.93718-2.0272 2.0588s0.9053 2.0272 2.0272 2.0272 2.0271-0.9055 2.0271-2.0272-0.9108-2.0588-2.0271-2.0588zm-482.27 1.0769c-1.7671 0-3.1991 1.432-3.1991 3.1991s1.432 3.1991 3.1991 3.1991 3.1991-1.432 3.1991-3.1991-1.432-3.1991-3.1991-3.1991zm91.951 8.2353c-0.67189 0-1.2036 0.53174-1.2036 1.2036s0.53174 1.2353 1.2036 1.2353 1.2036-0.56342 1.2036-1.2353-0.53175-1.2036-1.2036-1.2036zm-635.74 1.0136c-0.71041 0-1.267 0.58825-1.267 1.2986s0.55656 1.267 1.267 1.267 1.2986-0.55657 1.2986-1.267-0.58824-1.2986-1.2986-1.2986zm793.86 3.1991c-1.343 0-2.439 1.0643-2.439 2.4073s1.096 2.4389 2.439 2.4389 2.4073-1.096 2.4073-2.4389-1.0643-2.4073-2.4073-2.4073zm-333.75 0.76019c-1.2541 0-2.2806 1.0264-2.2806 2.2806s1.0264 2.2806 2.2806 2.2806 2.2489-1.0264 2.2489-2.2806-0.99476-2.2806-2.2489-2.2806zm387.22 1.7104c-1.6747 0-3.0408 1.3343-3.0408 3.0091s1.366 3.0408 3.0408 3.0408 3.0091-1.366 3.0091-3.0408-1.3344-3.0091-3.0091-3.0091zm-241.96 11.498c-1.6276 0-2.9457 1.3182-2.9457 2.9457s1.3182 2.9457 2.9457 2.9457 2.9457-1.3182 2.9457-2.9457-1.3182-2.9457-2.9457-2.9457zm-567.29 0.0316c-1.4861 0-2.6923 1.1746-2.6923 2.6606s1.2063 2.6923 2.6923 2.6923 2.6923-1.2063 2.6923-2.6923-1.2063-2.6606-2.6923-2.6606zm81.118 0.31675c-1.8125 0-3.2941 1.4816-3.2941 3.2941s1.4816 3.2941 3.2941 3.2941 3.2624-1.4816 3.2624-3.2941-1.4499-3.2941-3.2624-3.2941zm812.35 3.0091c-1.8624 0-3.3575 1.4951-3.3575 3.3575s1.4951 3.3892 3.3575 3.3892 3.3892-1.5268 3.3892-3.3892-1.5268-3.3575-3.3892-3.3575zm7.095 0.57013c-1.6182 0-2.9141 1.3275-2.9141 2.9457s1.2958 2.914 2.9141 2.914 2.9457-1.2958 2.9457-2.914-1.3275-2.9457-2.9457-2.9457zm-816.28 5.0363c-1.0832 0-1.9638 0.88056-1.9638 1.9638s0.88056 1.9638 1.9638 1.9638 1.9321-0.88055 1.9321-1.9638-0.84888-1.9638-1.9321-1.9638zm493.11 5.7331c-1.2689 0-2.3122 1.0434-2.3122 2.3122s1.0434 2.2806 2.3122 2.2806 2.2806-1.0117 2.2806-2.2806-1.0117-2.3122-2.2806-2.3122zm-306.39 1.1403c-1.6974 0-3.0724 1.375-3.0724 3.0724s1.375 3.1041 3.0724 3.1041 3.0724-1.4067 3.0724-3.1041-1.375-3.0724-3.0724-3.0724zm112.51 0.72851c-1.838 0-3.3258 1.4878-3.3258 3.3258s1.4878 3.3258 3.3258 3.3258 3.3258-1.4878 3.3258-3.3258-1.4878-3.3258-3.3258-3.3258zm-326.28 1.2986c-0.84099 0-1.5204 0.67938-1.5204 1.5204s0.67939 1.5204 1.5204 1.5204 1.5204-0.67939 1.5204-1.5204-0.67938-1.5204-1.5204-1.5204zm-52.675 8.2354c-1.4816 0-2.6923 1.2107-2.6923 2.6923s1.2107 2.6923 2.6923 2.6923 2.6923-1.2107 2.6923-2.6923-1.2107-2.6923-2.6923-2.6923zm891.13 1.2036c-1.4484 0-2.629 1.1806-2.629 2.629s1.1806 2.629 2.629 2.629 2.5973-1.1806 2.5973-2.629-1.1489-2.629-2.5973-2.629zm-775.29 3.5159c-1.1358 0-2.0588 0.92305-2.0588 2.0588s0.92305 2.0588 2.0588 2.0588 2.0588-0.92304 2.0588-2.0588-0.92305-2.0588-2.0588-2.0588zm-66.738 0.3801c-1.2572 0-2.2806 0.99171-2.2806 2.2489s1.0234 2.2806 2.2806 2.2806 2.2806-1.0234 2.2806-2.2806-1.0234-2.2489-2.2806-2.2489zm115.83 5.3213c-1.063 0-1.9321 0.86915-1.9321 1.9321s0.86915 1.9321 1.9321 1.9321 1.9321-0.86915 1.9321-1.9321-0.86915-1.9321-1.9321-1.9321zm39.751 0.72851c-0.93871 0-1.7104 0.74004-1.7104 1.6787s0.77171 1.7104 1.7104 1.7104 1.6787-0.77171 1.6787-1.7104-0.74003-1.6787-1.6787-1.6787zm-55.367 3.8643c-1.88 0-3.3892 1.5091-3.3892 3.3892s1.5091 3.4208 3.3892 3.4208 3.4208-1.5408 3.4208-3.4208-1.5408-3.3892-3.4208-3.3892zm359.82 4.6561c-0.71528 0-1.2986 0.58336-1.2986 1.2986s0.58337 1.2987 1.2986 1.2987 1.2986-0.58337 1.2986-1.2987-0.58336-1.2986-1.2986-1.2986zm-520.73 0.76019c-1.0824 0-1.9638 0.84971-1.9638 1.9321s0.88139 1.9638 1.9638 1.9638 1.9321-0.88138 1.9321-1.9638-0.84972-1.9321-1.9321-1.9321zm124.96 2.914c-1.7758 0-3.2308 1.4233-3.2308 3.1991s1.455 3.2308 3.2308 3.2308 3.1991-1.455 3.1991-3.2308-1.4233-3.1991-3.1991-3.1991zm507.04 0.1267c-1.8707 0-3.3892 1.5184-3.3892 3.3892s1.5185 3.3892 3.3892 3.3892 3.3892-1.5185 3.3892-3.3892-1.5185-3.3892-3.3892-3.3892zm-470.87 4.7195c-1.2623 0-2.2806 1.0183-2.2806 2.2806s1.0183 2.2806 2.2806 2.2806 2.2806-1.0183 2.2806-2.2806-1.0183-2.2806-2.2806-2.2806zm82.892 9.4073c-0.70229 0-1.267 0.56468-1.267 1.267s0.56469 1.267 1.267 1.267 1.267-0.56468 1.267-1.267-0.56469-1.267-1.267-1.267zm303.35 0.50679c-1.5722 0-2.8507 1.2785-2.8507 2.8507s1.2784 2.8507 2.8507 2.8507 2.8507-1.2785 2.8507-2.8507-1.2785-2.8507-2.8507-2.8507zm251.15 2.819c-0.65476 0.134-1.1403 0.73093-1.1403 1.4254 0 0.79362 0.6634 1.4254 1.4571 1.4254s1.4253-0.63173 1.4253-1.4254-0.63175-1.4254-1.4253-1.4254c-0.0992 0-0.22322-0.0191-0.31677 0zm-378.64 0.47511c-1.5822 0-2.8824 1.3002-2.8824 2.8824s1.3002 2.8507 2.8824 2.8507 2.8507-1.2685 2.8507-2.8507-1.2685-2.8824-2.8507-2.8824zm-152.83 1.267c-1.8588 0-3.3892 1.4986-3.3892 3.3575s1.5303 3.3575 3.3892 3.3575 3.3575-1.4986 3.3575-3.3575-1.4986-3.3575-3.3575-3.3575zm404.99 1.2036c-1.0751 0-1.9638 0.85703-1.9638 1.9321s0.88871 1.9321 1.9638 1.9321 1.9321-0.85704 1.9321-1.9321-0.85703-1.9321-1.9321-1.9321zm-225.33 16.914c-1.4691 0-2.6606 1.1916-2.6606 2.6606s1.1916 2.6606 2.6606 2.6606 2.6606-1.1916 2.6606-2.6606-1.1916-2.6606-2.6606-2.6606zm356.72 2.9774c-1.6594 0-3.0091 1.3497-3.0091 3.0091s1.3497 2.9774 3.0091 2.9774 3.009-1.318 3.009-2.9774-1.3497-3.0091-3.009-3.0091zm-675.58 1.0453c-1.2345 0-2.2489 1.0144-2.2489 2.2489s1.0144 2.2172 2.2489 2.2172 2.2172-0.98276 2.2172-2.2172-0.98275-2.2489-2.2172-2.2489zm369.99 4.4027c-1.2821 0-2.3439 1.0618-2.3439 2.3439s1.0618 2.3122 2.3439 2.3122 2.3122-1.0301 2.3122-2.3122-1.0301-2.3439-2.3122-2.3439zm-475.46 1.362c-1.3065 0-2.3756 1.0691-2.3756 2.3756s1.0691 2.3756 2.3756 2.3756 2.3439-1.0691 2.3439-2.3756-1.0374-2.3756-2.3439-2.3756zm785.18 4.8779c-1.3217 0-2.3756 1.0539-2.3756 2.3756s1.0539 2.4073 2.3756 2.4073 2.4072-1.0856 2.4072-2.4073-1.0856-2.3756-2.4072-2.3756zm-175.79 3.8326c-1.0944 0-1.9955 0.86942-1.9955 1.9638s0.90111 1.9955 1.9955 1.9955 1.9638-0.90111 1.9638-1.9955-0.86943-1.9638-1.9638-1.9638zm372.17 0.38009c-1.205 0-2.1853 0.98047-2.1853 2.1855s0.9804 2.1855 2.1853 2.1855c1.2052 0 2.154-0.98048 2.154-2.1855s-0.9488-2.1855-2.154-2.1855zm-157.99 0.63349c-0.66221 0-1.2037 0.54145-1.2037 1.2036s0.54147 1.2036 1.2037 1.2036 1.2036-0.54145 1.2036-1.2036-0.54147-1.2036-1.2036-1.2036zm-714.1 3.1674c-1.2535 0-2.2806 1.0271-2.2806 2.2806s1.0271 2.2489 2.2806 2.2489 2.2489-0.99539 2.2489-2.2489-0.9954-2.2806-2.2489-2.2806zm231.57 6.81c-1.1128 0-2.0272 0.91436-2.0272 2.0272s0.91437 1.9955 2.0272 1.9955 1.9955-0.88268 1.9955-1.9955-0.88268-2.0272-1.9955-2.0272zm201.35 5.543c-0.61656 0.12617-1.0769 0.67647-1.0769 1.3303 0 0.74726 0.58306 1.362 1.3303 1.362s1.362-0.61473 1.362-1.362-0.61473-1.3303-1.362-1.3303c-0.0934 0-0.16531-0.018-0.25339 0zm-292.8 1.172c-0.77267 0-1.3937 0.62101-1.3937 1.3937s0.621 1.3937 1.3937 1.3937 1.3937-0.621 1.3937-1.3937-0.62099-1.3937-1.3937-1.3937zm230.05 0c-0.95394 0-1.7421 0.78816-1.7421 1.7421s0.78815 1.7104 1.7421 1.7104 1.7104-0.75647 1.7104-1.7104-0.75647-1.7421-1.7104-1.7421zm214.21 0.2534c-1.6815 0-3.0408 1.3593-3.0408 3.0407s1.3593 3.0408 3.0408 3.0408 3.0408-1.3593 3.0408-3.0408-1.3594-3.0407-3.0408-3.0407zm-720.72 0.72851c-1.3587 0-2.4389 1.1119-2.4389 2.4706s1.0802 2.4389 2.4389 2.4389 2.4706-1.0802 2.4706-2.4389-1.1119-2.4706-2.4706-2.4706zm344.55 6.1448c-0.85493 0-1.552 0.69712-1.552 1.552s0.69712 1.552 1.552 1.552 1.552-0.69713 1.552-1.552-0.69712-1.552-1.552-1.552zm340.66 0.31675c-1.8175 0-3.2941 1.4767-3.2941 3.2941s1.4767 3.2941 3.2941 3.2941 3.2941-1.4767 3.2941-3.2941-1.4767-3.2941-3.2941-3.2941zm-110.58 1.0769c-1.4396 0-2.629 1.1893-2.629 2.629s1.1893 2.5973 2.629 2.5973 2.5973-1.1576 2.5973-2.5973-1.1576-2.629-2.5973-2.629zm263.53 3.4842c-1.702 0-3.0725 1.4021-3.0725 3.1041s1.3704 3.0724 3.0725 3.0724 3.0724-1.3704 3.0724-3.0724-1.3704-3.1041-3.0724-3.1041zm-129.52 0.57014c-1.5896 0-2.8823 1.2928-2.8823 2.8824s1.2928 2.8824 2.8823 2.8824 2.8824-1.2928 2.8824-2.8824-1.2928-2.8824-2.8824-2.8824zm-595.99 2.0905c-1.5754 0-2.8507 1.2753-2.8507 2.8507s1.2753 2.8507 2.8507 2.8507 2.8507-1.2753 2.8507-2.8507-1.2753-2.8507-2.8507-2.8507zm160.94 4.086c-0.8061 0-1.457 0.65092-1.457 1.457s0.65093 1.457 1.457 1.457 1.457-0.65091 1.457-1.457-0.65092-1.457-1.457-1.457zm24.294 9.439c-0.93604 0-1.6788 0.7427-1.6788 1.6787s0.74271 1.7104 1.6788 1.7104 1.7104-0.77437 1.7104-1.7104-0.77438-1.6787-1.7104-1.6787zm-318.96 14.285c-1.0657 0-1.9321 0.86647-1.9321 1.9321s0.86646 1.9321 1.9321 1.9321 1.9321-0.86646 1.9321-1.9321-0.86646-1.9321-1.9321-1.9321zm85.014 4.5928c-1.827 0-3.3258 1.4989-3.3258 3.3258s1.4989 3.2941 3.3258 3.2941 3.2941-1.4672 3.2941-3.2941-1.4672-3.3258-3.2941-3.3258zm654.27 1.0769c-1.372 0-2.4705 1.0986-2.4705 2.4706s1.0985 2.4706 2.4705 2.4706 2.5023-1.0986 2.5023-2.4706-1.1302-2.4706-2.5023-2.4706zm-430.93 2.8507c-1.789 0-3.2308 1.4418-3.2308 3.2308s1.4418 3.2625 3.2308 3.2625 3.2308-1.4734 3.2308-3.2625-1.4418-3.2308-3.2308-3.2308zm300.18 0.15837c-0.65194 0-1.172 0.52002-1.172 1.172s0.52002 1.2036 1.172 1.2036 1.172-0.55169 1.172-1.2036-0.52002-1.172-1.172-1.172zm-45.738 0.44344c-1.6946 0-3.0724 1.3778-3.0724 3.0724s1.3778 3.0724 3.0724 3.0724 3.0724-1.3778 3.0724-3.0724-1.3778-3.0724-3.0724-3.0724zm-74.213 1.9321c-0.70986 0-1.267 0.5888-1.267 1.2986 0 0.52292 0.2855 0.97646 0.72851 1.172-0.0602-7e-3 -0.12808-0.0317-0.19004-0.0317-0.9026 0-1.6154 0.74448-1.6154 1.6471s0.7128 1.6471 1.6154 1.6471 1.6471-0.74448 1.6471-1.6471c0-0.67694-0.42702-1.2723-1.0136-1.5204h0.095c0.70985 0 1.2986-0.55713 1.2986-1.267s-0.5888-1.2986-1.2986-1.2986zm113.96 16.312c-1.8614 0-3.3892 1.5278-3.3892 3.3892s1.5278 3.3575 3.3892 3.3575 3.3575-1.4961 3.3575-3.3575-1.4961-3.3892-3.3575-3.3892zm275.85 1.6154c-1.4622 0-2.6606 1.1984-2.6606 2.6606s1.1984 2.629 2.6606 2.629 2.629-1.1667 2.629-2.629-1.1667-2.6606-2.629-2.6606zm122.29 4.7512c-1.8502 0-3.3576 1.5073-3.3576 3.3575s1.5074 3.3575 3.3576 3.3575 3.3257-1.5073 3.3257-3.3575-1.4758-3.3575-3.3257-3.3575zm-820.97 4.7512c-0.7855 0-1.4254 0.63984-1.4254 1.4254s0.63985 1.4254 1.4254 1.4254 1.4254-0.63984 1.4254-1.4254-0.63984-1.4254-1.4254-1.4254zm565.89 2.9457c-1.4185 0-2.5656 1.1471-2.5656 2.5656s1.1472 2.5656 2.5656 2.5656 2.5973-1.1471 2.5973-2.5656-1.1787-2.5656-2.5973-2.5656zm188.43 9.4073c-0.83254 0-1.5204 0.65617-1.5204 1.4887s0.68784 1.5204 1.5204 1.5204 1.4886-0.68784 1.4886-1.5204-0.65617-1.4887-1.4886-1.4887zm-784.99 8.0136c-0.86065 0-1.552 0.6914-1.552 1.552s0.6914 1.552 1.552 1.552 1.5837-0.6914 1.5837-1.552-0.72307-1.552-1.5837-1.552zm731.43 2.4389c-1.2735 0-2.3123 1.0388-2.3123 2.3122s1.0388 2.3122 2.3123 2.3122 2.3123-1.0388 2.3123-2.3122-1.0388-2.3122-2.3123-2.3122zm-870.95 21.95c-1.3118 0-2.3756 1.0638-2.3756 2.3756s1.0637 2.3756 2.3756 2.3756 2.3756-1.0637 2.3756-2.3756-1.0637-2.3756-2.3756-2.3756z" fill="#ffc"/>
  <path d="m353.43 667.49v218.47h-10.909v-164.03h-74.744v82.781h-29.286v-108.81h-59.19v56.75h-66.1v82.812h-54.603v-103.28h-58.602v320.19h1052.4v-291.03h-73.568v101.75h-63.218v-176.09l-61.308 5.5v193.47h-5.9088v-164.03h-74.744v82.781h-29.286v-108.81h-59.19v56.75h-66.1v82.812h-54.603v-103.28h-58.602v29.156h-32.873v101.75h-63.218v-176.09z"/>
 </g>
</svg>
