<?xml version="1.0" encoding="UTF-8"?>
<svg enable-background="new 0 0 1920 1080" version="1.1" viewBox="0 0 1920 1080" xmlns="http://www.w3.org/2000/svg">
 <linearGradient id="a" x1="960" x2="960" y1="1080" y2="-4.31e-8" gradientUnits="userSpaceOnUse">
  <stop stop-color="#4BC1DF" offset="0"/>
  <stop stop-color="#A5D7CB" offset="1"/>
 </linearGradient>
 <rect width="1920" height="1080" fill="url(#a)"/>
 <path d="m451.53 0h2.19c-0.7 5.66-0.33 11.37-0.37 17.05 0.01 160.36 0.07 320.72 0.08 481.09-0.52-0.04-1.56-0.13-2.09-0.17 0.23-11.4 0.43-22.83-0.1-34.22 0.63-15.89 0.05-31.81 0.22-47.71-0.08-9.14 0.3-18.3-0.31-27.42 0.76-20.88 0.02-41.78 0.31-62.67-0.05-29.3-0.08-58.61-0.05-87.91 0.08-4.9-0.04-9.81-0.36-14.7 0.47-4.77 0.4-9.55 0.37-14.33-0.03-19.31-0.04-38.63-0.04-57.94-0.06-7.9 0.21-15.8-0.36-23.69 0.81-10.13 0.18-20.3 0.37-30.45-0.19-16.52 0.41-33.06-0.34-49.57 0.9-15.76-0.03-31.58 0.48-47.36z" fill="#A3D0AF" stroke="#A3D0AF" stroke-width=".0938"/>
 <path d="m453.72 0h53.96c1.14 8.31 0.18 16.67 0.1 25 0.4 13.34-0.22 26.69 0.46 40.02-1 17.34 0.37 34.69-0.46 52.03 0.72 16.3-0.57 32.63 0.31 48.94-0.98 11.65 0.72 23.3-0.22 34.95-0.18 3.66-0.08 7.34 0.08 11 0.58 9.68-0.61 19.36 0.13 29.04-0.28 8.67-0.52 17.35 0.1 26.02-0.16 14-0.18 27.99-0.22 41.99-0.19 8.68 0.66 17.36 0.01 26.04 0.39 14.97-0.33 29.95 0.05 44.93 0.67 9.69-0.56 19.37-0.23 29.07-0.18 8.68 0.19 17.34 0.44 26.02-0.7 16.62-0.53 33.27-0.17 49.91-0.16 4.43-0.31 8.88 0.18 13.31-6.73-0.64-13.5-0.24-20.25-0.34-11.45 0.08-22.91-0.21-34.36 0.22l-0.2-0.01c-0.01-160.37-0.07-320.73-0.08-481.09 0.04-5.68-0.33-11.39 0.37-17.05z" fill="#FBF176" stroke="#FBF176" stroke-width=".0938"/>
 <path d="m507.68 0h27.02c0 18.66-0.08 37.33 0.03 55.99 0.72 7-0.21 14-0.01 21-0.08 44.33 0.09 88.65-0.06 132.98 0.47 16.99-0.35 34 0.15 51-0.11 17.98-0.35 35.98 0.1 53.96-0.67 23.34 0.17 46.69-0.24 70.03 0.05 37.71-0.04 75.42 0.04 113.13-8.81-0.12-17.67-0.4-26.47 0.18-0.49-4.43-0.34-8.88-0.18-13.31-0.36-16.64-0.53-33.29 0.17-49.91-0.25-8.68-0.62-17.34-0.44-26.02-0.33-9.7 0.9-19.38 0.23-29.07-0.38-14.98 0.34-29.96-0.05-44.93 0.65-8.68-0.2-17.36-0.01-26.04 0.04-14 0.06-27.99 0.22-41.99-0.62-8.67-0.38-17.35-0.1-26.02-0.74-9.68 0.45-19.36-0.13-29.04-0.16-3.66-0.26-7.34-0.08-11 0.94-11.65-0.76-23.3 0.22-34.95-0.88-16.31 0.41-32.64-0.31-48.94 0.83-17.34-0.54-34.69 0.46-52.03-0.68-13.33-0.06-26.68-0.46-40.02 0.08-8.33 1.04-16.69-0.1-25z" fill="#fff" stroke="#fff" stroke-width=".0938"/>
 <path d="m534.7 0h21.04c0.22 20 0.15 39.99 0.41 59.97-0.85 8.02 0.3 16.04-0.12 24.06-0.32 12.01 0.5099 24.01-0.25 36.01 0.0699 11.98 0.34 23.96 0.25 35.94-0.73 18.67 0.29 37.35-0.19 56.01 0.04 20.98-0.15 41.97-0.01 62.95 0.9 12.68-0.43 25.38 0.2 38.08 0.7 9.68-0.69 19.36-0.03 29.05 0.15 22.31-0.11 44.6-0.05 66.91 0.67 12.33-0.74 24.66 0.08 37-0.15 28.66-0.23 57.32-0.08 85.97 0.58 10.66-0.35 21.34 0.09 32.01 0.47 9.67-0.05 19.36-0.2 29.03 0.36 21.67-0.11 43.33 0.15 65-0.57 9.34 0.81 18.67-0.1 28 0.05 23 0.06 45.99 0.33 68.99-0.92 15.68 0.4301 31.38-0.45 47.07 0.24 12.99 0.28 25.98 0.02 38.97 0.82 10.96-0.62 21.94 0.23 32.91 0.55 6.34-0.47 12.68-0.06 19.03 0.43 6.34-0.41 12.67-0.17 19.01 0.51 10.67-0.44 21.35 0.27 32.02-0.61 11.67 0.3 23.35-0.26 35.02-0.17 7.35 0.76 14.69 0.16 22.04 0.09 22.96-0.68 45.95 0.24 68.91 0.05 3.3401 0 6.6901-0.02 10.04h-10c-0.39-188.65 0.04-377.32-0.22-565.96 0.1-5.85-4.96-10.21-4.89-16.14-2.12 0.04-4.25 0.1-6.36 0.19-0.08-37.71 0.0099-75.42-0.04-113.13 0.41-23.34-0.43-46.69 0.24-70.03-0.45-17.98-0.21-35.98-0.1-53.96-0.5-17 0.32-34.01-0.15-51 0.15-44.33-0.02-88.65 0.06-132.98-0.2-7 0.73-14 0.01-21-0.11-18.66-0.03-37.33-0.03-55.99z" fill="#FBF176" stroke="#FBF176" stroke-width=".0938"/>
 <path d="m555.74 0h26.92c0.39 27.65-0.54 55.32 0.52 82.96-0.98 17.32-0.3 34.69-0.5 52.03 0.03 107.31 0 214.62-0.01 321.94-0.3 8.04 0.91 16.07 0.05 24.11-0.1 29.99 0 59.99-0.04 89.98-0.2 8.67 0.67 17.34-0.01 26.01 0.12 62.66-0.1 125.32 0.1 187.97-0.11 16.34-0.31 32.71 0.28 49.04-0.59 9.3-0.41 18.64-0.3 27.96 0.6 5.65 0.16 11.32-0.09 16.99 0.06 67 0.03 134 0.03 201.01h-26.51c0.02-3.35 0.07-6.7 0.02-10.04-0.92-22.96-0.15-45.95-0.24-68.91 0.6-7.35-0.33-14.69-0.16-22.04 0.56-11.67-0.35-23.35 0.26-35.02-0.71-10.67 0.24-21.35-0.27-32.02-0.24-6.34 0.6-12.67 0.17-19.01-0.41-6.35 0.61-12.69 0.06-19.03-0.85-10.97 0.59-21.95-0.23-32.91 0.26-12.99 0.22-25.98-0.02-38.97 0.88-15.69-0.47-31.39 0.45-47.07-0.27-23-0.28-45.99-0.33-68.99 0.91-9.33-0.47-18.66 0.1-28-0.26-21.67 0.21-43.33-0.15-65 0.15-9.67 0.67-19.36 0.2-29.03-0.44-10.67 0.4901-21.35-0.09-32.01-0.15-28.65-0.07-57.31 0.08-85.97-0.82-12.34 0.59-24.67-0.08-37-0.06-22.31 0.2-44.6 0.05-66.91-0.66-9.69 0.73-19.37 0.03-29.05-0.63-12.7 0.7-25.4-0.2-38.08-0.14-20.98 0.05-41.97 0.01-62.95 0.48-18.66-0.54-37.34 0.19-56.01 0.09-11.98-0.1801-23.96-0.25-35.94 0.7599-12-0.07-24 0.25-36.01 0.42-8.02-0.73-16.04 0.12-24.06-0.26-19.98-0.19-39.97-0.41-59.97z" fill="#fff" stroke="#fff" stroke-width=".0938"/>
 <path d="m582.66 0h18.63c-0.1 52.33 0.14 104.67-0.05 156.99-0.41 9.34 0.2 18.69 0.09 28.03-0.04 29.67 0.02 59.34-0.03 89.01-0.4 6.01-0.18 12.02 0.04 18.03-0.09 19.66 0.12 39.32-0.2 58.97 0.72 10.64-0.56 21.28 0.17 31.92 0.02 63.68-0.04 127.37-0.11 191.02 0.3 79-0.06 158.01 0.13 237-0.06 89.69-0.04 179.35-0.03 269.03h-18.61c0-67.01 0.03-134.01-0.03-201.01 0.25-5.67 0.69-11.34 0.09-16.99-0.11-9.32-0.29-18.66 0.3-27.96-0.59-16.33-0.39-32.7-0.28-49.04-0.2-62.65 0.02-125.31-0.1-187.97 0.68-8.67-0.19-17.34 0.01-26.01 0.04-29.99-0.06-59.99 0.04-89.98 0.86-8.04-0.35-16.07-0.05-24.11 0.01-107.32 0.04-214.63 0.01-321.94 0.2-17.34-0.48-34.71 0.5-52.03-1.06-27.64-0.13-55.31-0.52-82.96z" fill="#FBF176" stroke="#FBF176" stroke-width=".0938"/>
 <path d="m601.29 0h26.44c0.87 12.34-0.41 24.67 0.23 37.02-0.29 8.01 0.6 16.02 0.03 24.03-0.84 14.67 0.89 29.36-0.14 44.03-0.22 14.29 0.96 28.59 0.06 42.89 0.71 13.35-0.18 26.7 0.07 40.05-0.3 8.31 0.46 16.62-0.05 24.93 0.02 11.34 0.63 22.69-0.02 34.03 0.32 10.34 0.57 20.7-0.0699 31.04 0.11 12.66 0.3 25.31 0.23 37.98 0.74 13.01-1 26.02 0.06 39.03-0.38 30.31 0.34 60.63-0.23 90.94 0.54 13.68-0.59 27.4 0.3199 41.08-0.27 8.66-0.1899 17.31-0.33 25.97 0.71 10.66-0.31 21.32 0.18 31.98-0.13 18.67 0.18 37.33-0.31 55.99-0.15 6.67 0.47 13.32 0.47 19.98-0.56 11.68 0.21 23.36-0.45 35.04 0.74 9.65-0.0601 19.32 0.37 28.98 0.08 9.02-0.51 18.03 0.03 27.04-0.72 23.65 0.77 47.33-0.37 70.97 0.33 9.33-0.34 18.66 0.15 27.99 0.54 10.33 0.23 20.69-0.13 31.03 0.77 14.66 0.15 29.34 0.29 44.02-0.88 9.65 0.47 19.31 0.08 28.98-0.43 9.97-0.68 19.97-0.15 29.95 0.43 6.6801-0.61 13.36-0.21 20.05 0.8799 12.64-0.3 25.31 0.0699 37.97 0.59 6.99-0.47 13.98-0.04 20.98 0.53 9.36-0.29 18.73 0.28 28.09 0.55 9.3099-1.07 18.65 0.25 27.94h-27.1c-0.01-89.68-0.03-179.34 0.03-269.03-0.19-78.99 0.17-158-0.13-237 0.07-63.65 0.13-127.34 0.11-191.02-0.73-10.64 0.55-21.28-0.17-31.92 0.32-19.65 0.11-39.31 0.2-58.97-0.22-6.01-0.44-12.02-0.04-18.03 0.05-29.67-0.01-59.34 0.03-89.01 0.11-9.34-0.5-18.69-0.09-28.03 0.1901-52.32-0.0499-104.66 0.0501-156.99z" fill="#fff" stroke="#fff" stroke-width=".0938"/>
 <path d="m627.73 0h23.91c0.54 8.31 0.87 16.65 0.29 24.97-0.44 8.35 0.73 16.7 0.21 25.06-0.6 11.66-0.31 23.34-0.3 35.01 0.78 10.64-0.05 21.3 0.04 31.95 0.48 6.33-0.18 12.66-0.06 18.99 0.64 29.68-0.11 59.37 0.1 89.06 0.74 14.98-0.59 29.98 0.17 44.96-0.14 13.66-0.27 27.32-0.31 40.99 0.67 12.31-0.08 24.63 0.29 36.95-0.57 12.69 0.48 25.39-0.24 38.09-0.1 10.32 0.5 20.65 0.28 30.97-0.76 9.33 0.22 18.68-0.08 28.02-0.41 10.33 0.68 20.66-0.05 30.99-0.66 8.34 0.39 16.69 0.02 25.04 0.19 21.65-0.57 43.29-0.01 64.93-0.07 9.67-0.4 19.35 0.21 29.01-0.8 15.97 0.13 31.95-0.24 47.93 0.36 11.68 0.35 23.35-0.18 35.02 0.95 11.69-0.6201 23.39 0.35 35.09-0.57 11.66 0.27 23.33-0.23 34.99 0.4 25.66 0.0099 51.32-0.11 76.99 0.7401 11.66-0.52 23.32 0.2 34.99-0.29 8.01 0.52 16.02-0.08 24.03-0.52 7.31 0.41 14.63-0.02 21.95-0.44 6.99 0.73 13.98 0.09 20.97-0.84 10.36 0.83 20.73-0.03 31.1-0.65 7.98 0.65 15.96-0.06 23.94 0.08 32.66 0.35 65.34-0.12 98.01h-23.37c-1.32-9.29 0.3-18.63-0.25-27.94-0.57-9.3601 0.25-18.73-0.28-28.09-0.43-7 0.63-13.99 0.04-20.98-0.37-12.66 0.81-25.33-0.0699-37.97-0.4-6.69 0.64-13.37 0.21-20.05-0.53-9.98-0.28-19.98 0.15-29.95 0.39-9.67-0.96-19.33-0.08-28.98-0.14-14.68 0.48-29.36-0.29-44.02 0.36-10.34 0.67-20.7 0.13-31.03-0.4901-9.33 0.18-18.66-0.15-27.99 1.14-23.64-0.35-47.32 0.37-70.97-0.54-9.01 0.05-18.02-0.03-27.04-0.4301-9.66 0.37-19.33-0.37-28.98 0.66-11.68-0.11-23.36 0.45-35.04 0-6.66-0.62-13.31-0.47-19.98 0.49-18.66 0.18-37.32 0.31-55.99-0.49-10.66 0.53-21.32-0.18-31.98 0.14-8.66 0.06-17.31 0.33-25.97-0.91-13.68 0.22-27.4-0.3199-41.08 0.5699-30.31-0.15-60.63 0.23-90.94-1.06-13.01 0.68-26.02-0.06-39.03 0.07-12.67-0.12-25.32-0.23-37.98 0.64-10.34 0.39-20.7 0.0699-31.04 0.65-11.34 0.04-22.69 0.02-34.03 0.51-8.31-0.25-16.62 0.05-24.93-0.25-13.35 0.64-26.7-0.07-40.05 0.9-14.3-0.28-28.6-0.06-42.89 1.03-14.67-0.7-29.36 0.14-44.03 0.57-8.01-0.32-16.02-0.03-24.03-0.6401-12.35 0.6399-24.68-0.2301-37.02z" fill="#FBF176" stroke="#FBF176" stroke-width=".0938"/>
 <path d="m651.64 0h27.06c0.14 21.32-0.4 42.66 0.33 63.98-0.77 17-0.13 34.03-0.38 51.04-0.22 5.67 0.73 11.32 0.33 16.99-0.99 14.33 0.58 28.7-0.28 43.04 0 85.64 0.03 171.27-0.01 256.91 0.51 20.67-0.3 41.35 0.07 62.03-0.12 36-0.16 72.02 0.09 108.02 0.31 7.99-0.67 15.99 0.16 23.98-0.69 16.32-0.14 32.65-0.26 48.98 0.37 13.7-0.42 27.39 0.06 41.1-0.61 26.65 0.56 53.29-0.15 79.92 0.19 18.34-0.27 36.68 0.25 55-0.66 29.35 0.21 58.71-0.23 88.05 0.14 46.98-0.05 93.97 0.03 140.96h-26.94c0.47-32.67 0.2-65.35 0.12-98.01 0.71-7.98-0.59-15.96 0.06-23.94 0.86-10.37-0.81-20.74 0.03-31.1 0.64-6.99-0.53-13.98-0.09-20.97 0.43-7.32-0.5-14.64 0.02-21.95 0.6-8.01-0.21-16.02 0.08-24.03-0.72-11.67 0.54-23.33-0.2-34.99 0.12-25.67 0.51-51.33 0.11-76.99 0.5-11.66-0.34-23.33 0.23-34.99-0.97-11.7 0.6-23.4-0.35-35.09 0.53-11.67 0.54-23.34 0.18-35.02 0.37-15.98-0.56-31.96 0.24-47.93-0.61-9.66-0.28-19.34-0.21-29.01-0.56-21.64 0.2-43.28 0.01-64.93 0.37-8.35-0.68-16.7-0.02-25.04 0.73-10.33-0.36-20.66 0.05-30.99 0.3-9.34-0.6801-18.69 0.08-28.02 0.22-10.32-0.38-20.65-0.28-30.97 0.72-12.7-0.33-25.4 0.24-38.09-0.37-12.32 0.38-24.64-0.29-36.95 0.04-13.67 0.17-27.33 0.31-40.99-0.76-14.98 0.5699-29.98-0.17-44.96-0.21-29.69 0.54-59.38-0.1-89.06-0.12-6.33 0.54-12.66 0.06-18.99-0.09-10.65 0.74-21.31-0.04-31.95-0.01-11.67-0.3-23.35 0.3-35.01 0.52-8.36-0.65-16.71-0.21-25.06 0.58-8.32 0.25-16.66-0.29-24.97z" fill="#fff" stroke="#fff" stroke-width=".0938"/>
 <path d="m678.7 0h23.6c-0.9 9.98-0.03 20-0.53 30.01 1.13 14.32-0.7 28.65 0.31 42.98-0.4 14.99-0.48 30 0.08 44.98-0.74 8.34-0.0099 16.67 0.05 25.01-1.08 18.34 0.18 36.71-0.25 55.07 0.48 8.34-0.34 16.67 0.11 25.02-0.69 12.62 0.53 25.26-0.25 37.87 0.23 12.02-0.39 24.05 0.24 36.06-0.35 17.99-0.56 36.01 0.18 53.99-0.48 16.99-0.25 33.99-0.2 51 0.42 8-0.49 16 0.01 24.01-0.35 14.01-0.37 28.03 0.02 42.04-0.72 13.99 0.3 27.98-0.22 41.96-0.37 6.33 0.57 12.66 0.16 19-0.68 13.65 0.22 27.31 0 40.98-0.03 47.99-0.02 95.99-0.13 143.98 0.2 18.68-0.33 37.37 0.29 56.05-0.17 16-0.57 32-0.2 47.99-0.4 14.64-0.1 29.29 0.23 43.92-0.57 7.05-0.3 14.11-0.13 21.17-0.58 7.3 0.24 14.62-0.21 21.93-0.47 8.99 0.91 17.98 0.07 26.97 0.1 14.35 0.07 28.69-0.16 43.05-0.2 7.63 0.64 15.27 0.11 22.9-0.44 7.01 0.72 14.01 0.17 21.02-0.64 6.9799 0.55 13.97 0.02 20.96-0.47 6.6699 0.21 13.35-0.04 20.04-0.19 6.67-0.59 13.38 0.11 20.04h-23.43c-0.08-46.99 0.11-93.98-0.03-140.96 0.44-29.34-0.43-58.7 0.23-88.05-0.52-18.32-0.06-36.66-0.25-55 0.71-26.63-0.46-53.27 0.15-79.92-0.48-13.71 0.31-27.4-0.06-41.1 0.12-16.33-0.43-32.66 0.26-48.98-0.83-7.99 0.15-15.99-0.16-23.98-0.25-36-0.21-72.02-0.09-108.02-0.37-20.68 0.44-41.36-0.07-62.03 0.04-85.64 0.01-171.27 0.01-256.91 0.86-14.34-0.71-28.71 0.28-43.04 0.4-5.67-0.55-11.32-0.33-16.99 0.25-17.01-0.39-34.04 0.38-51.04-0.73-21.32-0.19-42.66-0.33-63.98z" fill="#FBF176" stroke="#FBF176" stroke-width=".0938"/>
 <path d="m702.3 0h26.97c0.13 24.99-0.01 49.97 0.07 74.96-0.4301 22.35 0.43 44.72-0.29 67.07 0.68 8.65-0.09 17.3 0.14 25.95 0.28 85.31 0.04 170.67 0.14 256 0.3 7-0.86 13.99-0.14 20.98-0.12 14 0.49 28.02-0.13 42.02 0.5 13.33 0.15 26.66 0.27 39.99 0.24 8.34-0.95 16.67-0.02 25 0.04 82.03-0.05 164.04 0.01 246.06-0.01 17.66 0.13 35.33-0.35 52.99 0.4901 9.31 0.51 18.63-0.05 27.94 0.96 13.68-0.06 27.38 0.41 41.07-0.04 53.33-0.18 106.64 0.11 159.97h-27.3c-0.7-6.66-0.3-13.37-0.11-20.04 0.25-6.6899-0.4301-13.37 0.04-20.04 0.53-6.99-0.66-13.98-0.02-20.96 0.55-7.01-0.61-14.01-0.17-21.02 0.53-7.63-0.31-15.27-0.11-22.9 0.23-14.36 0.26-28.7 0.16-43.05 0.84-8.99-0.54-17.98-0.07-26.97 0.45-7.31-0.37-14.63 0.21-21.93-0.17-7.06-0.44-14.12 0.13-21.17-0.33-14.63-0.63-29.28-0.23-43.92-0.37-15.99 0.03-31.99 0.2-47.99-0.62-18.68-0.09-37.37-0.29-56.05 0.11-47.99 0.1-95.99 0.13-143.98 0.22-13.67-0.68-27.33 0-40.98 0.41-6.34-0.53-12.67-0.16-19 0.52-13.98-0.5-27.97 0.22-41.96-0.39-14.01-0.37-28.03-0.02-42.04-0.5-8.01 0.41-16.01-0.01-24.01-0.05-17.01-0.28-34.01 0.2-51-0.74-17.98-0.53-36-0.18-53.99-0.63-12.01-0.01-24.04-0.24-36.06 0.78-12.61-0.44-25.25 0.25-37.87-0.45-8.35 0.37-16.68-0.11-25.02 0.43-18.36-0.83-36.73 0.25-55.07-0.06-8.34-0.79-16.67-0.05-25.01-0.56-14.98-0.48-29.99-0.08-44.98-1.01-14.33 0.82-28.66-0.31-42.98 0.5-10.01-0.37-20.03 0.53-30.01z" fill="#fff" stroke="#fff" stroke-width=".0938"/>
 <path d="m729.27 0h22.07c-0.41 6.99 0.16 14.01-0.55 20.99 0.53 20.31-0.53 40.65 0 60.97 1.21 10.35-0.84 20.71 0 31.08 1.58 17.32-0.75 34.64-0.04 51.97 0.45 6.67-0.32 13.36 0.39 20.02 0.7 7.64-0.37 15.27-0.51 22.9 0.72 17.7 0.1 35.38 0.42 53.08-0.22 5.32-0.71 10.65-0.14 15.96 0.6 6.67-0.69 13.34 0.03 20.01-0.37 16.01-0.31 32.04-0.16 48.05 1.05 8.32-0.5 16.63-0.09 24.97-0.24 10.34 0.64 20.67-0.02 31.01 0.24 11.66-0.03 23.32 0.44 34.96-0.81 8.68-0.19 17.39 0 26.08 0.69 7.97-0.74 15.91-0.21 23.89-0.67 14.34 0.33 28.68 0.31 43.03-1.02 11.98-0.3 24.01-0.53 36.02-0.28 7.01 0.77 14 0.14 21.01-0.62 9.34 0.3 18.67 0.52 28-0.85 11.96-0.9301 23.98-0.22 35.96-0.73 13.01-0.49 26.06 0.06 39.07-0.16 4.3199-0.82 8.64-0.29 12.97 1 6.97-0.87 13.96 0.14 20.94 1 8.01-0.66 16-0.35 24.02 0.66 8.34 0.16 16.7 0.64 25.05-0.94 11.99-0.14 24.02-0.61 36.02 0.2 6.6299 0.17 13.27 0.45 19.9-0.7599 12.66-0.6 25.36-0.11 38.03-0.54 8.67-0.38 17.36-0.33 26.05 0.82 15.66-0.79 31.35 0.3101 47.02-0.32 5.99 0.1 11.97 0.17 17.96-1.34 14.32 0.15 28.68 0.02 43.02-0.98 10.96-0.34 21.97-0.55 32.96-0.19 6 0.58 11.98 0.67 17.99 0.25 9.6801-1.6201 19.38-0.17 29.04h-21.73c-0.29-53.33-0.15-106.64-0.11-159.97-0.47-13.69 0.55-27.39-0.41-41.07 0.56-9.31 0.54-18.63 0.05-27.94 0.48-17.66 0.34-35.33 0.35-52.99-0.06-82.02 0.03-164.03-0.01-246.06-0.93-8.33 0.26-16.66 0.02-25-0.12-13.33 0.23-26.66-0.27-39.99 0.62-14 0.01-28.02 0.13-42.02-0.72-6.99 0.44-13.98 0.14-20.98-0.1-85.33 0.14-170.69-0.14-256-0.23-8.65 0.54-17.3-0.14-25.95 0.72-22.35-0.14-44.72 0.29-67.07-0.0801-24.99 0.0599-49.97-0.0701-74.96z" fill="#FBF176" stroke="#FBF176" stroke-width=".0938"/>
 <path d="m751.34 0h26.41c0.42 18.01 0.21 36.02 0.18 54.04 0.58 12.31 0.22 24.64-0.14 36.95 0.88 15.33 0 30.66 0.11 46 0.46 8.34-0.4301 16.68-0.06 25.03 0.4 9.34-0.3701 18.69 0.23 28.02 0.49 8.01-0.63 16-0.21 24.01 0.5 12.97-0.3 25.94 0 38.91 0.69 10.34-0.4 20.69 0.22 31.04-0.35 11.67 0.04 23.33 0.04 35-0.7 13.02-0.22 26.05 0.11 39.07-0.42 12.63-0.47 25.27-0.03 37.9-0.01 12.34-0.82 24.69-0.11 37.03 0.27 6.01-0.55 12-0.27 18.02 0.17 4.32 0.3 8.66 0.06 12.99-0.32 5.98 0.54 11.96 0.23 17.95-0.66 17.33 0.12 34.66-0.12 52-0.19 5.0099-0.31 10.04 0.06 15.05 0.53 6.66-0.53 13.3-0.17 19.96 0.18 3.66 0.42 7.34 0.29 11.01-0.97 18.34 0.27 36.7-0.3 55.05 0.86 22.31-0.72 44.65 0.3 66.96-0.16 29.65-0.6 59.31-0.07 88.96 0 15.33-0.34 30.67-0.29 46.01 0.74 24.68-0.42 49.35 0.41 74.03-0.61 12.32-0.37 24.65-0.43 36.98 0.47 14.98-0.23 29.97 0.02 44.97 0.85 14.33-0.66 28.67 0.22 43.01 0.73 10.03-0.65 20.05-0.09 30.08 0.24 4.65-0.02 9.3099-0.2 13.97h-26.57c-1.45-9.66 0.42-19.36 0.17-29.04-0.09-6.01-0.86-11.99-0.67-17.99 0.21-10.99-0.43-22 0.55-32.96 0.13-14.34-1.36-28.7-0.02-43.02-0.07-5.99-0.49-11.97-0.17-17.96-1.1-15.67 0.5099-31.36-0.3101-47.02-0.05-8.69-0.21-17.38 0.33-26.05-0.49-12.67-0.65-25.37 0.11-38.03-0.28-6.63-0.25-13.27-0.45-19.9 0.47-12-0.33-24.03 0.61-36.02-0.48-8.35 0.02-16.71-0.64-25.05-0.31-8.02 1.35-16.01 0.35-24.02-1.01-6.98 0.86-13.97-0.14-20.94-0.53-4.33 0.13-8.65 0.29-12.97-0.55-13.01-0.79-26.06-0.06-39.07-0.71-11.98-0.63-24 0.22-35.96-0.22-9.33-1.14-18.66-0.52-28 0.63-7.01-0.42-14-0.14-21.01 0.23-12.01-0.49-24.04 0.53-36.02 0.02-14.35-0.98-28.69-0.31-43.03-0.53-7.98 0.9-15.92 0.21-23.89-0.19-8.69-0.81-17.4 0-26.08-0.47-11.64-0.2-23.3-0.44-34.96 0.66-10.34-0.22-20.67 0.02-31.01-0.41-8.34 1.14-16.65 0.09-24.97-0.15-16.01-0.21-32.04 0.16-48.05-0.72-6.67 0.57-13.34-0.03-20.01-0.5699-5.31-0.08-10.64 0.14-15.96-0.32-17.7 0.3-35.38-0.42-53.08 0.14-7.63 1.21-15.26 0.51-22.9-0.71-6.66 0.06-13.35-0.39-20.02-0.71-17.33 1.62-34.65 0.04-51.97-0.84-10.37 1.21-20.73 0-31.08-0.53-20.32 0.53-40.66 0-60.97 0.7101-6.98 0.1401-14 0.5501-20.99z" fill="#fff" stroke="#fff" stroke-width=".0938"/>
 <path d="m777.75 0h21.63c-1.38 7.28 0.43 14.64-0.58 21.95 0.23 16.99-0.51 34 0.15 51-0.88 7.36 0.89 14.71 0 22.07-0.61 5.3 0.42 10.62-0.08 15.94-0.63 7.32 0.51 14.65-0.06 21.99 0.53 8-0.58 16.01 0.32 24-0.59 9.68-0.1 19.39-0.1 29.08-0.4301 7-0.6201 14.04 0.02 21.04 0.72 6.65-0.98 13.28-0.18 19.94 0.56 5.32-0.29 10.67 0.26 16 0.64 5.69-0.57 11.37-0.1 17.06 0.25 3.32-0.03 6.65-0.27 9.96-0.33 4.33 0.5 8.64 0.3 12.97-1.14 17.32 0.43 34.68-0.37 52-0.22 6.35 1.19 12.68 0.35 19.02-0.42 9.68-0.24 19.38-0.06 29.06-0.85 7.29 0.22 14.58 0.3 21.87-1.15 14.65-0.5 29.36-0.1 44.03-0.43 8.68-0.35 17.38-0.49 26.06 0.86 7.63 0 15.29 0.31 22.94-0.82 12.99 0.11 26.01-0.11 39.01-0.41 16-0.22 32.01 0.36 48-0.21 6.97-0.61 13.95-0.4 20.93 0.34 13.02-0.55 26.04 0.05 39.06 0.71 15.35-0.85 30.7 0.1 46.05-1.01 20.64 0.7 41.31-0.15 61.95 0.56 19.33-0.56 38.7 0.4 58.03-0.52 10.67-0.58 21.37-0.1 32.05-1.14 9.63 0.49 19.29-0.1801 28.94-0.4399 6.67-0.48 13.37 0.2 20.03 0.52 4.99-0.61 9.96-0.32 14.96 0.57 7.98-0.24 15.98 0.07 23.98 0.61 11 0.62 22.04-0.19 33.04 0.27 6.33 0.23 12.66-0.08 19 1 13.98-0.62 28 0.27 41.99 0.27 3.3199 0.11 6.65-0.13 9.98-0.55 6.7001 0.96 13.36 0.4901 20.06-0.91 8.2999-0.05 16.63-0.2401 24.96h-21.3c0.18-4.66 0.44-9.3199 0.2-13.97-0.56-10.03 0.82-20.05 0.09-30.08-0.88-14.34 0.6299-28.68-0.22-43.01-0.25-15 0.45-29.99-0.02-44.97 0.06-12.33-0.18-24.66 0.43-36.98-0.83-24.68 0.33-49.35-0.41-74.03-0.05-15.34 0.29-30.68 0.29-46.01-0.53-29.65-0.09-59.31 0.07-88.96-1.02-22.31 0.56-44.65-0.3-66.96 0.57-18.35-0.67-36.71 0.3-55.05 0.13-3.67-0.11-7.35-0.29-11.01-0.36-6.66 0.7-13.3 0.17-19.96-0.37-5.01-0.25-10.04-0.06-15.05 0.24-17.34-0.54-34.67 0.12-52 0.31-5.99-0.55-11.97-0.23-17.95 0.24-4.33 0.11-8.67-0.06-12.99-0.28-6.02 0.54-12.01 0.27-18.02-0.71-12.34 0.1-24.69 0.11-37.03-0.44-12.63-0.39-25.27 0.03-37.9-0.33-13.02-0.81-26.05-0.11-39.07 0-11.67-0.39-23.33-0.04-35-0.62-10.35 0.47-20.7-0.22-31.04-0.3-12.97 0.5-25.94 0-38.91-0.42-8.01 0.7-16 0.21-24.01-0.6-9.33 0.17-18.68-0.23-28.02-0.3701-8.35 0.52-16.69 0.06-25.03-0.11-15.34 0.77-30.67-0.11-46 0.36-12.31 0.72-24.64 0.14-36.95 0.0301-18.02 0.2401-36.03-0.1799-54.04z" fill="#FBF176" stroke="#FBF176" stroke-width=".0938"/>
 <path d="m799.38 0h26.36c0.74 9.31-0.42 18.65 0.32 27.96 0.35 5.01-0.13 10.02-0.22 15.03 0.03 12.67 0.03 25.33 0.27 38-0.94 20.33 0.85 40.68-0.24 61.01 0.65 16.32-0.13 32.65 0.11 48.98-0.5 10.36 0.71 20.71-0.13 31.06-0.03 10.64 0.77 21.29 0.15 31.93-0.53 6.69 0.49 13.38-0.04 20.07 0.13 16-0.31 31.99 0.13 47.99-0.22 5.67-0.47 11.35-0.1 17.02-0.38 22.32 0.34 44.63 0.07 66.95-0.47 6.99 0.19 13.99 0.1 20.98 0.26 15.68-0.5699 31.34-0.31 47.02 0.35 6.67 0.53 13.36 0.08 20.04 0.49 24.65-0.56 49.29 0.25 73.94-0.25 11-0.41 22.01-0.11 33.01 0.36 11.34-0.53 22.67-0.13 34.01 0.58 7.03-0.32 14.06-0.01 21.1-0.13 7.64 0.52 15.27 0.18 22.91-0.47 8.33 0.53 16.66-0.07 24.99-0.62 7 0.4 14.02-0.12 21.03-0.4 5.65 0.43 11.29 0.21 16.95-0.51 17.36-0.31 34.72-0.06 52.08 0.37 13.63-0.26 27.28 0.06 40.92-0.53 7.34 0.38 14.68-0.17 22.02-0.4901 8.01 0.53 16 0.25 24.01 0.19 13.68-0.81 27.34-0.21 41.01 0.1 7.66-0.35 15.33 0.1 22.99 0.46 6.99-0.64 13.98-0.11 20.98 0.59 7.66-0.12 15.34-0.22 23.01 0.12 14.36 0.62 28.72 0.09 43.07 0.61 8.3-0.5 16.6 0.13 24.9 0.5 7.67-0.43 15.36 0.34 23.03h-27.29c0.19-8.33-0.67-16.66 0.2401-24.96 0.47-6.7001-1.04-13.36-0.4901-20.06 0.2401-3.33 0.4-6.66 0.13-9.98-0.89-13.99 0.73-28.01-0.27-41.99 0.31-6.34 0.35-12.67 0.08-19 0.81-11 0.8-22.04 0.19-33.04-0.31-8 0.5-16-0.07-23.98-0.29-5 0.84-9.97 0.32-14.96-0.68-6.66-0.64-13.36-0.2-20.03 0.67-9.65-0.96-19.31 0.1801-28.94-0.48-10.68-0.42-21.38 0.1-32.05-0.96-19.33 0.16-38.7-0.4-58.03 0.85-20.64-0.86-41.31 0.15-61.95-0.95-15.35 0.61-30.7-0.1-46.05-0.6-13.02 0.29-26.04-0.05-39.06-0.21-6.98 0.19-13.96 0.4-20.93-0.58-15.99-0.77-32-0.36-48 0.22-13-0.71-26.02 0.11-39.01-0.31-7.65 0.55-15.31-0.31-22.94 0.14-8.68 0.06-17.38 0.49-26.06-0.4-14.67-1.05-29.38 0.1-44.03-0.08-7.29-1.15-14.58-0.3-21.87-0.18-9.68-0.36-19.38 0.06-29.06 0.84-6.34-0.57-12.67-0.35-19.02 0.8-17.32-0.77-34.68 0.37-52 0.2-4.33-0.63-8.64-0.3-12.97 0.24-3.31 0.52-6.64 0.27-9.96-0.47-5.69 0.74-11.37 0.1-17.06-0.55-5.33 0.3-10.68-0.26-16-0.8-6.66 0.9-13.29 0.18-19.94-0.64-7-0.45-14.04-0.02-21.04 0-9.69-0.4901-19.4 0.1-29.08-0.9-7.99 0.21-16-0.32-24 0.57-7.34-0.57-14.67 0.06-21.99 0.5-5.32-0.53-10.64 0.08-15.94 0.89-7.36-0.88-14.71 0-22.07-0.66-17 0.08-34.01-0.15-51 1.0099-7.3098-0.8001-14.67 0.5799-21.95z" fill="#fff" stroke="#fff" stroke-width=".0938"/>
 <path d="m825.74 0h62.14c-0.37 8.67 0.49 17.33 0.36 26.01-0.09 13.35 0.17 26.7-0.41 40.05-0.29 7.97 0.45 15.95 0.03 23.92-0.49 14.02 0.55 28.04-0.05 42.05-0.2 288.99-0.15 577.99-0.22 866.98 0.49 7.23-1.21 14.75 1.21 21.74l0.23 0.85c-2.33 4.5-4.95 8.85-7.28 13.35-0.55 0.99-1.1 1.99-1.63 3 3.12 0.02 6.25 0.0801 9.38 0.2201-0.56 5.61-0.8 11.24-0.34 16.87-0.15 8.3099-1.35 16.74 0.55 24.96h-63.38c-0.77-7.67 0.16-15.36-0.34-23.03-0.63-8.2999 0.48-16.6-0.13-24.9 0.53-14.35 0.03-28.71-0.09-43.07 0.1-7.67 0.81-15.35 0.22-23.01-0.53-7 0.57-13.99 0.11-20.98-0.45-7.66 0-15.33-0.1-22.99-0.6-13.67 0.4-27.33 0.21-41.01 0.28-8.01-0.7401-16-0.25-24.01 0.55-7.34-0.36-14.68 0.17-22.02-0.32-13.64 0.31-27.29-0.06-40.92-0.25-17.36-0.45-34.72 0.06-52.08 0.22-5.66-0.61-11.3-0.21-16.95 0.52-7.01-0.5-14.03 0.12-21.03 0.6-8.33-0.4-16.66 0.07-24.99 0.34-7.64-0.31-15.27-0.18-22.91-0.31-7.04 0.59-14.07 0.01-21.1-0.4-11.34 0.49-22.67 0.13-34.01-0.3-11-0.14-22.01 0.11-33.01-0.81-24.65 0.24-49.29-0.25-73.94 0.45-6.68 0.27-13.37-0.08-20.04-0.2599-15.68 0.57-31.34 0.31-47.02 0.09-6.99-0.5699-13.99-0.1-20.98 0.27-22.32-0.45-44.63-0.07-66.95-0.37-5.67-0.12-11.35 0.1-17.02-0.44-16 0-31.99-0.13-47.99 0.53-6.69-0.4901-13.38 0.04-20.07 0.62-10.64-0.18-21.29-0.15-31.93 0.84-10.35-0.37-20.7 0.13-31.06-0.24-16.33 0.54-32.66-0.11-48.98 1.09-20.33-0.7-40.68 0.24-61.01-0.24-12.67-0.24-25.33-0.27-38 0.09-5.01 0.5699-10.02 0.22-15.03-0.74-9.3102 0.42-18.65-0.32-27.96z" fill="#FBF176" stroke="#FBF176" stroke-width=".0938"/>
 <path d="m887.88 0h1.31c0.24 108-0.29 215.99-0.19 323.99 0.08 8.92-0.19 17.85 0.12 26.77 0.23 113.09-0.24 226.19-0.15 339.29 0.02 1.85 0.1201 3.71 0.2401 5.57 0 104.78-0.33 209.56-0.28 314.35 0.01 3.59-0.11 7.1801-0.13 10.78-2.42-6.99-0.72-14.51-1.21-21.74 0.0699-288.99 0.02-577.99 0.22-866.98 0.6-14.01-0.44-28.03 0.05-42.05 0.42-7.97-0.32-15.95-0.03-23.92 0.58-13.35 0.32-26.7 0.41-40.05 0.1299-8.68-0.7301-17.34-0.3601-26.01z" fill="#DEF6AC" stroke="#DEF6AC" stroke-width=".0938"/>
 <path d="m1244.5 69.49c12.18-13.49 32.71-17.89 49.6-11.62 10.34 3.97 19.19 11.67 24.45 21.43 4.12 7.36 5.3201 15.86 5.61 24.17 6.77 2.35 13.05 7.39 14.89 14.58 2.67 8.61-0.97 18.57-8.59 23.38-5.2 3.94-11.98 3.6-18.09 2.88-0.62 2.6-1.2001 5.2-1.89 7.78-4.24 9.84-11.93 18.34-21.91 22.51-7.9299 3.7-16.88 3.7-25.39 2.67-6.09 14.38-15.92 27.19-28.67 36.27-14.06 10.16-31.45 15.62-48.8 15.33-21.38 0.12-42.6-8.86-57.57-24.09-1.99-1.92-3.5601-4.42-6.0901-5.64-3.5499 1.24-6.6499 3.44-10.11 4.86-21.52 9.4-48.28 5.22-65.72-10.58-10.2-8.9-17.27-21.19-20.01-34.42-2.26-12.54-1.28-25.82 3.9401-37.52 9.2799-21.46 31.3-36.74 54.75-37.36 13.17-0.81 26.03 3.45 37.25 10.1 1.5199-1.5 3.0399-3 4.5599-4.52 10.85-11.38 24.95-19.78 40.3-23.35 23.74-5.94 49.77-0.33 69.31 14.31 2.62-3.8 5.03-7.77 8.18-11.17z" fill="#E6E6E6" stroke="#E6E6E6" stroke-width=".0938"/>
 <path d="m1656.1 178.1c24.95-0.07 49.9 0.11 74.86-0.09 1.99-0.04 4.01-0.08 6.05-0.08 17.32 0.26 34.64 0.24 51.96 0.04 2 0 4.03 0.03 6.0701 0.07 41.65 0.11 83.3 0.03 124.95 0.03v901.93h-206.78c-0.09-14.33-0.0699-28.67-0.03-43 0.0801-4.62 0.0801-9.25-0.3999-13.84-0.5601-4.73 0.2899-9.44 0.4199-14.15-0.01-29.01 0.02-58.02-0.02-87.03-0.83-9.66 0.3101-19.33-0.0399-29 0.51-7.34-1.0701-14.68 0.0499-21.98 0.3601-2.3-0.0499-4.59-0.6399-6.79 0.98-2.7401 2.1699-5.51 4.5-7.37 0.0499-1.89 0.09-3.77 0.11-5.63-4.02-2.69-3.8301-7.94-4.02-12.2 0.12-21.34 0.0599-42.68 0.03-64.02-0.64-5.56-0.4801-11.17 1.1799-16.54 0.35 0.34 1.0601 1.03 1.41 1.38 0.46-1.29 0.91-2.59 1.35-3.89 0.09-2.02 0.0601-4.04 0.0699-6.04-2.3999-0.2-4.7799-0.37-7.1599-0.22-0.16-25.21-0.03-50.42-0.0701-75.63-10.03 0.05-20.06-0.18-30.08 0.08 0.28-21.12 0.3199-42.24 0-63.36l0.02-0.83c-3.29-0.01-6.5801-0.04-9.84 0.15l-1.04 0.08c-0.3 20.91 0.33 41.84-0.28 62.75-3.98-0.16-7.98-0.05-11.81 1.1l-1.02 0.04c-0.0601-0.84-0.1901-2.51-0.26-3.35 1-11.21 0.34-22.48 0.53-33.72 0.13-28.01-0.3101-56.01 0-84.02-0.4801-16.83 0.4199-33.67-0.39-50.5 0.6699-10.15 0.22-20.33 0.33-30.49-0.01-28.65 0.0601-57.3-0.08-85.95 0.0699-19.86 0.2899-39.75-0.27-59.59 0.72-21.14 0.13-42.3 0.3199-63.44 0.02-28.3-0.21-56.6 0.02-84.9m13.89 25.9c0 33.33-0.01 66.66 0 99.99 3.3199 0.01 6.65 0.01 9.99 0.01 0.02-33.34 0.01-66.67 0.01-100h-10m52 0c0.01 33.33-0.02 66.67 0.01 100 3.3199 0 6.64 0 9.98-0.01 0.01-33.33 0.02-66.66 0-99.99h-9.99m52 0c0.01 33.33-0.01 66.67 0.01 100h9.98c0.01-33.33 0.01-66.66 0-99.99-3.34-0.01-6.6701-0.01-9.99-0.01m52 0c0 33.33-0.01 66.66 0 99.99 3.3199 0.01 6.65 0.01 10 0-0.01-33.33 0.01-66.66-0.01-99.99h-9.99m52 0c0 33.33-0.01 66.67 0.01 100 3.3099 0 6.64 0 9.99-0.01v-99.99h-10m-208 132c-0.01 33.34 0 66.67 0 100h9.99c0.01-33.33 0.01-66.66 0.01-99.99-3.34-0.01-6.6801-0.01-10-0.01m52.01 0c-0.02 33.33 0 66.67-0.01 100h9.98c0.04-33.33 0.02-66.66 0.01-99.99-3.34-0.01-6.66-0.01-9.98-0.01m52 0c-0.02 33.33-0.01 66.67-0.01 100h10v-99.99c-3.35-0.01-6.6801-0.01-9.99-0.01m52 0c-0.02 33.33-0.01 66.67-0.01 100h10v-99.99c-3.35-0.01-6.6801-0.01-9.99-0.01m52 0c-0.02 33.33-0.01 66.67-0.01 100h9.99c0.01-33.33 0.01-66.67 0-100h-9.98m-208 133.01c-0.05 33.33-0.03 66.65 0 99.98 3.3099 0.03 6.64 0.04 9.98 0.02 0.04-33.34 0.03-66.67 0.01-100.01-3.34-0.03-6.67-0.02-9.99 0.01m51.99-0.01c-0.03 33.34-0.02 66.68 0 100.01 3.3199 0.01 6.65 0.01 9.99 0.01 0.04-33.34 0.03-66.68 0.01-100.02-3.34-0.03-6.6801-0.03-10 0m52.01 0.01c-0.04 33.33-0.05 66.66 0 99.99 3.3199 0.02 6.65 0.03 9.98 0.01 0.04-33.34 0.04-66.67 0.01-100.01-3.34-0.03-6.67-0.03-9.99 0.01m51.99-0.01c-0.02 33.34-0.02 66.67-0.01 100.01 3.33 0.01 6.66 0.01 10.01 0 0.01-33.33 0-66.66 0-99.99-3.34-0.04-6.6801-0.05-10-0.02m52.01 0.01c-0.05 33.33-0.03 66.65-0.01 99.97 3.3199 0.04 6.65 0.05 10 0.03 0.02-33.34 0.02-66.68 0-100.01-3.34-0.03-6.67-0.02-9.99 0.01m-155.99 140.99c-0.04 33.33-0.02 66.66-0.01 99.99 3.3099 0 6.64 0.01 9.98 0.01 0.02-33.33 0.01-66.67 0.01-100h-9.98m52 0c-0.03 33.33-0.05 66.66 0.01 99.99 3.3099 0.01 6.63 0.01 9.97 0v-99.99c-3.34 0-6.67-0.01-9.98 0m51.98 0c0 33.33-0.01 66.66 0.01 99.99 3.3099 0.01 6.64 0.01 9.98 0.01 0.02-33.33 0-66.67 0.01-100h-10m52.01 0.01c-0.02 33.32-0.01 66.64 0 99.96 3.3199 0.03 6.65 0.03 9.99 0.03v-99.99c-3.34-0.02-6.67-0.02-9.99 0m-155.98 156.01c-0.0601 33.31-0.02 66.63-0.02 99.95 3.3199 0.02 6.65 0.03 9.99 0.03v-100c-3.34-0.01-6.66-0.01-9.97 0.02m51.98 0c-0.01 33.32-0.03 66.64 0.01 99.96 3.3099 0.02 6.63 0.02 9.97 0.02 0.02-33.33 0.01-66.66 0-99.99-3.34-0.02-6.66-0.02-9.98 0.01m52 0.05c0.03 33.29-0.22 66.59 0.05 99.89 3.3099-0.01 6.6399-0.02 9.98-0.01-0.04-33.32-0.05-66.65-0.01-99.97-3.3499-0.01-6.69 0.03-10.02 0.09m52.01-0.06c-0.04 33.32-0.02 66.64-0.01 99.96 3.3099 0.02 6.64 0.03 9.97 0.03 0.03-33.33 0.03-66.67 0.01-100-3.34-0.01-6.66-0.01-9.97 0.01m-156 155.99c-0.04 33.33-0.03 66.67-0.01 100 3.3199-0.01 6.65-0.01 9.99 0v-100c-3.34-0.01-6.66-0.01-9.98 0m52 0c-0.03 33.33-0.05 66.66 0.01 99.99 3.3099 0.01 6.63 0 9.97 0.01 0.01-33.33 0-66.66 0-99.99-3.34-0.02-6.66-0.02-9.98-0.01m51.99 0c-0.02 33.33-0.01 66.66-0.01 99.99 3.3199 0 6.65 0 10 0.01v-100c-3.34-0.01-6.67-0.01-9.99 0m52.01 0.01c-0.04 33.32-0.02 66.64-0.01 99.96 3.3099 0.02 6.64 0.03 9.99 0.03v-100c-3.34-0.01-6.67-0.01-9.98 0.01z" fill="#998675" stroke="#998675" stroke-width=".0938"/>
 <path d="m1670 204h10c0 33.33 0.01 66.66-0.01 100-3.34 0-6.67 0-9.99-0.01-0.01-33.33 0-66.66 0-99.99m0.22 0.22c-0.02 33.19-0.03 66.38 0.01 99.57 3.17 0.01 6.35 0 9.55-0.02 0-33.18-0.01-66.35 0-99.53-3.2-0.03-6.39-0.04-9.56-0.02z" fill="#E6E6E6" stroke="#E6E6E6" stroke-width=".0938"/>
 <path d="m1722 204h9.99c0.02 33.33 0.01 66.66 0 99.99-3.34 0.01-6.66 0.01-9.98 0.01-0.03-33.33 0-66.67-0.01-100m0.23 0.26c-0.03 33.17-0.03 66.35 0 99.53 3.17 0.01 6.35 0.01 9.54 0 0.0599-33.19 0.02-66.39 0.02-99.59-3.2 0-6.39 0.01-9.56 0.06z" fill="#E6E6E6" stroke="#E6E6E6" stroke-width=".0938"/>
 <path d="m1774 204c3.3199 0 6.65 0 9.99 0.01 0.01 33.33 0.01 66.66 0 99.99h-9.98c-0.02-33.33 0-66.67-0.01-100m0.24 0.23c-0.0599 33.19-0.04 66.37-0.01 99.56 3.1801 0.01 6.36 0.01 9.5601-0.01 0.01-33.17 0.0499-66.35-0.01-99.52-3.2001-0.05-6.3801-0.06-9.5401-0.03z" fill="#E6E6E6" stroke="#E6E6E6" stroke-width=".0938"/>
 <path d="m1826 204h9.99c0.02 33.33 0 66.66 0.01 99.99-3.35 0.01-6.6801 0.01-10 0-0.01-33.33 0-66.66 0-99.99m0.1801 0.23c0.0599 33.18 0.0099 66.36 0.0299 99.54 3.17 0.02 6.36 0.03 9.5601 0.02 0.03-33.19 0.04-66.38 0-99.56-3.21-0.03-6.4101-0.02-9.59 0z" fill="#E6E6E6" stroke="#E6E6E6" stroke-width=".0938"/>
 <path d="m1878 204h10v99.99c-3.35 0.01-6.6801 0.01-9.99 0.01-0.02-33.33-0.01-66.67-0.01-100m0.21 0.23c-0.01 33.18-0.01 66.36 0 99.55 3.17 0.01 6.3501 0.02 9.55 0.01 0.03-33.19 0.02-66.37 0.01-99.56-3.2001-0.03-6.38-0.03-9.56 0z" fill="#E6E6E6" stroke="#E6E6E6" stroke-width=".0938"/>
 <path d="m1670.2 204.22c3.17-0.02 6.36-0.01 9.5601 0.02-0.01 33.18 0 66.35 0 99.53-3.2001 0.02-6.38 0.03-9.55 0.02-0.0402-33.19-0.0301-66.38-0.0101-99.57z" fill="#FEF568" stroke="#FEF568" stroke-width=".0938"/>
 <path d="m1722.2 204.26c3.17-0.05 6.36-0.06 9.5601-0.06 0 33.2 0.0399 66.4-0.02 99.59-3.1901 0.01-6.37 0.01-9.54 0-0.0301-33.18-0.0301-66.36-1e-4 -99.53z" fill="#FFF568" stroke="#FFF568" stroke-width=".0938"/>
 <path d="m1774.2 204.23c3.16-0.03 6.34-0.02 9.54 0.03 0.0599 33.17 0.02 66.35 0.01 99.52-3.2001 0.02-6.38 0.02-9.5601 0.01-0.0299-33.19-0.0498-66.37 0.0101-99.56z" fill="#FEF568" stroke="#FEF568" stroke-width=".0938"/>
 <path d="m1826.2 204.23c3.1799-0.02 6.38-0.03 9.59 0 0.04 33.18 0.03 66.37 0 99.56-3.2001 0.01-6.39 0-9.5601-0.02-0.0201-33.18 0.03-66.36-0.0299-99.54z" fill="#FEF568" stroke="#FEF568" stroke-width=".0938"/>
 <path d="m1878.2 204.23c3.1801-0.03 6.36-0.03 9.5601 0 0.01 33.19 0.02 66.37-0.01 99.56-3.2 0.01-6.38 0-9.55-0.01-0.0101-33.19-0.0101-66.37-1e-4 -99.55z" fill="#FEF568" stroke="#FEF568" stroke-width=".0938"/>
 <path d="m1670 336c3.3199 0 6.66 0 10 0.01 0 33.33 0 66.66-0.01 99.99h-9.99c0-33.33-0.01-66.66 0-100m0.21 0.23c0 33.16-0.02 66.33 0.01 99.5 3.17 0.04 6.36 0.06 9.55 0.06 0-33.2 0.03-66.39-0.01-99.58-3.1999-0.01-6.38-0.01-9.55 0.02z" fill="#E6E6E6" stroke="#E6E6E6" stroke-width=".0938"/>
 <path d="m1722 336c3.3199 0 6.64 0 9.98 0.01 0.01 33.33 0.03 66.66-0.01 99.99h-9.98c0.01-33.33-0.01-66.67 0.01-100m0.21 0.22c0 33.17-0.0499 66.35 0.02 99.53 3.17 0.03 6.35 0.05 9.55 0.04 0.02-33.19 0.01-66.37 0.01-99.56-3.21-0.03-6.4-0.04-9.58-0.01z" fill="#E6E6E6" stroke="#E6E6E6" stroke-width=".0938"/>
 <path d="m1774 336c3.3099 0 6.64 0 9.99 0.01v99.99h-10c0-33.33-0.01-66.67 0.01-100m0.21 0.22c-0.01 33.17-0.0399 66.35 0.01 99.53 3.17 0.03 6.34 0.03 9.53 0.01 0.1-33.18 0.03-66.36 0.03-99.54-3.2-0.02-6.39-0.02-9.57 0z" fill="#E6E6E6" stroke="#E6E6E6" stroke-width=".0938"/>
 <path d="m1826 336c3.3099 0 6.64 0 9.99 0.01v99.99h-10c0-33.33-0.01-66.67 0.01-100m0.22 0.21c-0.0699 33.19 0.03 66.37-0.0599 99.56 3.1899 0.02 6.39 0.02 9.6 0 0.03-33.19 0.03-66.37 0-99.55-3.1901-0.02-6.3701-0.02-9.5401-0.01z" fill="#E6E6E6" stroke="#E6E6E6" stroke-width=".0938"/>
 <path d="m1878 336h9.98c0.01 33.33 0.01 66.67 0 100h-9.99c0-33.33-0.01-66.67 0.01-100m0.21 0.22c-0.01 33.17-0.0399 66.34 0.01 99.51 3.17 0.04 6.35 0.06 9.54 0.06 0-33.19 0.03-66.39-0.01-99.58-3.1901-0.01-6.37-0.01-9.54 0.01z" fill="#E6E6E6" stroke="#E6E6E6" stroke-width=".0938"/>
 <path d="m1670.2 336.23c3.17-0.03 6.3501-0.03 9.55-0.02 0.04 33.19 0.01 66.38 0.01 99.58-3.1901 0-6.38-0.02-9.55-0.06-0.0301-33.17-0.01-66.34-0.01-99.5z" fill="#FEF568" stroke="#FEF568" stroke-width=".0938"/>
 <path d="m1722.2 336.22c3.1801-0.03 6.37-0.02 9.5801 0.01 0 33.19 0.01 66.37-0.01 99.56-3.2001 0.01-6.38-0.01-9.55-0.04-0.0701-33.18-0.0201-66.36-0.0201-99.53z" fill="#FFF568" stroke="#FFF568" stroke-width=".0938"/>
 <path d="m1774.2 336.22c3.1801-0.02 6.37-0.02 9.5701 0 0 33.18 0.0699 66.36-0.03 99.54-3.1901 0.02-6.36 0.02-9.53-0.01-0.05-33.18-0.0201-66.36-0.0101-99.53z" fill="#FEF568" stroke="#FEF568" stroke-width=".0938"/>
 <path d="m1826.2 336.21c3.17-0.01 6.35-0.01 9.54 0.01 0.03 33.18 0.03 66.36 0 99.55-3.21 0.02-6.41 0.02-9.6 0 0.09-33.19-0.01-66.37 0.06-99.56z" fill="#FEF568" stroke="#FEF568" stroke-width=".0938"/>
 <path d="m1878.2 336.22c3.17-0.02 6.35-0.02 9.54-0.01 0.04 33.19 0.01 66.39 0.01 99.58-3.1901 0-6.37-0.02-9.54-0.06-0.0499-33.17-0.02-66.34-0.01-99.51z" fill="#FEF568" stroke="#FEF568" stroke-width=".0938"/>
 <path d="m1297.7 391.37c3.3501-5.66 6.89-11.21 10.79-16.5 0.25 0.39 0.74 1.18 0.99 1.57-0.6899 4.9-0.58 9.86-0.92 14.78-2.2599-0.03-4.49-0.08-6.72-0.01l-0.98 0.05c-0.79 0.02-2.37 0.08-3.16 0.11z" fill="#8A8C8E" stroke="#8A8C8E" stroke-width=".0938"/>
 <path d="m1308.6 391.22c0.3401-4.92 0.2301-9.88 0.92-14.78 2.95 4.66 5.99 9.27 9.17 13.78-0.89 0.37-1.75 0.76-2.6 1.15 0.0399 2.92 0.0499 5.85 0.0199 8.77l-1.13-0.04c-0.0199-3.03-0.0299-6.05-0.0399-9.07-1.9701 0-3.9401-0.01-5.89-0.01-0.0701 2.96-0.13 5.92-0.15 8.88l-0.78-0.01c0.1101-2.89 0.2501-5.78 0.48-8.67z" fill="#666668" stroke="#666668" stroke-width=".0938"/>
 <path d="m1300.9 391.26l0.98-0.05c-0.01 2.9 0 5.8 0.04 8.71 2.0499-0.02 4.12-0.04 6.2-0.03l0.78 0.01c2.01 0.04 4.04 0.12 6.08 0.2l1.13 0.04c-0.0699 3.91-0.0199 7.82-0.0399 11.74-0.04 1.64-0.0601 3.29-0.05 4.94-5.13 0.26-10.32 0.53-15.37-0.6 0.7699-8.31 0.44-16.64 0.2499-24.96z" fill="#80807F" stroke="#80807F" stroke-width=".0938"/>
 <path d="m1047.3 419.08c0.0601-0.86 0.17-1.71 0.3101-2.56 0.21 0.28 0.62 0.84 0.83 1.12-0.0599 220.78 0.2001 441.58-0.01 662.36h-0.5599c-0.3301-17.97 0.21-35.94-0.3-53.9-0.09-52.37-0.08-104.74-0.1-157.12-0.04-1.8-0.11-3.59-0.21-5.37 0.5299-24.19 0.0399-48.39 0.2-72.59 0-57.31-0.04-114.63-0.0601-171.95-0.1299-23.95 0.2301-47.9-0.22-71.84 0.51-24.05 0.0701-48.14 0.2101-72.2-0.0402-18.65 0.0598-37.3-0.0902-55.95z" fill="#ABA18B" stroke="#ABA18B" stroke-width=".0938"/>
 <path d="m1048.5 417.64c89.17-0.14 178.34 0.12 267.5-0.15 6.63 0.11 13.26 0.14 19.9 0.01 0.96 6.79 0.42 13.66 0.54 20.5 0.0199 68.67-0.04 137.33-0.04 206 0.2 10.12-0.5 20.28 0.39 30.38 1.08 9.18 0.26 18.44 0.51 27.66-0.23 15.97 0.47 31.97-0.37 47.92-0.1 2-0.1 4.02 0.01 6.04 0.83 15.97 0.13 31.98 0.36 47.98-0.22 15.68 0.47 31.39-0.39 47.06-0.1 2.05-0.0601 4.1 0.09 6.16 0.9 10.59 0.24 21.22 0.4401 31.84 0.0199 63.65-0.0601 127.3 0.0399 190.96h-26.88c-0.48-2.3199-0.61-4.6801-0.5499-7.02-0.04-201.66 0.0499-403.32-0.0601-604.97-0.36-8.65 0.62-17.31-0.1899-25.93l-0.0901-0.71c-4.5199-0.24-9.0299-0.05-13.53 0.06-0.98 9.49-0.27 19.05-0.4701 28.58 0.0801 203.33-0.1299 406.66 0.0901 609.99h-13.51c0.26-107.99 0-215.98 0.13-323.97-0.05-94.66-0.01-189.32-0.02-283.97-0.24-10.32 0.61-20.68-0.5699-30.96-4.89-0.12-9.78-0.04-14.66 0.27-0.02 212.87 0.1 425.75-0.05 638.63h-15.23c0.45-23.33-0.1899-46.66 0.1901-69.99-0.26-27 0.0299-53.99-0.0601-80.99 0.26-25.67-0.24-51.35-0.01-77.02-0.08-132.33 0.08-264.67 0-397 0.08-4.38-0.08-8.76-0.1899-13.13-4.2201 0.12-8.4401 0.24-12.65 0.3 0.08 12.96-0.15 25.92-0.29 38.89 0.5 18.33-0.26 36.66 0.3101 54.99 0.0299 5.32-0.38 10.64-0.1001 15.96 0.3301 7.33-0.5499 14.66-0.13 22 0.4301 6.33-0.34 12.65 0.04 18.98 0.5601 9.01-0.51 18.01-0.0499 27.02 0.6599 12.65-0.3401 25.3 0.1 37.95 0.47 9.34-0.4 18.68 0.08 28.02-0.28 41.01 0.13 82.02-0.1899 123.04 0.62 9.68-0.4 19.36 0.0199 29.06 0.5801 10.97-0.23 21.94-0.08 32.92 0.35 11.32 0.48 22.66 0.03 33.98 0.17 39.32 0.08 78.65-0.02 117.98 0.5601 12.67-0.4 25.35 0.16 38.03-0.01 6.33-0.4501 12.67 0.09 19.01h-14.86c0.16-210.99 0.01-421.98 0.08-632.97-0.02-1.42-0.0499-2.83-0.09-4.24-0.35-0.13-1.05-0.4-1.4-0.54-4.24-0.29-8.49-0.13-12.72-0.14-0.51 55.3-0.02 110.62-0.22 165.93 0.0299 157.32 0.01 314.64 0 471.96h-15.63c0.23-103.65 0.02-207.31 0.1-310.97-0.02-103.34 0-206.68 0-310.01 0.03-5.92 0.16-11.84-0.46-17.73-4.89-0.17-9.77-0.21-14.65-0.08-0.22 212.93 0.08 425.86-0.16 638.79h-16.29c0.3301-103.01-0.0699-206.03 0.13-309.04 0.26-26.67-0.5199-53.35 0.12-80.03-0.5599-38.64 0.0701-77.3-0.23-115.94 0.0801-18.33 0.1-36.65 0.0601-54.98 0.62-10-0.0801-20 0.11-30-0.37-15.95 0.11-31.9-0.16-47.85-4.24-0.21-8.49-0.28-12.73-0.09-0.05 12.99-0.45 25.97-0.02 38.95-0.5 49.01 0.14 98.01-0.1899 147.02 0.2999 106.33-0.15 212.65 0.1599 318.99-0.2899 44.32 0.0601 88.65-0.12 132.97h-16.09c0.4401-53.33-0.02-106.66 0.16-159.99 0.03-134.65-0.05-269.31 0.0699-403.97-0.47-24.69 0.28-49.38-0.25-74.06-4.24-0.09-8.48-0.11-12.7 0.26l-1.02 0.11c-0.95 10.85-0.13 21.76-0.4 32.63 0.05 201.67-0.1 403.35 0.0801 605.02h-7.53c0.14-210.65-0.01-421.31 0.0699-631.96-0.0499-1.92-0.13-3.84-0.2999-5.74l-1.1801-0.09c-4.23-0.2-8.47-0.1-12.7-0.09-0.52 25.28-0.11 50.57-0.2201 75.85-0.0403 187.34-0.0203 374.69-0.0203 562.03h-10.2c-1.74-3.37-0.4099-7.4301-0.6599-11.07 0.0399-67.32 0.1-134.63-0.0801-201.95 0.51-27.66-0.4299-55.32 0.17-82.97-0.37-52.64 0.14-105.3-0.1801-157.94 0.41-15.35 0.1-30.71 0.0701-46.06 0.5699-11.67-0.64-23.34 0-35 0.0499-20.01-0.36-40.02 0.13-60.02-0.6901-14.28 0.47-28.56-0.3501-42.84-4.2899-0.22-8.59-0.25-12.87-0.02 0.26 212.62-0.0699 425.25 0.14 637.87h-25.62c0.2102-220.78-0.0499-441.58 0.0101-662.36z" fill="#F78E55" stroke="#F78E55" stroke-width=".0938"/>
 <path d="m1179.3 441.21c4.88-0.13 9.76-0.09 14.65 0.08 0.62 5.89 0.49 11.81 0.46 17.73 0 103.33-0.02 206.67 0 310.01-0.08 103.66 0.13 207.32-0.1 310.97h-1.47c0.0699-212.62 0.0099-425.23 0.0299-637.85-4.25-0.03-8.48-0.05-12.71-0.07-0.05 212.64 0 425.28-0.03 637.92h-0.99c0.2401-212.93-0.0599-425.86 0.1601-638.79z" fill="#DE966E" stroke="#DE966E" stroke-width=".0938"/>
 <path d="m1267.2 441.37c4.88-0.31 9.77-0.39 14.66-0.27 1.1799 10.28 0.33 20.64 0.5699 30.96 0.01 94.65-0.03 189.31 0.02 283.97-0.13 107.99 0.13 215.98-0.13 323.97h-1.48c0.08-212.63 0.0399-425.25 0.0299-637.88-4.25-0.04-8.48-0.03-12.71 0.01-0.02 212.62 0.01 425.25-0.01 637.87h-1c0.1502-212.88 0.0302-425.76 0.0502-638.63z" fill="#DE966F" stroke="#DE966F" stroke-width=".0938"/>
 <path d="m1296.2 441.43c4.5-0.11 9.01-0.3 13.53-0.06l0.0901 0.71c-4.2101 0.01-8.41 0.04-12.6 0.09-0.05 212.61 0.0099 425.22-0.03 637.83h-1.37c-0.22-203.33-0.01-406.66-0.0901-609.99 0.2001-9.53-0.5098-19.09 0.4701-28.58z" fill="#D99775" stroke="#D99775" stroke-width=".0938"/>
 <path d="m1074 442.13c4.28-0.23 8.5801-0.2 12.87 0.02 0.8201 14.28-0.34 28.56 0.3501 42.84-0.49 20-0.0801 40.01-0.13 60.02-0.64 11.66 0.5699 23.33 0 35 0.0299 15.35 0.34 30.71-0.0701 46.06 0.3201 52.64-0.1899 105.3 0.1801 157.94-0.6 27.65 0.34 55.31-0.17 82.97 0.1801 67.32 0.12 134.63 0.0801 201.95 0.25 3.6399-1.0801 7.7 0.6599 11.07h-13.63c-0.2101-212.62 0.1199-425.25-0.1401-637.87z" fill="#fff" stroke="#fff" stroke-width=".0938"/>
 <path d="m1098.2 442.12c4.23-0.01 8.47-0.11 12.7 0.09-0.07 212.59 0.05 425.19-0.06 637.79h-12.88c0-187.34-0.02-374.69 0.0199-562.03 0.1101-25.28-0.2999-50.57 0.2201-75.85z" fill="#FFFFFE" stroke="#FFFFFE" stroke-width=".0938"/>
 <path d="m1110.9 442.21l1.1801 0.09c0.1699 1.9 0.25 3.82 0.2999 5.74-0.08 210.65 0.0701 421.31-0.0699 631.96h-1.47c0.1099-212.6-0.0101-425.2 0.0599-637.79z" fill="#D89874" stroke="#D89874" stroke-width=".0938"/>
 <path d="m1120.1 442.35l1.02-0.11c0.04 212.58 0.02 425.17 0.01 637.76h-1.35c-0.1801-201.67-0.03-403.35-0.0801-605.02 0.2701-10.87-0.5499-21.78 0.4001-32.63z" fill="#D89875" stroke="#D89875" stroke-width=".0938"/>
 <path d="m1121.1 442.24c4.22-0.37 8.46-0.35 12.7-0.26 0.53 24.68-0.22 49.37 0.25 74.06-0.12 134.66-0.0399 269.32-0.0699 403.97-0.1801 53.33 0.28 106.66-0.16 159.99h-12.71c0.0099-212.59 0.03-425.18-0.0101-637.76z" fill="#fff" stroke="#fff" stroke-width=".0938"/>
 <path d="m1150.1 442.07c4.24-0.19 8.49-0.12 12.73 0.09 0.27 15.95-0.21 31.9 0.16 47.85-0.1901 10 0.51 20-0.11 30 0.0399 18.33 0.02 36.65-0.0601 54.98 0.3 38.64-0.33 77.3 0.23 115.94-0.6399 26.68 0.14 53.36-0.12 80.03-0.2 103.01 0.2001 206.03-0.13 309.04h-12.87c0.1801-44.32-0.1699-88.65 0.12-132.97-0.3099-106.34 0.14-212.66-0.1599-318.99 0.33-49.01-0.3101-98.01 0.1899-147.02-0.4299-12.98-0.03-25.96 0.0201-38.95z" fill="#fff" stroke="#fff" stroke-width=".0938"/>
 <path d="m1180.1 442.08c4.23 0.02 8.46 0.04 12.71 0.07-0.02 212.62 0.04 425.23-0.0299 637.85h-12.71c0.03-212.64-0.02-425.28 0.03-637.92z" fill="#fff" stroke="#fff" stroke-width=".0938"/>
 <path d="m1210.1 442.11c4.23 0.01 8.48-0.15 12.72 0.14-0.0399 212.59 0.04 425.17-0.0399 637.75h-12.9c0.01-157.32 0.0299-314.64 0-471.96 0.1999-55.31-0.2901-110.63 0.2199-165.93z" fill="#FFFFFE" stroke="#FFFFFE" stroke-width=".0938"/>
 <path d="m1222.8 442.25c0.35 0.14 1.05 0.41 1.4 0.54 0.04 1.41 0.0699 2.82 0.09 4.24-0.0699 210.99 0.0801 421.98-0.08 632.97h-1.45c0.08-212.58 1e-4 -425.16 0.04-637.75z" fill="#D89874" stroke="#D89874" stroke-width=".0938"/>
 <path d="m1239.2 442.17c4.21-0.06 8.4299-0.18 12.65-0.3 0.11 4.37 0.2699 8.75 0.1899 13.13 0.08 132.33-0.08 264.67 0 397-0.23 25.67 0.27 51.35 0.01 77.02 0.09 27-0.2 53.99 0.0601 80.99-0.38 23.33 0.2599 46.66-0.1901 69.99h-12.75c-0.54-6.34-0.1-12.68-0.09-19.01-0.5601-12.68 0.4-25.36-0.16-38.03 0.1-39.33 0.1901-78.66 0.02-117.98 0.45-11.32 0.3199-22.66-0.03-33.98-0.15-10.98 0.66-21.95 0.08-32.92-0.4199-9.7 0.6001-19.38-0.0199-29.06 0.3199-41.02-0.0901-82.03 0.1899-123.04-0.48-9.34 0.39-18.68-0.08-28.02-0.4401-12.65 0.5599-25.3-0.1-37.95-0.4601-9.01 0.61-18.01 0.0499-27.02-0.38-6.33 0.39-12.65-0.04-18.98-0.4199-7.34 0.4601-14.67 0.13-22-0.2799-5.32 0.13-10.64 0.1001-15.96-0.5701-18.33 0.1899-36.66-0.3101-54.99 0.1402-12.97 0.3702-25.93 0.2902-38.89z" fill="#fff" stroke="#fff" stroke-width=".0938"/>
 <path d="m1268.1 442.13c4.23-0.04 8.46-0.05 12.71-0.01 0.01 212.63 0.05 425.25-0.0299 637.88h-12.69c0.02-212.62-0.01-425.25 0.01-637.87z" fill="#fff" stroke="#fff" stroke-width=".0938"/>
 <path d="m1297.2 442.17c4.1899-0.05 8.3899-0.08 12.6-0.09 0.8099 8.62-0.17 17.28 0.1899 25.93 0.11 201.65 0.02 403.31 0.0601 604.97-0.0601 2.34 0.0699 4.7001 0.5499 7.02h-13.43c0.0399-212.61-0.02-425.22 0.0301-637.83z" fill="#fff" stroke="#fff" stroke-width=".0938"/>
 <path d="m1670 469.01c3.3199-0.03 6.65-0.04 9.99-0.01 0.02 33.34 0.03 66.67-0.01 100.01-3.34 0.02-6.67 0.01-9.98-0.02-0.03-33.33-0.05-66.65 0-99.98m1.03 2.18c-0.23 24.27 0.01 48.55-0.0901 72.82 0.26 7.59-0.47 15.24 0.2301 22.8 2.34 1.23 5.08 0.81 7.6499 0.93 0.3101-32.49 0.17-64.98 0.0701-97.46-2.63 0.28-5.26 0.59-7.86 0.91z" fill="#FDF185" stroke="#FDF185" stroke-width=".0938"/>
 <path d="m1722 469c3.3199-0.03 6.66-0.03 10 0 0.02 33.34 0.03 66.68-0.01 100.02-3.34 0-6.67 0-9.99-0.01-0.02-33.33-0.03-66.67 0-100.01m1.13 2.13c-0.3101 26.29-0.09 52.59-0.12 78.88 0.0599 5.9-0.5 11.83 0.4 17.7 2.47-0.05 4.95-0.29 7.38-0.82 0.22-3.96 0.36-7.91 0.3199-11.86-0.2-28.3 0.22-56.61-0.24-84.91-2.6099 0.2-5.1898 0.5-7.7399 1.01z" fill="#FBF284" stroke="#FBF284" stroke-width=".0938"/>
 <path d="m1774 469.01c3.3199-0.04 6.65-0.04 9.99-0.01 0.03 33.34 0.03 66.67-0.01 100.01-3.33 0.02-6.66 0.01-9.98-0.01-0.05-33.33-0.04-66.66 0-99.99m1.09 1.9c-0.34 30.71 0.11 61.42-0.25 92.13-0.1 1.25 0.0601 2.47 0.5 3.65 2.12 1.49 4.8201 0.87 7.26 0.9 0.83-6.4901 0.38-13.05 0.49-19.57-0.1799-25.66 0.2001-51.32-0.1699-76.97-2.6102-0.43-5.2402-0.67-7.8301-0.14z" fill="#FCF184" stroke="#FCF184" stroke-width=".0938"/>
 <path d="m1826 469c3.3199-0.03 6.66-0.02 10 0.02 0 33.33 0.01 66.66 0 99.99-3.35 0.01-6.6801 0.01-10.01 0-0.01-33.34-0.01-66.67 0.01-100.01m0.85 5.03c0.22 21.98 0.04 43.98 0.12 65.97 0.1801 9.16-0.48 18.36 0.39 27.5 2.48 0.06 4.9501 0.15 7.4501 0.26 0.59-6.91 0.08-13.83 0.1899-20.75 0.11-16.01-0.02-32.03 0.05-48.04-0.17-9.53 0.3899-19.07-0.3401-28.57-2.9399-0.05-8.52-0.99-7.8599 3.63z" fill="#FCF185" stroke="#FCF185" stroke-width=".0938"/>
 <path d="m1878 469.01c3.3199-0.03 6.65-0.04 9.99-0.01 0.02 33.33 0.02 66.67 0 100.01-3.35 0.02-6.6801 0.01-10-0.03-0.02-33.32-0.04-66.64 0.01-99.97m1 2.12c-0.16 28.94 0.01 57.88-0.05 86.82 0.0901 2.92-0.59 6.01 0.39 8.83 2.25 1.28 4.98 0.78 7.48 1 0.37-32.49 0.0901-64.98 0.12-97.47-2.66 0.25-5.31 0.53-7.94 0.82z" fill="#FDF185" stroke="#FDF185" stroke-width=".0938"/>
 <path d="m1671 471.19c2.6-0.32 5.23-0.63 7.86-0.91 0.1 32.48 0.24 64.97-0.0701 97.46-2.5699-0.12-5.3099 0.3-7.6499-0.93-0.7001-7.56 0.0299-15.21-0.2301-22.8 0.1001-24.27-0.1398-48.55 0.0901-72.82z" fill="#FEF568" stroke="#FEF568" stroke-width=".0938"/>
 <path d="m1723.1 471.13c2.55-0.51 5.13-0.81 7.74-1.01 0.46 28.3 0.04 56.61 0.24 84.91 0.04 3.95-0.1 7.9-0.3199 11.86-2.4301 0.53-4.91 0.77-7.38 0.82-0.9-5.87-0.3401-11.8-0.4-17.7 0.0299-26.29-0.1902-52.59 0.1199-78.88z" fill="#FFF568" stroke="#FFF568" stroke-width=".0938"/>
 <path d="m1775.1 470.91c2.59-0.53 5.22-0.29 7.8301 0.14 0.37 25.65-0.01 51.31 0.1699 76.97-0.11 6.52 0.34 13.08-0.49 19.57-2.4399-0.03-5.14 0.59-7.26-0.9-0.4399-1.18-0.6-2.4-0.5-3.65 0.36-30.71-0.09-61.42 0.25-92.13z" fill="#FEF568" stroke="#FEF568" stroke-width=".0938"/>
 <path d="m1826.8 474.03c-0.66-4.62 4.92-3.68 7.86-3.63 0.73 9.5 0.17 19.04 0.3401 28.57-0.0701 16.01 0.0599 32.03-0.05 48.04-0.11 6.92 0.4 13.84-0.1899 20.75-2.5-0.11-4.9701-0.2-7.4501-0.26-0.87-9.14-0.21-18.34-0.39-27.5-0.0801-21.99 0.0998-43.99-0.1201-65.97z" fill="#FEF568" stroke="#FEF568" stroke-width=".0938"/>
 <path d="m1879 471.13c2.63-0.29 5.28-0.57 7.9399-0.82-0.0299 32.49 0.25 64.98-0.12 97.47-2.5-0.22-5.23 0.28-7.48-1-0.98-2.82-0.2999-5.91-0.39-8.83 0.0601-28.94-0.1099-57.88 0.0501-86.82z" fill="#FEF568" stroke="#FEF568" stroke-width=".0938"/>
 <path d="m196.71 498.23c3.75-0.29 7.5-0.47 11.26-0.42 81.13 0.14 162.26-0.19 243.37 0.16 0.53 0.04 1.57 0.13 2.09 0.17l0.2 0.01c8.67 1.89 17.58 0.47 26.36 0.86 9.41-0.39 18.92 0.88 28.25-0.74 8.8-0.58 17.66-0.3 26.47-0.18 1.67 0.35 3.32 0.79 4.99 1.23 0.03 2.58 0.08 5.16 0.13 7.74-114.31-0.13-228.63-0.05-342.95-0.04 0.05 28.98 0.05 57.96 0.08 86.94-0.08 7.82 0.25 15.65-0.29 23.46l-0.06-1.27c0.03-37.42-0.26-74.85 0.04-112.27 0.03-1.89 0.05-3.77 0.06-5.65z" fill="#8E8E8E" stroke="#8E8E8E" stroke-width=".0938"/>
 <path d="m453.63 498.15c11.45-0.43 22.91-0.14 34.36-0.22 6.75 0.1 13.52-0.3 20.25 0.34-9.33 1.62-18.84 0.35-28.25 0.74-8.78-0.39-17.69 1.03-26.36-0.86z" fill="#939071" stroke="#939071" stroke-width=".0938"/>
 <path d="m534.71 498.09c2.11-0.09 4.24-0.15 6.36-0.19-0.01 3.05-0.12 6.11-0.26 9.17l-0.98-0.01c-0.05-2.58-0.1-5.16-0.13-7.74-1.67-0.44-3.32-0.88-4.99-1.23z" fill="#96906B" stroke="#96906B" stroke-width=".0938"/>
 <path d="m541.07 497.9c-0.07 5.93 4.99 10.29 4.89 16.14 0.2599 188.64-0.17 377.31 0.22 565.96h-5.5c-0.06-170.65 0-341.32-0.03-511.98 0.36-6.7 0.18-13.4-0.03-20.09 0.16-13.62-0.19-27.24 0.19-40.86 0.14-3.06 0.25-6.12 0.26-9.17z" fill="#ECE370" stroke="#ECE370" stroke-width=".0938"/>
 <path d="m196.88 507.02c114.32-0.01 228.64-0.09 342.95 0.04l0.98 0.01c-0.38 13.62-0.03 27.24-0.19 40.86 0.21 6.69 0.39 13.39 0.03 20.09 0.03 170.66-0.03 341.33 0.03 511.98h-342.49c0.08-8.99-0.02-17.98 0.14-26.97 0.1-2.15-0.37-4.27-1.42-6.13l-0.09-0.5c0.72-19.09 0.14-38.22 0.32-57.33 0.01-102.72-0.02-205.44-0.02-308.16-0.4-10.63 0.22-21.26-0.27-31.89 0.22-10.54 0.36-21.07-0.18-31.6 0.54-7.81 0.21-15.64 0.29-23.46-0.03-28.98-0.03-57.96-0.08-86.94m18.23 25.05c-0.22 8.28-0.21 16.56-0.01 24.83 4.95 0.15 9.9 0.14 14.85 0.06 0.1-8.3 0.03-16.59 0.06-24.88-4.97-0.14-9.94-0.13-14.9-0.01m48.89-0.01c-0.01 8.3-0.01 16.6 0 24.9 4.98 0.09 9.95 0.05 14.93-0.03 0.12-8.28 0.1-16.57 0.01-24.86-4.98-0.11-9.96-0.12-14.94-0.01m49.06 0c-0.11 8.29-0.09 16.58-0.01 24.88 4.97 0.06 9.95 0.08 14.92 0.05 0.03-8.32 0.05-16.64 0.01-24.97-4.98-0.05-9.95-0.03-14.92 0.04m48.98 0.01c-0.08 8.29-0.07 16.57 0.03 24.86 4.94 0.12 9.89 0.13 14.83 0.01 0.18-8.29 0.19-16.59 0.02-24.88-4.96-0.11-9.92-0.1-14.88 0.01m49.03-0.03c-0.12 8.3-0.16 16.61 0.04 24.91 4.95 0.07 9.91 0.07 14.86 0.03 0-8.32 0.09-16.63-0.06-24.94-4.94-0.08-9.89-0.07-14.84 0m48.99-0.01c-0.1 8.29-0.12 16.59 0.01 24.88 4.95 0.14 9.9 0.14 14.86 0.02 0.08-8.29 0.14-16.59-0.01-24.89-4.96-0.0799-9.91-0.0799-14.86-0.0099m48-0.01c-0.11 8.3-0.12 16.6 0.01 24.9 4.95 0.12 9.91 0.13 14.86 0 0.12-8.29 0.08-16.57 0.01-24.85-4.96-0.11-9.92-0.12-14.88-0.05m-292.01 50.99c-0.1 8.32-0.06 16.64-0.03 24.96 4.98 0.0601 9.97 0.05 14.95-0.0099 0.03-8.3 0.12-16.6-0.04-24.89-4.96-0.1201-9.92-0.1101-14.88-0.0601m49.01 0.07c-0.12 8.3-0.07 16.6-0.04 24.91 4.99 0.02 9.97 0.02 14.95 0 0.04-8.33 0.07-16.66 0-24.98-4.97-0.04-9.94-0.02-14.91 0.07m48.99-0.03c-0.11 8.3-0.04 16.61-0.03 24.92 4.99 0.05 9.99 0.0601 14.98-0.0099 0.01-8.31 0.1-16.62-0.04-24.93-4.97-0.0701-9.94-0.0501-14.91 0.0199m48.99 0.01c-0.07 8.3-0.05 16.6-0.01 24.9 4.98 0.05 9.95 0.07 14.93 0.02 0.05-8.32 0.07-16.63-0.01-24.95-4.97-0.07-9.94-0.04-14.91 0.03m49-0.03c-0.09 8.31-0.06 16.63-0.01 24.94 4.98 0.0601 9.97 0.07 14.96 0-0.01-8.3199 0.06-16.63-0.04-24.94-4.97-0.06-9.94-0.05-14.91 0m49 0.02c-0.09 8.3-0.04 16.61-0.03 24.92 4.98 0.05 9.97 0.05 14.96 0.01 0.04-8.32 0.07-16.63-0.02-24.94-4.97-0.06-9.94-0.07-14.91 0.01m48.01-0.02c-0.11 8.3-0.04 16.61-0.04 24.92 4.99 0.08 9.98 0.08 14.98 0.02 0.01-8.31 0.04-16.62-0.01-24.92-4.98-0.07-9.96-0.07-14.93-0.02m-293.96 83.01c-0.11 8.29-0.24 16.58-0.01 24.88 4.95 0.13 9.89 0.12 14.84 0.03 0.14-8.28 0.1-16.57 0.01-24.86-4.95-0.13-9.89-0.14-14.84-0.05m48.96-0.04c-0.1 8.32-0.06 16.64-0.02 24.97 4.98 0.05 9.95 0.02 14.93-0.02 0.1-8.3 0.06-16.6-0.04-24.89-4.96-0.08-9.92-0.08-14.87-0.06m49.06 0.07c-0.18 8.29-0.13 16.59-0.05 24.89 4.97 0.11 9.94 0.08 14.91 0.0099 0.09-8.3 0.01-16.61 0.03-24.91-4.97-0.1099-9.93-0.1099-14.89 0.0101m48.95 0.03c-0.15 8.27-0.07 16.54 0 24.81 4.95 0.14 9.92 0.15 14.88 0.01 0.15-8.29 0.14-16.59-0.03-24.87-4.95-0.11-9.9-0.1-14.85 0.05m49-0.02c-0.11 8.28-0.11 16.57 0.01 24.86 4.96 0.1 9.93 0.1 14.9-0.01 0.01-8.3 0.08-16.59-0.03-24.88-4.96-0.09-9.92-0.09-14.88 0.03m48.99-0.03c-0.04 8.29-0.12 16.59 0.02 24.88 4.96 0.12 9.92 0.13 14.89-0.03 0.09-8.29 0.05-16.58-0.02-24.86-4.96-0.07-9.93-0.07-14.89 0.01m47.99 0.02c-0.1 8.28-0.06 16.57 0.01 24.85 4.96 0.14 9.92 0.12 14.88 0.03 0.15-8.3 0.07-16.6 0.01-24.89-4.97-0.11-9.94-0.11-14.9 0.01m-292.02 50.94c-0.04 8.33-0.05 16.65 0 24.98 4.97 0.04 9.94 0.04 14.91-0.07 0.06-8.3 0.16-16.59-0.02-24.88-4.96-0.03-9.92-0.05-14.89-0.03m49.01 0.02c-0.07 8.3-0.04 16.6 0.02 24.9 4.97 0.1 9.94 0.11 14.91 0.04 0.07-8.3199 0.06-16.64 0.02-24.95-4.99-0.05-9.97-0.07-14.95 0.01m49.04 0.04c-0.12 8.29-0.09 16.58 0 24.87 4.95 0.09 9.91 0.09 14.86 0 0.16-8.29 0.16-16.58 0-24.86-4.96-0.14-9.91-0.14-14.86-0.01m48.99-0.01c-0.08 8.28-0.11 16.57-0.01 24.85 4.97 0.14 9.94 0.14 14.91 0.02 0.02-8.3 0.09-16.59-0.02-24.88-4.96-0.09-9.93-0.09-14.88 0.01m49.04-0.02c-0.16 8.3-0.15 16.61-0.02 24.92 4.95 0.07 9.91 0.07 14.87-0.02 0.05-8.29 0.13-16.59-0.03-24.87-4.94-0.12-9.89-0.12-14.82-0.03m48.96 0.06c-0.11 8.28-0.1 16.56 0.01 24.84 4.96 0.09 9.92 0.09 14.89-0.01 0.08-8.29 0.08-16.59-0.02-24.88-4.96-0.11-9.92-0.09-14.88 0.05m48-0.02c-0.14 8.29-0.08 16.57-0.01 24.86 4.96 0.09 9.92 0.08 14.89 0 0.08-8.28 0.13-16.57-0.01-24.85-4.95-0.14-9.91-0.14-14.87-0.01m-294.06 82.96c-0.03 8.3-0.08 16.6 0.03 24.9 4.97 0.11 9.95 0.12 14.93-0.02 0.08-8.3 0.05-16.59 0.02-24.89-4.99-0.08-9.99-0.07-14.98 0.01m49.03-0.02c-0.08 8.31-0.03 16.62-0.01 24.94 4.97 0.08 9.95 0.11 14.93-0.04 0.1-8.3 0.07-16.6 0.02-24.9-4.98-0.05-9.96-0.05-14.94 0m48.99 0.02c-0.06 8.29-0.04 16.59 0.02 24.88 4.98 0.15 9.96 0.13 14.93 0.05 0.05-8.31 0.03-16.62 0.02-24.92-4.99-0.08-9.98-0.09-14.97-0.01m49.02-0.02c-0.06 8.31-0.08 16.63 0.02 24.95 4.96 0.05 9.93 0.07 14.9-0.0099 0.13-8.31 0.06-16.63 0.04-24.94-4.99-0.0501-9.98-0.0401-14.96-1e-4m48.98 0.01c-0.02 8.29-0.08 16.59 0.04 24.89 4.96 0.14 9.92 0.11 14.88 0.05 0.11-8.3199 0.05-16.63 0.04-24.94-4.99-0.0601-9.98-0.0501-14.96-1e-4m49 0.01c-0.02 8.3-0.08 16.61 0.03 24.92 4.98 0.06 9.95 0.07 14.93-0.01 0.06-8.31 0.03-16.61 0-24.92-4.99-0.06-9.98-0.06-14.96 0.01m48.01-0.02c-0.06 8.3-0.02 16.59-0.03 24.9 4.99 0.12 9.98 0.12 14.97 0.01 0.0601-8.3 0.04-16.6 0.01-24.89-4.99-0.08-9.97-0.07-14.95-0.02m-292.92 51.04c-0.21 8.29-0.22 16.59-0.03 24.89 4.95 0.1 9.91 0.09 14.87-0.05 0.07-8.29 0.1-16.57-0.01-24.86-4.94-0.08-9.89-0.11-14.83 0.02m48.92-0.05c-0.07 8.31-0.03 16.62-0.03 24.93 4.98 0.1 9.96 0.1 14.94 0 0.11-8.29 0.09-16.59 0-24.87-4.97-0.06-9.94-0.1-14.91-0.06m49.01 0.06c-0.05 8.29-0.1 16.58 0.03 24.87 4.97 0.08 9.94 0.09 14.91 0.03 0.05-8.3199 0.04-16.63 0-24.94-4.98-0.0601-9.96-0.0201-14.94 0.0399m49-0.01c-0.05 8.29-0.12 16.59 0.03 24.88 4.95 0.1 9.9 0.12 14.85-0.02 0.17-8.27 0.17-16.55-0.02-24.81-4.95-0.18-9.91-0.17-14.86-0.05m49.08-0.03c-0.2 8.3-0.15 16.61-0.07 24.92 4.97 0.08 9.93 0.08 14.9-0.03 0.06-8.3 0.06-16.6 0.01-24.9-4.95-0.04-9.89-0.04-14.84 0.01m48.96 0.04c-0.17 8.29-0.09 16.59-0.05 24.89 4.97 0.07 9.94 0.06 14.91-0.04 0.11-8.27 0.1-16.55-0.01-24.82-4.95-0.15-9.9-0.15-14.85-0.03m48.02-0.05c-0.21 8.32-0.1 16.64-0.05 24.96 4.96 0.04 9.91 0.04 14.87-0.03 0.14-8.28 0.1-16.56 0.05-24.84-4.96-0.15-9.91-0.15-14.87-0.09m-292.09 83.01c-0.01 8.3199-0.07 16.64 0.04 24.97 4.98 0.01 9.96 0.04 14.94-0.06-0.04-8.29 0.12-16.56-0.09-24.84-4.96-0.14-9.93-0.14-14.89-0.07m49.08 0.07c-0.19 8.27-0.05 16.55-0.08 24.83 4.99 0.06 9.98 0.1 14.97 0.04 0.04-8.3199 0.04-16.64 0-24.95-4.97-0.07-9.93-0.06-14.89 0.08m48.97-0.02c-0.1 8.26-0.1 16.52 0.02 24.79 4.94 0.17 9.88 0.19 14.83 0.05 0.2-8.28 0.14-16.56 0.08-24.84-4.98-0.14-9.96-0.13-14.93 0m48.96-0.02c-0.03 8.29-0.07 16.57 0.05 24.86 4.94 0.12 9.89 0.14 14.84-0.02 0.11-8.28 0.11-16.57 0.05-24.85-4.98-0.11-9.96-0.11-14.94 0.01m49.03 0c-0.07 8.3-0.12 16.6 0.04 24.91 4.95 0.07 9.9 0.07 14.86-0.06 0.07-8.28 0.09-16.57 0.01-24.85-4.97-0.11-9.94-0.1-14.91 0m49.01 0c-0.09 8.29-0.14 16.59 0.03 24.89 4.95 0.09 9.91 0.11 14.87-0.06 0.05-8.27 0.09-16.54-0.01-24.81-4.97-0.14-9.93-0.14-14.89-0.02m48 0.02c-0.11 8.28-0.1 16.56 0.02 24.84 4.95 0.13 9.91 0.13 14.86 0 0.09-8.29 0.1-16.58 0.01-24.87-4.97-0.09-9.93-0.09-14.89 0.03m-292.05 50.97c0.03 8.3-0.14 16.6 0.09 24.89 4.96 0.07 9.92 0.09 14.88 0.03 0.01-8.3199 0.08-16.64-0.02-24.96-4.99-0.04-9.97-0.06-14.95 0.04m49.07 0.06c-0.12 8.27-0.12 16.54-0.04 24.81 4.97 0.12 9.95 0.13 14.92 0.01 0.1-8.29 0.15-16.57-0.05-24.85-4.95-0.14-9.89-0.15-14.83 0.03m48.94-0.05c-0.01 8.29-0.05 16.59-0.01 24.88 4.99 0.06 9.97 0.09 14.96 0.03 0.02-8.29 0.08-16.58-0.04-24.87-4.97-0.16-9.94-0.15-14.91-0.04m49.03 0.02c-0.07 8.28-0.11 16.56 0.02 24.85 4.96 0.11 9.93 0.11 14.89 0 0.06-8.29 0.07-16.58-0.04-24.86-4.96-0.12-9.92-0.13-14.87 0.01m49.05-0.02c-0.2 8.29-0.09 16.58-0.05 24.87 4.96 0.12 9.92 0.11 14.89 0 0.1-8.29 0.09-16.58 0-24.87-4.95-0.11-9.9-0.1-14.84 0m49.01 0.01c-0.18 8.3-0.13 16.61-0.06 24.91 4.98 0.03 9.95 0.05 14.93 0 0.06-8.3 0-16.6 0-24.9-4.96-0.14-9.92-0.13-14.87-0.01m47.96 0.04c-0.09 8.28-0.08 16.56-0.03 24.84 4.98 0.08 9.96 0.1 14.95 0.01-0.01-8.29 0.07-16.59-0.04-24.88-4.96-0.13-9.93-0.15-14.88 0.03z" fill="#DADADA" stroke="#DADADA" stroke-width=".0938"/>
 <path d="m215.11 532.07c4.96-0.12 9.93-0.13 14.9 0.01-0.03 8.29 0.04 16.58-0.06 24.88-4.95 0.08-9.9 0.09-14.85-0.06-0.2-8.27-0.21-16.55 0.01-24.83z" fill="#fff" stroke="#fff" stroke-width=".0938"/>
 <path d="m264 532.06c4.98-0.11 9.96-0.1 14.94 0.01 0.09 8.29 0.11 16.58-0.01 24.86-4.98 0.08-9.95 0.12-14.93 0.03-0.01-8.3-0.01-16.6 0-24.9z" fill="#fff" stroke="#fff" stroke-width=".0938"/>
 <path d="m313.06 532.06c4.97-0.07 9.94-0.09 14.92-0.04 0.04 8.33 0.02 16.65-0.01 24.97-4.97 0.03-9.95 0.01-14.92-0.05-0.08-8.3-0.1-16.59 0.01-24.88z" fill="#fff" stroke="#fff" stroke-width=".0938"/>
 <path d="m362.04 532.07c4.96-0.11 9.92-0.12 14.88-0.01 0.17 8.29 0.16 16.59-0.02 24.88-4.94 0.12-9.89 0.11-14.83-0.01-0.1-8.29-0.11-16.57-0.03-24.86z" fill="#fff" stroke="#fff" stroke-width=".0938"/>
 <path d="m411.07 532.04c4.95-0.07 9.9-0.08 14.84 0 0.15 8.31 0.06 16.62 0.06 24.94-4.95 0.04-9.91 0.04-14.86-0.03-0.2-8.3-0.16-16.61-0.04-24.91z" fill="#fff" stroke="#fff" stroke-width=".0938"/>
 <path d="m460.06 532.03c4.95-0.07 9.9-0.07 14.86 0.0099 0.15 8.3 0.09 16.6 0.01 24.89-4.96 0.12-9.91 0.12-14.86-0.02-0.13-8.2899-0.11-16.59-0.01-24.88z" fill="#fff" stroke="#fff" stroke-width=".0938"/>
 <path d="m508.06 532.02c4.96-0.07 9.92-0.06 14.88 0.05 0.07 8.28 0.11 16.56-0.01 24.85-4.95 0.13-9.91 0.12-14.86 0-0.13-8.3-0.12-16.6-0.01-24.9z" fill="#fff" stroke="#fff" stroke-width=".0938"/>
 <path d="m216.05 583.01c4.96-0.05 9.92-0.06 14.88 0.06 0.16 8.29 0.07 16.59 0.04 24.89-4.98 0.06-9.97 0.07-14.95 0.0099-0.03-8.3199-0.07-16.64 0.03-24.96z" fill="#fff" stroke="#fff" stroke-width=".0938"/>
 <path d="m265.06 583.08c4.97-0.09 9.94-0.11 14.91-0.07 0.07 8.32 0.04 16.65 0 24.98-4.98 0.02-9.96 0.02-14.95 0-0.03-8.31-0.08-16.61 0.04-24.91z" fill="#fff" stroke="#fff" stroke-width=".0938"/>
 <path d="m314.05 583.05c4.97-0.07 9.94-0.09 14.91-0.02 0.14 8.31 0.05 16.62 0.04 24.93-4.99 0.07-9.99 0.06-14.98 0.0099-0.01-8.3099-0.08-16.62 0.03-24.92z" fill="#fff" stroke="#fff" stroke-width=".0938"/>
 <path d="m363.04 583.06c4.97-0.07 9.94-0.1 14.91-0.03 0.08 8.3199 0.06 16.63 0.01 24.95-4.98 0.05-9.95 0.03-14.93-0.02-0.04-8.3-0.06-16.6 0.01-24.9z" fill="#fff" stroke="#fff" stroke-width=".0938"/>
 <path d="m412.04 583.03c4.97-0.05 9.94-0.0601 14.91 0 0.1 8.31 0.03 16.62 0.04 24.94-4.99 0.07-9.98 0.0601-14.96 0-0.05-8.3099-0.08-16.63 0.01-24.94z" fill="#fff" stroke="#fff" stroke-width=".0938"/>
 <path d="m461.04 583.05c4.97-0.08 9.94-0.07 14.91-0.01 0.09 8.31 0.06 16.62 0.02 24.94-4.99 0.04-9.98 0.04-14.96-0.01-0.01-8.31-0.06-16.62 0.03-24.92z" fill="#fff" stroke="#fff" stroke-width=".0938"/>
 <path d="m509.05 583.03c4.97-0.05 9.95-0.05 14.93 0.02 0.05 8.3 0.02 16.61 0.01 24.92-5 0.0601-9.99 0.0601-14.98-0.02 0-8.31-0.07-16.62 0.04-24.92z" fill="#fff" stroke="#fff" stroke-width=".0938"/>
 <path d="m1669 610.17l1.04-0.08 0.0199 0.69c-0.1899 21.14-0.1899 42.28 0.01 63.42-4.39-0.2-8.7799-0.31-13.16-0.18 3.83-1.15 7.83-1.26 11.81-1.1 0.6101-20.91-0.0199-41.84 0.2801-62.75z" fill="#9A865A" stroke="#9A865A" stroke-width=".0938"/>
 <path d="m1670.1 610.09c3.2599-0.19 6.5499-0.16 9.84-0.15l-0.02 0.83c-1.03 13.39-0.2 26.83-0.45 40.24-0.27 5.56 0.7599 11.28-0.64 16.74-2.62 0.6-5.3101 0.39-7.9501 0.35-0.88-19.1 0.52-38.25-0.76-57.32l-0.0199-0.6901z" fill="#FEF568" stroke="#FEF568" stroke-width=".0938"/>
 <path d="m1722 610h9.98c0 33.33 0.01 66.67-0.01 100-3.34 0-6.67-0.01-9.98-0.01-0.01-33.33-0.03-66.66 0.01-99.99m0.27 0.25c-0.16 33.17-0.0801 66.34-0.04 99.5 3.15 0.04 6.3199 0.05 9.49 0.02 0.1-33.17 0.1-66.34 0-99.51-3.1701-0.06-6.3099-0.07-9.45-0.01z" fill="#E6E6E6" stroke="#E6E6E6" stroke-width=".0938"/>
 <path d="m1774 610c3.3099-0.01 6.64 0 9.98 0v99.99c-3.34 0.01-6.66 0.01-9.97 0-0.06-33.33-0.04-66.66-0.01-99.99m0.18 0.24c0.04 33.17-0.0299 66.34 0.03 99.51 3.16 0.03 6.34 0.04 9.53 0.02 0.09-33.17 0.05-66.35 0.01-99.53-3.2001-0.04-6.39-0.04-9.57 0z" fill="#E6E6E6" stroke="#E6E6E6" stroke-width=".0938"/>
 <path d="m1826 610h10c-0.01 33.33 0.01 66.67-0.01 100-3.34 0-6.67 0-9.98-0.01-0.02-33.33-0.01-66.66-0.01-99.99m0.23 0.23c-0.04 33.18-0.02 66.36-0.02 99.54 3.16 0.03 6.3401 0.03 9.52 0.01 0.11-33.18 0.0801-66.37 0.01-99.55-3.1799-0.05-6.36-0.05-9.51 0z" fill="#E6E6E6" stroke="#E6E6E6" stroke-width=".0938"/>
 <path d="m1878 610.01c3.3199-0.02 6.65-0.02 9.99 0v99.99c-3.34 0-6.67 0-9.99-0.03-0.01-33.32-0.02-66.64 0-99.96m0.21 0.26c-0.01 33.16-0.0499 66.32 0.02 99.48 3.16 0.03 6.34 0.05 9.53 0.05 0.04-33.2-0.04-66.41 0.04-99.61-3.21 0-6.4 0.03-9.59 0.08z" fill="#E6E6E6" stroke="#E6E6E6" stroke-width=".0938"/>
 <path d="m1670.1 610.78c1.28 19.07-0.12 38.22 0.76 57.32 2.64 0.04 5.3301 0.25 7.9501-0.35 1.3999-5.46 0.37-11.18 0.64-16.74 0.25-13.41-0.5801-26.85 0.45-40.24 0.3199 21.12 0.28 42.24 0 63.36-3.27 0.15-6.53 0.22-9.79 0.07-0.2001-21.14-0.2001-42.28-0.0101-63.42z" fill="#F1E863" stroke="#F1E863" stroke-width=".0938"/>
 <path d="m1722.3 610.25c3.14-0.06 6.2799-0.05 9.45 0.01 0.1 33.17 0.1 66.34 0 99.51-3.17 0.03-6.34 0.02-9.49-0.02-0.04-33.16-0.12-66.33 0.04-99.5z" fill="#FFF568" stroke="#FFF568" stroke-width=".0938"/>
 <path d="m1774.2 610.24c3.1801-0.04 6.37-0.04 9.5701 0 0.04 33.18 0.08 66.36-0.01 99.53-3.1901 0.02-6.37 0.01-9.53-0.02-0.0601-33.17 0.0099-66.34-0.0301-99.51z" fill="#FEF568" stroke="#FEF568" stroke-width=".0938"/>
 <path d="m1826.2 610.23c3.15-0.05 6.3301-0.05 9.51 0 0.0701 33.18 0.1 66.37-0.01 99.55-3.1799 0.02-6.36 0.02-9.52-0.01 0-33.18-0.0201-66.36 0.02-99.54z" fill="#FEF568" stroke="#FEF568" stroke-width=".0938"/>
 <path d="m1878.2 610.27c3.1901-0.05 6.38-0.08 9.5901-0.08-0.0801 33.2 0 66.41-0.04 99.61-3.1901 0-6.37-0.02-9.53-0.05-0.0701-33.16-0.0301-66.32-0.0201-99.48z" fill="#FEF568" stroke="#FEF568" stroke-width=".0938"/>
 <path d="m215.09 666.04c4.95-0.09 9.89-0.08 14.84 0.05 0.09 8.29 0.13 16.58-0.01 24.86-4.95 0.09-9.89 0.1-14.84-0.03-0.23-8.3-0.1-16.59 0.01-24.88z" fill="#fff" stroke="#fff" stroke-width=".0938"/>
 <path d="m264.05 666c4.95-0.02 9.91-0.02 14.87 0.06 0.1 8.29 0.14 16.59 0.04 24.89-4.98 0.04-9.95 0.07-14.93 0.02-0.04-8.33-0.08-16.65 0.02-24.97z" fill="#fff" stroke="#fff" stroke-width=".0938"/>
 <path d="m313.11 666.07c4.96-0.12 9.92-0.12 14.89-0.01-0.02 8.3 0.06 16.61-0.03 24.91-4.97 0.07-9.94 0.1-14.91-0.0099-0.08-8.3001-0.13-16.6 0.05-24.89z" fill="#fff" stroke="#fff" stroke-width=".0938"/>
 <path d="m362.06 666.1c4.95-0.15 9.9-0.16 14.85-0.05 0.17 8.28 0.18 16.58 0.03 24.87-4.96 0.14-9.93 0.13-14.88-0.01-0.07-8.27-0.15-16.54 0-24.81z" fill="#fff" stroke="#fff" stroke-width=".0938"/>
 <path d="m411.06 666.08c4.96-0.12 9.92-0.12 14.88-0.03 0.11 8.29 0.04 16.58 0.03 24.88-4.97 0.11-9.94 0.11-14.9 0.01-0.12-8.29-0.12-16.58-0.01-24.86z" fill="#fff" stroke="#fff" stroke-width=".0938"/>
 <path d="m460.05 666.05c4.96-0.08 9.93-0.08 14.89-0.01 0.07 8.28 0.11 16.57 0.02 24.86-4.97 0.16-9.93 0.15-14.89 0.03-0.14-8.29-0.06-16.59-0.02-24.88z" fill="#fff" stroke="#fff" stroke-width=".0938"/>
 <path d="m508.04 666.07c4.96-0.12 9.93-0.12 14.9-0.01 0.06 8.29 0.14 16.59-0.01 24.89-4.96 0.09-9.92 0.11-14.88-0.03-0.07-8.28-0.11-16.57-0.01-24.85z" fill="#fff" stroke="#fff" stroke-width=".0938"/>
 <path d="m1336.8 674.38l0.91 0.04c1.96 0.18 3.9199 0.45 5.9199 0.61 1.24 10.36-0.8199 20.82 1.03 31.12 0.27 3.41-0.9301 6.79-0.46 10.23 0.6499 5.19-1.0601 10.57 0.9099 15.59-1.6799 5.0601-2.09 10.55-0.4099 15.67-1.66 0.77-3.3101 1.54-4.99 2.23-0.6901 0.03-2.0701 0.07-2.77 0.09 0.84-15.95 0.14-31.95 0.37-47.92-0.2499-9.22 0.5701-18.48-0.5099-27.66z" fill="#F3BC83" stroke="#F3BC83" stroke-width=".0938"/>
 <path d="m1337.7 674.42c22.44-0.89 44.92-0.2 67.37-0.42 83.62 0.04 167.24-0.08 250.86 0.06l1.02-0.04c-4.2401 1.12-8.63 1.19-12.98 1.05-100.12-0.04-200.24 0.05-300.35-0.04-2-0.16-3.96-0.43-5.9199-0.61z" fill="#E2D0A6" stroke="#E2D0A6" stroke-width=".0938"/>
 <path d="m1656.9 674.02c4.38-0.13 8.7699-0.02 13.16 0.18 3.26 0.15 6.52 0.08 9.79-0.07 10.02-0.26 20.05-0.03 30.08-0.08 0.04 25.21-0.09 50.42 0.0701 75.63-9.67 0.68-19.36 0.15-29.03 0.36-106.35-0.02-212.7-0.03-319.04-0.0099-7.4299 0.05-14.86-0.01-22.28-0.16 1.6799-0.69 3.33-1.46 4.99-2.23-1.6801-5.12-1.27-10.61 0.4099-15.67-1.97-5.02-0.26-10.4-0.9099-15.59-0.4701-3.44 0.73-6.82 0.46-10.23-1.85-10.3 0.21-20.76-1.03-31.12 100.11 0.09 200.23 0 300.35 0.04 4.3498 0.1399 8.7397 0.0699 12.98-1.0501m-309.12 44c0.0599 5.85-0.4701 11.78 0.8199 17.55 2.75-0.35 5.52-0.74 8.3199-0.56 4.8201 0.28 9.6901-0.51 14.48 0.55 1.4299-5.12 0.1899-10.41 0.6799-15.61 0.3201-5.19-0.0699-10.39-0.6899-15.54-7.5801 1.6801-15.24 0.26-22.86 0.1201-1.15 4.4099-0.76 8.9799-0.7499 13.49m58.05-1.99c0.1901 6.35-0.2999 12.74 0.55 19.06 7.6899 1.16 15.44-1.38 23.04 0.43 1.2001-5.12 0.37-10.38 0.6001-15.57-0.14-5.11 0.5599-10.29-0.6001-15.32-7.6 0.56-15.19 0.26-22.78-0.05-0.71 3.77-0.95 7.61-0.81 11.45m58.37 1.97c0.01 4.69-0.78 9.37-0.33 14.05 0.24 1.13 0.11 3.52 1.96 3.19 7.25 0.04 14.54 0.35 21.78-0.29 0.28-3.63 0.66-7.27 0.51-10.92-0.4301-6.34 0.39-12.7-0.51-19.01-5.22 0.35-10.45-0.35-15.65 0.12-2.5 0.18-4.96-0.29-7.39-0.64-1.24 4.42-0.27 9-0.37 13.5m66 1.98c0.3101 5.15-1.01 10.39 0.34 15.47 7.54-1.66 15.18-0.13 22.79 0 0.67-4.45 1.09-8.94 0.8201-13.44-0.4401-5.81 0.48-11.69-0.8101-17.43-7.5599 0.68-15.3 1.25-22.83 0.02-1.2201 5.05-0.03 10.25-0.31 15.38m57.66-3c0.5 6.18-0.53 12.42 0.71 18.56 7.5701-0.66 15.23-1.48 22.77 0 0.64-3.49 0.98-7.05 0.65-10.59-0.59-6.85 0.21-13.73-0.5601-20.56-7.5599 1.08-15.31 1.14-22.86 0.09-0.5699 4.14-1.0398 8.32-0.7099 12.5m57.97 7.06c-0.21 3.79 0.03 7.6 0.8101 11.33 7.6 0.55 15.25-1.47 22.77 0.13 1.04-4.11 0.51-8.34 0.52-12.51-0.1599-6.15 0.7201-12.36-0.47-18.44-7.55 1.4-15.29 0.42-22.87 0-1.21 6.43-0.42 12.99-0.76 19.49z" fill="#FEC689" stroke="#FEC689" stroke-width=".0938"/>
 <path d="m1347.8 718.02c-0.01-4.51-0.4-9.08 0.75-13.49 7.62 0.14 15.28 1.56 22.86-0.1201 0.62 5.15 1.01 10.35 0.6899 15.54-0.49 5.2 0.75 10.49-0.6799 15.61-4.79-1.06-9.66-0.27-14.48-0.55-2.7999-0.18-5.5699 0.21-8.3199 0.56-1.2901-5.7699-0.7601-11.7-0.82-17.55z" fill="#E6E6E6" stroke="#E6E6E6" stroke-width=".0938"/>
 <path d="m1405.9 716.03c-0.14-3.84 0.1-7.6801 0.8101-11.45 7.59 0.31 15.18 0.61 22.78 0.05 1.16 5.03 0.4601 10.21 0.6001 15.32-0.2301 5.19 0.6 10.45-0.6001 15.57-7.6-1.81-15.35 0.73-23.04-0.43-0.85-6.32-0.3601-12.71-0.5501-19.06z" fill="#E6E6E6" stroke="#E6E6E6" stroke-width=".0938"/>
 <path d="m1464.2 718c0.1-4.5-0.87-9.08 0.37-13.5 2.4301 0.35 4.89 0.82 7.39 0.64 5.2-0.47 10.43 0.23 15.65-0.12 0.9 6.31 0.08 12.67 0.51 19.01 0.15 3.65-0.23 7.29-0.51 10.92-7.24 0.64-14.53 0.33-21.78 0.29-1.85 0.33-1.72-2.06-1.96-3.19-0.45-4.68 0.34-9.36 0.33-14.05z" fill="#E6E6E6" stroke="#E6E6E6" stroke-width=".0938"/>
 <path d="m1530.2 719.98c0.28-5.13-0.91-10.33 0.3101-15.38 7.5299 1.23 15.27 0.66 22.83-0.02 1.29 5.74 0.37 11.62 0.8101 17.43 0.2699 4.5-0.15 8.99-0.8201 13.44-7.61-0.13-15.25-1.66-22.79 0-1.3501-5.08-0.0301-10.32-0.3401-15.47z" fill="#E6E6E6" stroke="#E6E6E6" stroke-width=".0938"/>
 <path d="m1587.9 716.98c-0.33-4.18 0.14-8.36 0.71-12.5 7.55 1.05 15.3 0.99 22.86-0.09 0.77 6.83-0.0299 13.71 0.5601 20.56 0.33 3.54-0.01 7.1-0.65 10.59-7.54-1.48-15.2-0.66-22.77 0-1.2401-6.14-0.2101-12.38-0.7101-18.56z" fill="#E6E6E6" stroke="#E6E6E6" stroke-width=".0938"/>
 <path d="m1645.9 724.04c0.34-6.5-0.45-13.06 0.76-19.49 7.58 0.42 15.32 1.4 22.87 0 1.1901 6.08 0.3101 12.29 0.47 18.44-0.01 4.17 0.52 8.4-0.52 12.51-7.5199-1.6-15.17 0.42-22.77-0.13-0.7801-3.73-1.0201-7.54-0.8101-11.33z" fill="#E6E6E6" stroke="#E6E6E6" stroke-width=".0938"/>
 <path d="m216.02 717.01c4.97-0.02 9.93 0 14.89 0.03 0.18 8.29 0.08 16.58 0.02 24.88-4.97 0.11-9.94 0.11-14.91 0.07-0.05-8.33-0.04-16.65 0-24.98z" fill="#fff" stroke="#fff" stroke-width=".0938"/>
 <path d="m265.03 717.03c4.98-0.08 9.96-0.0601 14.95-0.01 0.04 8.31 0.05 16.63-0.02 24.95-4.97 0.07-9.94 0.0601-14.91-0.04-0.06-8.3-0.09-16.6-0.02-24.9z" fill="#fff" stroke="#fff" stroke-width=".0938"/>
 <path d="m314.07 717.07c4.95-0.13 9.9-0.13 14.86 0.01 0.16 8.28 0.16 16.57 0 24.86-4.95 0.09-9.91 0.09-14.86 0-0.09-8.29-0.12-16.58 0-24.87z" fill="#fff" stroke="#fff" stroke-width=".0938"/>
 <path d="m363.06 717.06c4.95-0.1 9.92-0.1 14.88-0.01 0.11 8.29 0.04 16.58 0.02 24.88-4.97 0.12-9.94 0.12-14.91-0.02-0.1-8.28-0.07-16.57 0.01-24.85z" fill="#fff" stroke="#fff" stroke-width=".0938"/>
 <path d="m412.1 717.04c4.93-0.09 9.88-0.09 14.82 0.03 0.16 8.28 0.08 16.58 0.03 24.87-4.96 0.09-9.92 0.09-14.87 0.02-0.13-8.31-0.14-16.62 0.02-24.92z" fill="#fff" stroke="#fff" stroke-width=".0938"/>
 <path d="m461.06 717.1c4.96-0.14 9.92-0.16 14.88-0.05 0.1 8.29 0.1 16.59 0.02 24.88-4.97 0.1-9.93 0.1-14.89 0.01-0.11-8.28-0.12-16.56-0.01-24.84z" fill="#fff" stroke="#fff" stroke-width=".0938"/>
 <path d="m509.06 717.08c4.96-0.13 9.92-0.13 14.87 0.01 0.14 8.28 0.09 16.57 0.01 24.85-4.97 0.08-9.93 0.09-14.89 0-0.07-8.29-0.13-16.57 0.01-24.86z" fill="#fff" stroke="#fff" stroke-width=".0938"/>
 <path d="m1710 749.68c2.38-0.15 4.76 0.02 7.1599 0.22-0.0099 2 0.02 4.02-0.0699 6.04-2.39 0.05-4.77 0.09-7.14 0.11-105.67-0.14-211.34 0.01-317.01-0.06-17.77 0.07-35.54-0.11-53.31 0.13-0.6801-0.03-2.05-0.09-2.74-0.12-0.11-2.02-0.11-4.04-0.01-6.04 0.7-0.02 2.08-0.06 2.77-0.09 7.4199 0.15 14.85 0.21 22.28 0.16 106.34-0.02 212.69-0.01 319.04 0.01 9.67-0.21 19.36 0.32 29.03-0.36z" fill="#737373" stroke="#737373" stroke-width=".0938"/>
 <path d="m1336.9 756c0.6899 0.03 2.0599 0.09 2.74 0.12 1.65 0.79 3.26 1.68 4.88 2.58-1.25 12.39-0.54 24.88-0.6901 37.31 0.98 4.94 0.8201 9.88 0.3101 14.86 0.75 5.7-1.14 11.62 0.97 17.12-2.4 6.68-0.8 13.85-1.42 20.77-2.01 0.72-4.01 1.47-6.0299 2.12l-0.79 0.16c0.86-15.67 0.17-31.38 0.39-47.06-0.2301-16 0.4699-32.01-0.3601-47.98z" fill="#F3BC83" stroke="#F3BC83" stroke-width=".0938"/>
 <path d="m1339.7 756.12c17.77-0.24 35.54-0.06 53.31-0.13 105.67 0.07 211.34-0.08 317.01 0.06-0.02 31.58-0.03 63.16 0.02 94.74-50.66 0.47-101.33-0.04-151.99 0.23-73.44-0.1-146.89 0.05-220.33-0.14 2.0199-0.65 4.0199-1.4 6.0299-2.12 0.62-6.92-0.98-14.09 1.42-20.77-2.11-5.5-0.22-11.42-0.97-17.12 0.51-4.98 0.6699-9.92-0.3101-14.86 0.15-12.43-0.5599-24.92 0.6901-37.31-1.6198-0.9-3.2297-1.79-4.8798-2.58m190.55 44.13c-0.0399 4.57-0.0299 9.14 0.01 13.71 0.0901 5.46-0.99 10.98 0.4 16.36 7.7-0.79 15.45 0.51 23.15-0.64 0.7-9.81-0.25-19.64 0.0499-29.45-7.88-0.15-15.74-0.48-23.61 0.02m58-0.23c-0.02 9.98-0.0499 19.95 0.0601 29.93 7.8099 0.22 15.62-0.38 23.42 0.17 0.29-9.99 0.78-20 0.1801-29.97-7.8701-0.87-15.77 0.18-23.66-0.13m58 0.18c0.23 9.83-0.98 19.7 0.05 29.5 7.8099 0.23 15.64 0.74 23.46 0.03 0.3401-3.56 0.42-7.13 0.26-10.69-0.33-6.2599 0.63-12.54-0.1799-18.79-7.8602-0.25-15.75-0.78-23.59-0.05m-298.22 11.77c0.65 6.53-0.91 13.13 0.64 19.6 7.55-1.14 15.25-0.83 22.83-0.05 1.5801-6.12-0.1599-12.38 0.4301-18.57 0.38-4.17 0.16-8.37-0.46-12.5-7.54 1.23-15.3 1.26-22.84 0.02-0.5 3.81-0.95 7.65-0.6 11.5m58.64 19.4c7.6 0.09 15.21-0.58 22.8 0.11 1.3099-5.09 0.35-10.33 0.5-15.49 0.0699-5.14 0.8999-10.37-0.51-15.41-7.61-0.1-15.23 0.66-22.8 0.07-1.11 10.18-1.37 20.54 0.01 30.72m57.31-6.42c-0.24 2.22 0.2201 4.41 0.7401 6.57 7.63-1.74 15.37-0.1 23.05-0.5 0.0701-9.89 0.62-19.76-0.01-29.64-7.6799-1.27-15.48 0.64-23.13-0.85-1.8799 8.05 0.0201 16.29-0.65 24.42z" fill="#FEC689" stroke="#FEC689" stroke-width=".0938"/>
 <path d="m1710 756.05c2.37-0.02 4.75-0.06 7.14-0.11-0.4399 1.3-0.89 2.6-1.35 3.89-0.35-0.35-1.0601-1.04-1.41-1.38-1.66 5.37-1.8199 10.98-1.1799 16.54 0.0299 21.34 0.09 42.68-0.03 64.02 0.1899 4.26 0 9.51 4.02 12.2-2.4-0.28-4.78-0.5-7.17-0.42-0.0501-31.58-0.0401-63.16-0.0201-94.74z" fill="#8D7D6D" stroke="#8D7D6D" stroke-width=".0938"/>
 <path d="m1722 766.02c3.3099-0.03 6.63-0.03 9.97-0.02v100c-3.34 0-6.67-0.01-9.99-0.03 0-33.32-0.04-66.64 0.02-99.95m0.23 0.21c-0.09 33.18-0.08 66.36-0.01 99.54 3.17 0.03 6.34 0.03 9.53-0.01 0-33.18 0.1-66.36-0.05-99.53-3.1699-0.05-6.32-0.05-9.47 0z" fill="#E6E6E6" stroke="#E6E6E6" stroke-width=".0938"/>
 <path d="m1774 766.02c3.3199-0.03 6.64-0.03 9.98-0.01 0.01 33.33 0.02 66.66 0 99.99-3.34 0-6.66 0-9.97-0.02-0.04-33.32-0.02-66.64-0.01-99.96m0.1799 0.18c0.03 33.2 0.03 66.4 0 99.6 3.1901 0 6.39 0.01 9.6001 0.03 0.0299-33.22 0.02-66.44 0-99.66-3.21 0.01-6.42 0.02-9.6001 0.03z" fill="#E6E6E6" stroke="#E6E6E6" stroke-width=".0938"/>
 <path d="m1826 766.07c3.33-0.06 6.67-0.1 10.02-0.09-0.04 33.32-0.03 66.65 0.01 99.97-3.3401-0.01-6.67 0-9.98 0.01-0.27-33.3-0.02-66.6-0.05-99.89z" fill="#FEF568" stroke="#FEF568" stroke-width=".0938"/>
 <path d="m1878 766.01c3.3099-0.02 6.63-0.02 9.97-0.01 0.02 33.33 0.02 66.67-0.01 100-3.33 0-6.66-0.01-9.97-0.03-0.01-33.32-0.03-66.64 0.01-99.96m0.22 0.2c-0.05 33.19-0.05 66.38-0.01 99.58 3.1801-0.0099 6.38-0.02 9.5801-0.0099-0.0601-33.19-0.0601-66.37 0.0099-99.56-3.21-0.01-6.4-0.02-9.58-0.01z" fill="#E6E6E6" stroke="#E6E6E6" stroke-width=".0938"/>
 <path d="m1722.3 766.23c3.15-0.05 6.3-0.05 9.47 0 0.15 33.17 0.05 66.35 0.05 99.53-3.1901 0.04-6.36 0.04-9.53 0.01-0.0699-33.18-0.08-66.36 0.01-99.54z" fill="#FEF568" stroke="#FEF568" stroke-width=".0938"/>
 <path d="m1774.2 766.2c3.1801-0.01 6.39-0.02 9.6001-0.03 0.02 33.22 0.0299 66.44 0 99.66-3.2101-0.02-6.41-0.03-9.6001-0.03 0.0301-33.2 0.0301-66.4 0-99.6z" fill="#FEF568" stroke="#FEF568" stroke-width=".0938"/>
 <path d="m1878.2 766.21c3.1801-0.01 6.37 0 9.58 0.0099-0.0699 33.19-0.0699 66.37-0.0099 99.56-3.2001-0.01-6.4 0-9.5801 0.0099-0.0401-33.2-0.0401-66.39 0.01-99.58z" fill="#FEF568" stroke="#FEF568" stroke-width=".0938"/>
 <path d="m215 800.04c4.99-0.08 9.99-0.09 14.98-0.0099 0.03 8.3 0.06 16.59-0.02 24.89-4.98 0.14-9.96 0.13-14.93 0.02-0.11-8.3001-0.06-16.6-0.03-24.9z" fill="#fff" stroke="#fff" stroke-width=".0938"/>
 <path d="m264.03 800.02c4.98-0.05 9.96-0.05 14.94 0 0.05 8.3 0.08 16.6-0.02 24.9-4.98 0.15-9.96 0.12-14.93 0.04-0.02-8.32-0.07-16.63 0.01-24.94z" fill="#fff" stroke="#fff" stroke-width=".0938"/>
 <path d="m313.02 800.04c4.99-0.08 9.98-0.07 14.97 0.01 0.01 8.3 0.03 16.61-0.02 24.92-4.97 0.08-9.95 0.1-14.93-0.05-0.06-8.29-0.08-16.59-0.02-24.88z" fill="#fff" stroke="#fff" stroke-width=".0938"/>
 <path d="m362.04 800.02c4.98-0.04 9.97-0.05 14.96 0 0.02 8.31 0.09 16.63-0.04 24.94-4.97 0.08-9.94 0.06-14.9 0.0099-0.1-8.3199-0.08-16.64-0.02-24.95z" fill="#fff" stroke="#fff" stroke-width=".0938"/>
 <path d="m411.02 800.03c4.98-0.05 9.97-0.0601 14.96 0 0.01 8.31 0.07 16.62-0.04 24.94-4.96 0.0601-9.92 0.09-14.88-0.05-0.12-8.2999-0.06-16.6-0.04-24.89z" fill="#fff" stroke="#fff" stroke-width=".0938"/>
 <path d="m460.02 800.04c4.98-0.07 9.97-0.07 14.96-0.0099 0.03 8.31 0.06 16.61 0 24.92-4.98 0.08-9.95 0.07-14.93 0.01-0.11-8.3101-0.05-16.62-0.03-24.92z" fill="#fff" stroke="#fff" stroke-width=".0938"/>
 <path d="m508.03 800.02c4.98-0.05 9.96-0.06 14.95 0.02 0.03 8.29 0.05 16.59-0.01 24.89-4.99 0.11-9.98 0.11-14.97-0.01 0.01-8.31-0.03-16.6 0.03-24.9z" fill="#fff" stroke="#fff" stroke-width=".0938"/>
 <path d="m1530.2 800.25c7.87-0.5 15.73-0.17 23.61-0.02-0.2999 9.81 0.65 19.64-0.0499 29.45-7.7001 1.15-15.45-0.15-23.15 0.64-1.39-5.38-0.3099-10.9-0.4-16.36-0.04-4.57-0.0501-9.14-0.0101-13.71z" fill="#E6E6E6" stroke="#E6E6E6" stroke-width=".0938"/>
 <path d="m1588.2 800.02c7.89 0.31 15.79-0.74 23.66 0.13 0.6 9.97 0.11 19.98-0.1801 29.97-7.7999-0.55-15.61 0.05-23.42-0.17-0.11-9.98-0.0801-19.95-0.06-29.93z" fill="#E6E6E6" stroke="#E6E6E6" stroke-width=".0938"/>
 <path d="m1646.2 800.2c7.8401-0.73 15.73-0.2 23.59 0.05 0.8099 6.25-0.15 12.53 0.1799 18.79 0.16 3.56 0.0801 7.13-0.26 10.69-7.8199 0.71-15.65 0.2-23.46-0.03-1.03-9.8 0.1799-19.67-0.05-29.5z" fill="#E6E6E6" stroke="#E6E6E6" stroke-width=".0938"/>
 <path d="m1348 811.97c-0.35-3.85 0.1-7.6899 0.6-11.5 7.54 1.2401 15.3 1.21 22.84-0.02 0.62 4.13 0.84 8.33 0.46 12.5-0.59 6.19 1.15 12.45-0.4301 18.57-7.58-0.78-15.28-1.09-22.83 0.05-1.55-6.47 0.01-13.07-0.64-19.6z" fill="#E6E6E6" stroke="#E6E6E6" stroke-width=".0938"/>
 <path d="m1406.6 831.37c-1.38-10.18-1.12-20.54-0.01-30.72 7.5699 0.59 15.19-0.17 22.8-0.07 1.4099 5.04 0.58 10.27 0.51 15.41-0.15 5.16 0.8099 10.4-0.5 15.49-7.59-0.69-15.2-0.02-22.8-0.11z" fill="#E6E6E6" stroke="#E6E6E6" stroke-width=".0938"/>
 <path d="m1463.9 824.95c0.67-8.13-1.23-16.37 0.65-24.42 7.65 1.49 15.45-0.42 23.13 0.85 0.63 9.88 0.0801 19.75 0.01 29.64-7.6799 0.4-15.42-1.24-23.05 0.5-0.52-2.16-0.98-4.35-0.7401-6.57z" fill="#E6E6E6" stroke="#E6E6E6" stroke-width=".0938"/>
 <path d="m1710 850.79c2.39-0.08 4.77 0.14 7.17 0.42-0.02 1.86-0.0601 3.74-0.11 5.63-2.3701 0.2-4.7101 0.39-7.0601 0.3199-53-0.44-106.01-0.06-159.02-0.19h-186.02c-9.1599 0.03-18.32-0.18-27.46 0.34l-0.52-0.11c-0.15-2.06-0.1899-4.11-0.09-6.16l0.79-0.16c73.44 0.19 146.89 0.04 220.33 0.14 50.66-0.2699 101.33 0.2401 151.99-0.2299z" fill="#75726F" stroke="#75726F" stroke-width=".0938"/>
 <path d="m215.11 851.06c4.94-0.13 9.89-0.1 14.83-0.02 0.11 8.29 0.08 16.57 0.01 24.86-4.96 0.14-9.92 0.15-14.87 0.05-0.19-8.3-0.18-16.6 0.03-24.89z" fill="#fff" stroke="#fff" stroke-width=".0938"/>
 <path d="m264.03 851.01c4.97-0.04 9.94 0 14.91 0.06 0.09 8.28 0.11 16.58 0 24.87-4.98 0.1-9.96 0.1-14.94 0 0-8.31-0.04-16.62 0.03-24.93z" fill="#fff" stroke="#fff" stroke-width=".0938"/>
 <path d="m313.04 851.07c4.98-0.06 9.96-0.1 14.94-0.04 0.04 8.31 0.05 16.62 0 24.94-4.97 0.0601-9.94 0.05-14.91-0.03-0.13-8.2899-0.08-16.58-0.03-24.87z" fill="#fff" stroke="#fff" stroke-width=".0938"/>
 <path d="m362.04 851.06c4.95-0.12 9.91-0.13 14.86 0.05 0.19 8.26 0.19 16.54 0.02 24.81-4.95 0.14-9.9 0.12-14.85 0.02-0.15-8.29-0.08-16.59-0.03-24.88z" fill="#fff" stroke="#fff" stroke-width=".0938"/>
 <path d="m411.12 851.03c4.95-0.05 9.89-0.05 14.84-0.01 0.05 8.3 0.05 16.6-0.01 24.9-4.97 0.11-9.93 0.11-14.9 0.03-0.08-8.31-0.13-16.62 0.07-24.92z" fill="#fff" stroke="#fff" stroke-width=".0938"/>
 <path d="m460.08 851.07c4.95-0.12 9.9-0.12 14.85 0.03 0.11 8.27 0.12 16.55 0.01 24.82-4.97 0.1-9.94 0.11-14.91 0.04-0.04-8.3-0.12-16.6 0.05-24.89z" fill="#fff" stroke="#fff" stroke-width=".0938"/>
 <path d="m508.1 851.02c4.96-0.06 9.91-0.06 14.87 0.09 0.05 8.28 0.09 16.56-0.05 24.84-4.96 0.07-9.91 0.07-14.87 0.03-0.05-8.32-0.16-16.64 0.05-24.96z" fill="#fff" stroke="#fff" stroke-width=".0938"/>
 <path d="m1337 857.2l0.52 0.11c2.42 0.66 4.87 1.45 7.42 1.48 110.7-0.0099 221.4 0 332.1-0.02 10.99-0.29 21.98 0.57 32.97 0.15-0.08 73.69 0.0701 147.39-0.08 221.08h-372.45c-0.1-63.66-0.02-127.31-0.0399-190.96-0.2001-10.62 0.4599-21.25-0.4401-31.84m11.26 33.07c-0.39 3.55-0.62 7.14-0.39 10.72 0.41 6.28-0.0699 12.58 0.4601 18.86 7.7899-0.2599 15.59 0.73 23.36-0.09 0.5199-9.8 0.9399-19.66 0.14-29.46-7.8702-0.5-15.71-0.41-23.57-0.03m58.08 0c-0.7999 5.19-0.1399 10.44-0.22 15.67 0.15 4.58-0.47 9.17 0.1 13.75 7.8101 0.58 15.69 0.44 23.51 0.15 0.1901-4.94 0.73-9.88 0.3201-14.82-0.41-4.95 0.4199-9.91-0.27-14.83-7.81-0.68-15.63 0.31-23.44 0.08m57.64 0.05c-0.0299 9.83 0.23 19.66 0.26 29.5 5.25 0.7 10.52-0.44 15.78 0.13 2.52 0.03 5.23 0.74 7.67-0.21 1.08-3.82 0.09-7.81 0.2999-11.7 0.27-5.95 0.47-11.91-0.1799-17.84-7.95 0.07-15.9-0.87-23.83 0.12m66.05-0.23c-0.27 4.94 0.11 9.8799 0.11 14.83 0.09 4.99-0.52 9.98 0.0601 14.97 7.87 0.33 15.77 0.15 23.65-0.06 0.28-2.97 0.2301-5.94 0.0601-8.89-0.33-6.89 0.74-13.79-0.1901-20.64-7.9-0.05-15.8-0.56-23.69-0.21m58.23 0.2c-0.29 2.57-0.4299 5.15-0.27 7.7401 0.42 7.24-0.4199 14.49 0.3201 21.72 7.7899 0.43 15.65 0.41 23.45 0.02 0-9.82 0.84-19.65 0.14-29.47-7.8901-0.4401-15.76-0.5301-23.64-0.0101m58.06-0.03c-0.4701 9.81-0.3401 19.68-0.14 29.5 7.87-0.37 15.75 0.86 23.61 0.06 0.96-6.58-0.4501-13.18 0.25-19.76 0.03-3.22 0.79-6.64-0.29-9.72-3.1899-0.85-6.51-0.59-9.74-0.41-4.57 0.31-9.15-0.27-13.69 0.33m-298.01 80.03c-0.64 9.85-0.62 19.73-0.11 29.59 7.85 0.05 15.72 0.26 23.58-0.16 1-9.79 0.09-19.63 0.12-29.44-7.87-0.3801-15.73-0.4801-23.59 0.0099m57.97-0.03c-0.62 3.91-0.4301 7.87-0.13 11.81 0.4301 5.9-0.64 11.82 0.09 17.71 7.8401-0.35 15.68 0.98 23.51 0.14 0.41-3.66 0.5-7.34 0.1901-10.99-0.5801-6.23 0.7699-12.45-0.05-18.66-7.8501-0.72-15.75-0.03-23.61-0.01m57.73 0.05c-0.5 5.23 0.46 10.45 0.02 15.68-0.3101 4.57 0.24 9.13 0.28 13.71 7.7899 0.4 15.61 0.47 23.42 0.2 0.8-9.91 0.5601-19.86 0-29.77-7.8998-0.02-15.83-0.41-23.72 0.18m66.23 0.12c-0.9299 2.01-0.27 4.4-0.2899 6.56 0.7599 7.57-0.4601 15.17 0.3099 22.74 7.86 0.22 15.75 0.62 23.6-0.01 0.63-4.9-0.1599-9.8199-0.08-14.73-0.04-4.9 0.6-9.81-0.08-14.68-7.82-0.03-15.72-1.34-23.46 0.12m57.98-0.16c-0.22 9.89-0.88 19.83 0.13 29.7 7.76 0.08 15.53 0.19 23.3-0.02 0.84-9.86 0.45-19.78 0.1899-29.66-7.88-0.51-15.75-0.3-23.62-0.02m58.14 0.07c-0.6899 4.19-0.63 8.45-0.24 12.68 0.5 5.56-0.5399 11.13 0.09 16.7 7.8 1.11 15.66-0.1299 23.5 0.3 0.9401-9.82 0.29-19.68 0.51-29.51-2.0399-0.49-4.13-0.88-6.21-0.68-5.89 0.37-11.79-0.1-17.65 0.51z" fill="#FEC689" stroke="#FEC689" stroke-width=".0938"/>
 <path d="m1337.5 857.31c9.14-0.52 18.3-0.31 27.46-0.34h186.02c53.01 0.13 106.02-0.25 159.02 0.19 0 0.44-0.01 1.32-0.01 1.76-10.99 0.42-21.98-0.44-32.97-0.15-110.7 0.02-221.4 0.01-332.1 0.02-2.55-0.03-5-0.82-7.42-1.48z" fill="#F1CA99" stroke="#F1CA99" stroke-width=".0938"/>
 <path d="m1710 857.16c2.35 0.07 4.6899-0.12 7.0601-0.3199-2.3301 1.86-3.52 4.6299-4.5 7.37 0.59 2.2 1 4.49 0.6399 6.79-1.12 7.3 0.4601 14.64-0.0499 21.98 0.35 9.67-0.79 19.34 0.0399 29 0.04 29.01 0.01 58.02 0.02 87.03-0.13 4.71-0.98 9.42-0.4199 14.15 0.48 4.59 0.48 9.22 0.3999 13.84-0.0399 14.33-0.0599 28.67 0.03 43h-3.3099c0.15-73.69 0-147.39 0.08-221.08-1e-4 -0.4401 0.0099-1.3201 0.0099-1.7601z" fill="#8D7D6D" stroke="#8D7D6D" stroke-width=".0938"/>
 <path d="m1348.2 890.27c7.86-0.38 15.7-0.47 23.57 0.03 0.7999 9.8 0.3799 19.66-0.14 29.46-7.77 0.82-15.57-0.17-23.36 0.09-0.53-6.28-0.05-12.58-0.4601-18.86-0.23-3.58 0-7.17 0.39-10.72z" fill="#E6E6E6" stroke="#E6E6E6" stroke-width=".0938"/>
 <path d="m1406.3 890.27c7.8101 0.23 15.63-0.76 23.44-0.08 0.6899 4.92-0.14 9.88 0.27 14.83 0.4099 4.94-0.13 9.88-0.3201 14.82-7.8199 0.29-15.7 0.43-23.51-0.15-0.5699-4.58 0.05-9.17-0.1-13.75 0.0802-5.23-0.5799-10.48 0.22-15.67z" fill="#E6E6E6" stroke="#E6E6E6" stroke-width=".0938"/>
 <path d="m1464 890.32c7.9301-0.99 15.88-0.05 23.83-0.12 0.6499 5.93 0.45 11.89 0.1799 17.84-0.21 3.89 0.78 7.88-0.2999 11.7-2.4401 0.95-5.15 0.24-7.67 0.21-5.26-0.57-10.53 0.57-15.78-0.13-0.0302-9.84-0.29-19.67-0.2601-29.5z" fill="#E6E6E6" stroke="#E6E6E6" stroke-width=".0938"/>
 <path d="m1530 890.09c7.89-0.35 15.79 0.16 23.69 0.21 0.9301 6.85-0.1399 13.75 0.1901 20.64 0.17 2.95 0.22 5.92-0.0601 8.89-7.88 0.21-15.78 0.39-23.65 0.06-0.5801-4.99 0.0299-9.98-0.0601-14.97 1e-4 -4.95-0.3799-9.89-0.1099-14.83z" fill="#E6E6E6" stroke="#E6E6E6" stroke-width=".0938"/>
 <path d="m1588.2 890.29c7.88-0.52 15.75-0.43 23.64 0.01 0.7 9.82-0.14 19.65-0.14 29.47-7.8 0.39-15.66 0.41-23.45-0.02-0.74-7.23 0.1-14.48-0.3201-21.72-0.1598-2.59-0.0199-5.17 0.2701-7.74z" fill="#E6E6E6" stroke="#E6E6E6" stroke-width=".0938"/>
 <path d="m1646.3 890.26c4.5399-0.6 9.12-0.02 13.69-0.33 3.23-0.18 6.55-0.44 9.74 0.41 1.0801 3.08 0.3201 6.5 0.29 9.72-0.7001 6.58 0.71 13.18-0.25 19.76-7.86 0.8-15.74-0.43-23.61-0.06-0.1999-9.82-0.3299-19.69 0.1401-29.5z" fill="#E6E6E6" stroke="#E6E6E6" stroke-width=".0938"/>
 <path d="m1722 922c3.3199-0.01 6.64-0.01 9.98 0v100c-3.34-0.01-6.67-0.01-9.99 0-0.02-33.33-0.03-66.67 0.01-100m0.25 0.23c-0.0801 33.17-0.15 66.36 0.03 99.53 3.13 0.04 6.2799 0.03 9.4399-0.02 0.12-33.17 0.08-66.33 0.02-99.49-3.1699-0.05-6.3399-0.06-9.4899-0.02z" fill="#E6E6E6" stroke="#E6E6E6" stroke-width=".0938"/>
 <path d="m1774 922c3.3199-0.01 6.64-0.01 9.98 0.01 0 33.33 0.01 66.66 0 99.99-3.34-0.01-6.66 0-9.97-0.01-0.06-33.33-0.04-66.66-0.01-99.99m0.21 0.24c-0.0599 33.18 0 66.35-0.02 99.52 3.17 0.03 6.3501 0.03 9.55 0.01 0.09-33.17 0.05-66.35 0.02-99.52-3.2-0.04-6.38-0.04-9.55-0.01z" fill="#E6E6E6" stroke="#E6E6E6" stroke-width=".0938"/>
 <path d="m1826 922c3.3199-0.01 6.65-0.01 9.99 0v100c-3.35-0.01-6.6801-0.01-10-0.01 0-33.33-0.01-66.66 0.01-99.99m0.19 0.23c0.03 33.18-0.0299 66.36 0.04 99.55 3.15 0.03 6.3201 0.03 9.5-0.01 0.08-33.18 0.09-66.37-0.01-99.55-3.19-0.04-6.36-0.03-9.53 0.01z" fill="#E6E6E6" stroke="#E6E6E6" stroke-width=".0938"/>
 <path d="m1878 922.01c3.3099-0.02 6.64-0.02 9.98-0.01v100c-3.35 0-6.6801-0.01-9.99-0.03-0.01-33.32-0.03-66.64 0.01-99.96m0.23 0.23c-0.09 33.16-0.03 66.32-0.03 99.48 3.1801 0.05 6.38 0.08 9.5901 0.09-0.0701-33.2-0.01-66.4-0.04-99.6-3.1901-0.02-6.3601-0.01-9.5201 0.03z" fill="#E6E6E6" stroke="#E6E6E6" stroke-width=".0938"/>
 <path d="m1722.3 922.23c3.15-0.04 6.3199-0.03 9.49 0.02 0.0599 33.16 0.1 66.32-0.02 99.49-3.16 0.05-6.3099 0.06-9.4399 0.02-0.1801-33.17-0.1102-66.36-0.0301-99.53z" fill="#FEF568" stroke="#FEF568" stroke-width=".0938"/>
 <path d="m1774.2 922.24c3.17-0.03 6.35-0.03 9.55 0.01 0.03 33.17 0.0699 66.35-0.02 99.52-3.2 0.02-6.38 0.02-9.55-0.01 0.02-33.17-0.04-66.34 0.02-99.52z" fill="#FEF568" stroke="#FEF568" stroke-width=".0938"/>
 <path d="m1826.2 922.23c3.17-0.04 6.3401-0.05 9.53-0.01 0.1 33.18 0.09 66.37 0.01 99.55-3.1799 0.04-6.35 0.04-9.5 0.01-0.07-33.19-0.01-66.37-0.04-99.55z" fill="#FEF568" stroke="#FEF568" stroke-width=".0938"/>
 <path d="m1878.2 922.24c3.16-0.04 6.33-0.05 9.52-0.03 0.03 33.2-0.03 66.4 0.04 99.6-3.2101-0.01-6.41-0.04-9.5901-0.09 1e-4 -33.16-0.0599-66.32 0.0301-99.48z" fill="#FEF568" stroke="#FEF568" stroke-width=".0938"/>
 <path d="m216.01 934.03c4.96-0.07 9.93-0.07 14.89 0.0699 0.21 8.28 0.05 16.55 0.09 24.84-4.98 0.1-9.96 0.07-14.94 0.06-0.11-8.3299-0.05-16.65-0.04-24.97z" fill="#fff" stroke="#fff" stroke-width=".0938"/>
 <path d="m265.09 934.1c4.96-0.14 9.92-0.15 14.89-0.08 0.04 8.31 0.04 16.63 0 24.95-4.99 0.0601-9.98 0.02-14.97-0.04 0.03-8.28-0.11-16.56 0.08-24.83z" fill="#fff" stroke="#fff" stroke-width=".0938"/>
 <path d="m314.06 934.08c4.97-0.13 9.95-0.14 14.93 0 0.06 8.28 0.12 16.56-0.08 24.84-4.95 0.14-9.89 0.12-14.83-0.05-0.12-8.27-0.12-16.53-0.02-24.79z" fill="#fff" stroke="#fff" stroke-width=".0938"/>
 <path d="m363.02 934.06c4.98-0.12 9.96-0.12 14.94-0.01 0.06 8.28 0.06 16.57-0.05 24.85-4.95 0.16-9.9 0.14-14.84 0.02-0.12-8.29-0.08-16.57-0.05-24.86z" fill="#fff" stroke="#fff" stroke-width=".0938"/>
 <path d="m412.05 934.06c4.97-0.1 9.94-0.11 14.91 0 0.08 8.28 0.06 16.57-0.01 24.85-4.96 0.13-9.91 0.13-14.86 0.06-0.16-8.31-0.11-16.61-0.04-24.91z" fill="#fff" stroke="#fff" stroke-width=".0938"/>
 <path d="m461.06 934.06c4.96-0.12 9.92-0.12 14.89 0.02 0.1 8.27 0.06 16.54 0.01 24.81-4.96 0.17-9.92 0.15-14.87 0.06-0.17-8.3-0.12-16.6-0.03-24.89z" fill="#fff" stroke="#fff" stroke-width=".0938"/>
 <path d="m509.06 934.08c4.96-0.12 9.92-0.12 14.89-0.03 0.09 8.29 0.08 16.58-0.01 24.87-4.95 0.13-9.91 0.13-14.86 0-0.12-8.28-0.13-16.56-0.02-24.84z" fill="#fff" stroke="#fff" stroke-width=".0938"/>
 <path d="m48.62 947.35c-0.07-0.52-0.16-1.02-0.2-1.5099 2.81 0.54 5.68 0.87 8.55 0.86 3.47-0.33 6.35 1.98 9.53 2.99 5.74 2.08 10.25 6.37 14.14 10.94 6.61 9.13 7.74 21.3 4.2 31.85-1.38 3.54 0.44 7.06 1.2 10.51 2.12 10.27-0.05 21.85-7.44 29.62-6.49 7.67-16.55 11.55-26.47 11.66-9.87-0.77-19.98-5.52-25.62-13.9-0.88-0.14-1.77-0.25-2.66-0.33-7.97 0.6699-16.32 1.6-23.85-1.8301v-61.69c3.62-1.01 7.25-2.2 11.04-2.31 4.06-0.25 8.09 0.5099 12.14 0.39 3.79-3.42 6.19-8.23 10.53-11.11 6.95-5.61 16.2-6.76 24.84-6.06-3.21-1.15-6.65-0.45-9.93-0.08z" fill="#3AB54A" stroke="#3AB54A" stroke-width=".0938"/>
 <path d="m1348.3 970.29c7.86-0.49 15.72-0.39 23.59-0.0099-0.03 9.81 0.88 19.65-0.12 29.44-7.86 0.42-15.73 0.21-23.58 0.16-0.51-9.86-0.53-19.74 0.11-29.59z" fill="#E6E6E6" stroke="#E6E6E6" stroke-width=".0938"/>
 <path d="m1406.3 970.26c7.86-0.02 15.76-0.71 23.61 0.01 0.8199 6.21-0.53 12.43 0.05 18.66 0.3099 3.65 0.22 7.33-0.1901 10.99-7.83 0.84-15.67-0.49-23.51-0.14-0.73-5.89 0.3401-11.81-0.09-17.71-0.2999-3.94-0.4899-7.9 0.1301-11.81z" fill="#E6E6E6" stroke="#E6E6E6" stroke-width=".0938"/>
 <path d="m1464 970.31c7.89-0.59 15.82-0.2 23.72-0.18 0.5601 9.91 0.8 19.86 0 29.77-7.8099 0.27-15.63 0.2-23.42-0.2-0.04-4.58-0.5901-9.14-0.28-13.71 0.4399-5.23-0.5201-10.45-0.0201-15.68z" fill="#E6E6E6" stroke="#E6E6E6" stroke-width=".0938"/>
 <path d="m1530.2 970.43c7.74-1.46 15.64-0.15 23.46-0.12 0.6799 4.87 0.0399 9.78 0.08 14.68-0.08 4.91 0.71 9.83 0.08 14.73-7.85 0.63-15.74 0.23-23.6 0.01-0.77-7.57 0.45-15.17-0.3099-22.74 0.0198-2.16-0.6402-4.55 0.2898-6.56z" fill="#E6E6E6" stroke="#E6E6E6" stroke-width=".0938"/>
 <path d="m1588.2 970.27c7.87-0.28 15.74-0.49 23.62 0.02 0.26 9.88 0.65 19.8-0.1899 29.66-7.77 0.21-15.54 0.1-23.3 0.02-1.0102-9.87-0.3501-19.81-0.1301-29.7z" fill="#E6E6E6" stroke="#E6E6E6" stroke-width=".0938"/>
 <path d="m1646.3 970.34c5.86-0.61 11.76-0.14 17.65-0.51 2.08-0.2 4.17 0.19 6.21 0.68-0.22 9.83 0.4301 19.69-0.51 29.51-7.84-0.43-15.7 0.81-23.5-0.3-0.6299-5.5699 0.41-11.14-0.09-16.7-0.39-4.23-0.45-8.49 0.24-12.68z" fill="#E6E6E6" stroke="#E6E6E6" stroke-width=".0938"/>
 <path d="m217.01 985.05c4.98-0.1 9.96-0.08 14.95-0.04 0.1 8.32 0.03 16.64 0.02 24.96-4.96 0.0601-9.92 0.04-14.88-0.03-0.23-8.29-0.06-16.59-0.09-24.89z" fill="#fff" stroke="#fff" stroke-width=".0938"/>
 <path d="m266.08 985.11c4.94-0.18 9.88-0.17 14.83-0.03 0.2 8.28 0.15 16.56 0.05 24.85-4.97 0.12-9.95 0.11-14.92-0.01-0.08-8.27-0.08-16.54 0.04-24.81z" fill="#fff" stroke="#fff" stroke-width=".0938"/>
 <path d="m315.02 985.06c4.97-0.11 9.94-0.12 14.91 0.04 0.12 8.29 0.06 16.58 0.04 24.87-4.99 0.0601-9.97 0.03-14.96-0.03-0.04-8.29 0-16.59 0.01-24.88z" fill="#fff" stroke="#fff" stroke-width=".0938"/>
 <path d="m364.05 985.08c4.95-0.14 9.91-0.13 14.87-0.01 0.11 8.28 0.1 16.57 0.04 24.86-4.96 0.11-9.93 0.11-14.89 0-0.13-8.29-0.09-16.57-0.02-24.85z" fill="#fff" stroke="#fff" stroke-width=".0938"/>
 <path d="m413.1 985.06c4.94-0.1 9.89-0.11 14.84 0 0.09 8.29 0.1 16.58 0 24.87-4.97 0.11-9.93 0.12-14.89 0-0.04-8.29-0.15-16.58 0.05-24.87z" fill="#fff" stroke="#fff" stroke-width=".0938"/>
 <path d="m462.11 985.07c4.95-0.12 9.91-0.13 14.87 0.01 0 8.3 0.06 16.6 0 24.9-4.98 0.05-9.95 0.03-14.93 0-0.07-8.3-0.12-16.61 0.06-24.91z" fill="#fff" stroke="#fff" stroke-width=".0938"/>
 <path d="m510.07 985.11c4.95-0.18 9.92-0.16 14.88-0.03 0.11 8.29 0.03 16.59 0.04 24.88-4.99 0.09-9.97 0.07-14.95-0.01-0.05-8.28-0.06-16.56 0.03-24.84z" fill="#fff" stroke="#fff" stroke-width=".0938"/>
 <path d="m893.33 1014.2c1.3-2.46 2.54-4.95 3.77-7.44 1.32 1.05 2.62 2.23 3.42 3.78 4.52 8.18 9.2 16.27 14 24.29-0.32 0.64-0.94 1.9401-1.26 2.58-10.87 0.0901-21.74 0.2201-32.6 0.39 0.27-0.72 0.81-2.1599 1.09-2.88 2.33-4.5 4.95-8.85 7.28-13.35 1.39-2.48 2.95-4.86 4.3-7.37m-4.68 18.74c6.35-0.1 12.69-0.1 19.04-0.1599-3.34-5.6201-6.49-11.35-9.83-16.96-3.11 5.68-6.64 11.16-9.21 17.12z" fill="#E71F26" stroke="#E71F26" stroke-width=".0938"/>
 <path d="m888.65 1033c2.5699-5.96 6.1-11.44 9.21-17.12 3.34 5.61 6.49 11.34 9.83 16.96-6.35 0.0599-12.69 0.0599-19.04 0.1599z" fill="#FFFEFC" stroke="#FFFEFC" stroke-width=".0938"/>
 <path d="m1028.8 1025.4c6.1899-1.87 12.74-1.2 18.83 0.73 0.51 17.96-0.03 35.93 0.3 53.9h-48.92c-2.21-7.13-3.07-15.84 2.05-21.96 3.77-5.3501 10.26-7.65 16.49-8.53-0.2401-5.01-0.8-10.44 1.86-14.95 2.0199-4.03 5.8199-6.64 9.3899-9.19z" fill="#3AB54A" stroke="#3AB54A" stroke-width=".0938"/>
 <path d="m23.85 1030c0.89 0.08 1.78 0.1899 2.66 0.33 5.64 8.38 15.75 13.13 25.62 13.9-0.7 6.23-0.25 12.51-0.43 18.77 0.07 3.21-0.53 6.85 1.8 9.49 0.12 2.48 0.25 4.97 0.36 7.47h-37.37c-0.09-2.35 0.05-4.71 0.5-7 2.48-14.29 4.54-28.65 6.86-42.96z" fill="#A67C52" stroke="#A67C52" stroke-width=".0938"/>
 <path d="m880.12 1038c0.53-1.01 1.08-2.01 1.63-3-0.28 0.7201-0.82 2.16-1.09 2.88 10.86-0.1699 21.73-0.2999 32.6-0.39 0.32-0.6399 0.94-1.9399 1.26-2.58 0.61 1.05 1.19 2.1 1.8 3.1901-5.03 0.25-10.06 0.26-15.08 0.2699-0.1 13.89-0.06 27.78-0.05 41.68h-4.88c-0.5-13.88-0.22-27.77-0.41-41.65-2.14-0.0599-4.28-0.11-6.4-0.1799-3.13-0.1402-6.26-0.2002-9.38-0.2202z" fill="#656667" stroke="#656667" stroke-width=".0938"/>
 <path d="m52.13 1044.3c0.89 1.76 1.47 3.7 1.37 5.71-0.03 7.52-0.05 15.03 0 22.55-2.33-2.64-1.73-6.28-1.8-9.49 0.18-6.26-0.27-12.54 0.43-18.77z" fill="#768B7F" stroke="#768B7F" stroke-width=".0938"/>
 <path d="m189.4 1056.4c0.72-4.01 2.21-8.22 6.19-10.06 0.31 0.0299 0.92 0.08 1.23 0.1l0.09 0.5c-1.81 3.4299-1.32 7.35-1.31 11.07 0.12 7.3401-0.12 14.69 0.22 22.03h-25.06c-2.3-6.21-2.32-13.93 2.52-18.97 3.89-4.77 10.44-5.2199 16.12-4.67z" fill="#39B54A" stroke="#39B54A" stroke-width=".0938"/>
 <path d="m195.6 1058c-0.01-3.72-0.5-7.64 1.31-11.07 0.2 11.03 0.04 22.07 0.09 33.1h-1.18c-0.34-7.3401-0.1-14.69-0.22-22.03z" fill="#4C9255" stroke="#4C9255" stroke-width=".0938"/>
 <path d="m196.91 1046.9c1.05 1.86 1.52 3.98 1.42 6.13-0.16 8.99-0.06 17.98-0.14 26.97h-1.19c-0.05-11.03 0.11-22.07-0.09-33.1z" fill="#C1EBC5" stroke="#C1EBC5" stroke-width=".0938"/>
 <rect x="1713.8" y="92.356" width="98.18" height="51.71" fill="#3CB879" stroke="#447F67"/>
 <g fill="#626868" stroke="#626868" stroke-width=".0938">
  <rect x="1731" y="144.65" width="6.0601" height="33.28"/>
  <rect x="1788.8" y="144.65" width="6.0601" height="33.28"/>
 </g>
</svg>
